<svg width="49" height="11" viewBox="0 0 49 11" fill="none" xmlns="http://www.w3.org/2000/svg">
<rect width="49" height="11" fill="white"/>
<path d="M42.4465 1.02197C42.2842 1.60897 42.1428 2.14998 41.9786 2.68298C41.9608 2.73898 41.8084 2.78299 41.7174 2.78299C40.4511 2.78899 39.1858 2.78299 37.9195 2.78299C36.402 2.78299 34.8844 2.78299 33.3688 2.78299C33.171 2.78299 33.0859 2.83997 33.0384 3.03397C32.9068 3.56797 32.7535 4.09697 32.6002 4.65897H40.4758C41.0961 4.66697 41.3454 4.99099 41.1881 5.59299C41.0763 6.02199 40.9586 6.44898 40.8419 6.87598C40.644 7.59998 40.4462 8.32499 40.2483 9.04599C40.1865 9.32831 40.0271 9.5791 39.7989 9.75339C39.5706 9.92768 39.2884 10.014 39.0028 9.99698C35.8786 9.99698 32.7542 9.99698 29.6293 9.99698H29.3672C29.5195 9.43698 29.658 8.90399 29.8183 8.37799C29.8371 8.31599 29.9766 8.25399 30.0617 8.25299C31.1934 8.24499 32.3241 8.24799 33.4559 8.24799H38.6991L39.2036 6.40799H31.3883C30.6661 6.40799 30.4326 6.09598 30.6265 5.38898C30.9299 4.28231 31.2333 3.17533 31.5367 2.06799C31.5933 1.75581 31.7628 1.47609 32.0123 1.2833C32.2617 1.0905 32.5732 0.99843 32.8861 1.02499H42.4465V1.02197Z" fill="#666364"/>
<path d="M15.0248 5.79901C14.4253 6.34201 13.8218 6.88299 13.2253 7.42999C12.3415 8.23999 11.4604 9.05234 10.5819 9.86701C10.5374 9.90801 10.483 9.94502 10.4226 9.99802L7.61009 5.15201L6.28249 9.97901H4.51562L6.97992 1L10.7679 7.323C11.2813 6.886 11.774 6.469 12.2647 6.051C14.1503 4.44366 16.0355 2.83634 17.9204 1.229C17.9764 1.18869 18.0356 1.15324 18.0975 1.12302V1.11801C17.9916 1.54601 17.8937 1.97499 17.778 2.39999C17.1122 4.83999 16.4405 7.278 15.7796 9.719C15.7232 9.928 15.6431 10.008 15.4175 9.999C14.9348 9.978 14.451 9.99201 13.9336 9.99201C14.0968 9.39201 14.2492 8.81602 14.4055 8.24402C14.6033 7.51202 14.8091 6.78101 15.007 6.04401C15.0221 5.95887 15.0294 5.87251 15.0287 5.78601H15.0634L15.0574 5.754L15.0248 5.79901Z" fill="#666364"/>
<path d="M19.1037 9.983H17.3438L18.8128 4.655H19.1403C21.8878 4.655 24.6354 4.65667 27.383 4.66C27.4231 4.66741 27.4643 4.66622 27.5039 4.65649C27.5435 4.64677 27.5807 4.62872 27.6129 4.60355C27.6452 4.57837 27.6719 4.54662 27.6912 4.51035C27.7106 4.47407 27.7222 4.4341 27.7253 4.39301C27.8519 3.86801 28.0023 3.348 28.1536 2.785H19.3203C19.4786 2.207 19.6231 1.668 19.7784 1.133C19.7922 1.085 19.8773 1.04399 19.9327 1.02499C19.9947 1.01576 20.0577 1.01576 20.1197 1.02499H29.3319C29.4216 1.02253 29.5115 1.02554 29.6009 1.034C29.6941 1.03298 29.7861 1.05413 29.8697 1.09573C29.9532 1.13733 30.0259 1.19822 30.0818 1.27347C30.1378 1.34872 30.1755 1.43625 30.1918 1.52893C30.2081 1.62162 30.2026 1.71687 30.1757 1.80701C30.0342 2.44201 29.8502 3.067 29.6811 3.694C29.5258 4.27 29.3645 4.84401 29.2042 5.41901C29.1462 5.7162 28.9818 5.98135 28.7426 6.16379C28.5033 6.34623 28.2059 6.43319 27.9073 6.40802C25.3932 6.40802 22.8791 6.40802 20.365 6.40802C20.325 6.40046 20.2839 6.40148 20.2442 6.41101C20.2046 6.42055 20.1674 6.43837 20.1351 6.46335C20.1027 6.48833 20.0759 6.51992 20.0564 6.55603C20.0369 6.59215 20.0251 6.63199 20.0217 6.673C19.7527 7.695 19.4638 8.71202 19.1808 9.73102C19.1561 9.80902 19.1304 9.893 19.1037 9.983Z" fill="#666364"/>
<path d="M5.22423 1.03417C4.9126 2.17017 4.61089 3.26618 4.31015 4.36218C3.82144 6.14818 3.32875 7.93319 2.84796 9.72219C2.79058 9.93519 2.70651 10.0082 2.48392 9.9992C2.00214 9.9792 1.51838 9.99319 1 9.99319C1.17807 9.33619 1.34626 8.71018 1.5174 8.08618C2.13867 5.81951 2.75894 3.55285 3.37823 1.28619C3.42967 1.09819 3.49199 1.0182 3.69776 1.0252C4.19339 1.0452 4.68704 1.03417 5.22423 1.03417Z" fill="#666364"/>
<path d="M43.8411 8.021L41.8111 9.94101C41.8026 9.87194 41.8026 9.80207 41.8111 9.733C42.59 6.895 43.3708 4.05768 44.1537 1.22101C44.1626 1.19101 44.1715 1.16 44.1962 1.073L45.1924 3.04001C45.5535 3.77401 45.9057 4.51299 46.2806 5.23999C46.3094 5.27758 46.3303 5.32077 46.3418 5.36685C46.3534 5.41294 46.3554 5.46093 46.3478 5.50784C46.3402 5.55476 46.3231 5.59959 46.2976 5.63953C46.2721 5.67947 46.2387 5.71367 46.1995 5.73999C45.412 6.49399 44.6295 7.261 43.8411 8.021Z" fill="#F16802"/>
<path d="M43.839 8.02103C44.6304 7.26103 45.411 6.49403 46.2133 5.74503C46.2525 5.71871 46.2858 5.6845 46.3113 5.64456C46.3369 5.60462 46.354 5.55979 46.3616 5.51288C46.3692 5.46596 46.3671 5.41797 46.3556 5.37189C46.344 5.3258 46.3232 5.28261 46.2944 5.24503C45.9185 4.51803 45.5663 3.77901 45.2062 3.04501L45.774 1.07703L47.995 5.53104C47.3421 6.15404 46.698 6.76901 46.055 7.38501C45.164 8.23901 44.2736 9.0937 43.3839 9.94904C43.3804 9.86308 43.3853 9.77696 43.3988 9.69202C43.5393 9.13502 43.6906 8.57903 43.839 8.02103Z" fill="#03895E"/>
<path d="M43.3806 9.95004L43.3516 9.94104L43.3846 9.95105L43.3806 9.95004Z" fill="#03895E"/>
<path d="M18.0988 1.12405C18.0997 1.11647 18.1017 1.10906 18.1048 1.10205C18.1048 1.10205 18.1158 1.10205 18.1208 1.10205L18.0938 1.12207L18.0988 1.12405Z" fill="#666364"/>
<path d="M15.0352 5.80093L15.0602 5.76794L15.0662 5.79996H15.0312L15.0352 5.80093Z" fill="#FEFEFE"/>
</svg>
