<svg width="32" height="11" viewBox="0 0 32 11" fill="none" xmlns="http://www.w3.org/2000/svg">
<rect width="32" height="11" fill="white"/>
<g opacity="0.6">
<path d="M1 1H2.69322L6.56531 7.42065H6.44718V1H7.99602V10H6.42093L2.29945 3.19106H2.54884V10H1V1Z" fill="#00274C"/>
<path d="M10.4216 10V1H15.895V2.41448H11.9705V4.78583H15.6588V6.20031H11.9705V8.57165H15.895V10H10.4216Z" fill="#00274C"/>
<path d="M18.1384 10V1H23.5068V2.41448H19.6873V4.78583H23.1787V6.18644H19.6873V10H18.1384Z" fill="#00274C"/>
<path d="M24.1746 2.41448V1H31V2.41448H28.0139L28.3617 2.04006V10H26.8129V2.04006L27.1607 2.41448H24.1746Z" fill="#00274C"/>
</g>
</svg>
