<svg width="30" height="11" viewBox="0 0 30 11" fill="none" xmlns="http://www.w3.org/2000/svg">
<rect width="30" height="11" fill="white"/>
<g opacity="0.6">
<path d="M1 10L1.80415 1.17308H4.65162C5.56562 1.17308 6.24893 1.41494 6.70154 1.89867C7.15854 2.37796 7.34969 3.01923 7.27499 3.82249C7.20907 4.43935 7.00254 4.96524 6.6554 5.40015C6.30825 5.83506 5.83807 6.13905 5.24484 6.31213L7 10H5.18078L3.76838 6.44527H2.70057L2.39737 10H1ZM2.79285 5.39349H4.11113C4.62526 5.39349 5.02733 5.26257 5.31735 5.00074C5.60737 4.73447 5.77215 4.39053 5.8117 3.96894C5.84686 3.53846 5.75677 3.19231 5.54146 2.93047C5.33053 2.6642 4.98998 2.53107 4.51979 2.53107H3.06969L2.79285 5.39349Z" fill="#00274C"/>
<path d="M10 10L10.6772 2.53107H8.29109L8.42292 1.17308H14.5924L14.4606 2.53107H12.0745L11.3974 10H10Z" fill="#00274C"/>
<path d="M17.7367 10C17.1084 10 16.5569 9.81361 16.0823 9.44083C15.6121 9.06805 15.2584 8.54882 15.0211 7.88314C14.7882 7.21302 14.7135 6.43195 14.797 5.53994C14.8673 4.83432 15.0189 4.20192 15.2518 3.64275C15.4891 3.07914 15.7901 2.60207 16.1548 2.21154C16.5239 1.81657 16.9392 1.51701 17.4006 1.31287C17.862 1.10429 18.3519 1 18.8704 1C19.5911 1 20.1777 1.1753 20.6303 1.52589C21.0873 1.87648 21.4147 2.42899 21.6125 3.18343L20.1492 3.55621C19.9866 3.18787 19.7823 2.90828 19.5362 2.71746C19.2901 2.52219 18.9979 2.42456 18.6595 2.42456C18.2816 2.42456 17.9235 2.55104 17.5851 2.80399C17.2468 3.05252 16.9611 3.40976 16.7283 3.87574C16.4998 4.34172 16.3569 4.89645 16.2998 5.53994C16.2427 6.14349 16.2756 6.6716 16.3987 7.12426C16.5217 7.57248 16.7195 7.92308 16.9919 8.17604C17.2644 8.42456 17.5961 8.54882 17.9872 8.54882C18.3124 8.54882 18.6134 8.47337 18.8902 8.32248C19.1671 8.16716 19.3978 7.94305 19.5823 7.65015C19.7669 7.35281 19.8811 6.99556 19.9251 6.5784C19.9383 6.49852 19.9426 6.42308 19.9382 6.35207C19.9382 6.27663 19.9382 6.17678 19.9382 6.05252L20.2349 6.4253L18.2113 6.3787L18.3036 5.36686H21.3752L20.9665 9.81361H19.8328C19.824 9.5429 19.8196 9.27441 19.8196 9.00814C19.8196 8.73743 19.813 8.46894 19.7998 8.20266L19.8921 8.18269C19.6944 8.75518 19.4153 9.20118 19.055 9.52071C18.6991 9.84024 18.2596 10 17.7367 10Z" fill="#00274C"/>
<path d="M25.6381 10C25.1064 10 24.6253 9.89571 24.1946 9.68713C23.764 9.47855 23.4278 9.16124 23.1861 8.73521C22.9489 8.30917 22.8522 7.76775 22.8961 7.11095H24.2935C24.2583 7.44379 24.3023 7.71672 24.4253 7.92973C24.5528 8.13831 24.7329 8.29364 24.9658 8.39571C25.1987 8.49778 25.4624 8.54882 25.7568 8.54882C26.0424 8.54882 26.2995 8.50666 26.528 8.42234C26.7609 8.33802 26.9476 8.22041 27.0882 8.06953C27.2333 7.9142 27.3167 7.72781 27.3387 7.51035C27.3651 7.22189 27.3102 6.99556 27.1739 6.83136C27.0377 6.66716 26.807 6.51627 26.4818 6.3787L25.0186 5.6997C24.4473 5.43787 24.0189 5.13609 23.7332 4.79438C23.4476 4.44823 23.3312 3.96894 23.3839 3.35651C23.4586 2.65533 23.764 2.08728 24.3001 1.65237C24.8362 1.21746 25.5459 1 26.4291 1C27.286 1 27.9297 1.22633 28.3604 1.679C28.7954 2.13166 29.0085 2.7574 28.9997 3.55621H27.6156C27.5936 3.2145 27.4793 2.94157 27.2728 2.73743C27.0663 2.52885 26.7411 2.42456 26.2973 2.42456C25.8974 2.42456 25.5744 2.51775 25.3283 2.70414C25.0867 2.8861 24.9482 3.11686 24.9131 3.39645C24.8955 3.62722 24.9526 3.81583 25.0845 3.96228C25.2207 4.10429 25.436 4.23965 25.7304 4.36834L27.3387 5.10059C27.888 5.34467 28.2967 5.65754 28.5647 6.0392C28.8372 6.41642 28.947 6.88905 28.8943 7.4571C28.8459 7.97633 28.6856 8.42678 28.4131 8.80843C28.1451 9.18565 27.7759 9.47855 27.3058 9.68713C26.8356 9.89571 26.2797 10 25.6381 10Z" fill="#00274C"/>
</g>
</svg>
