<svg width="35" height="11" viewBox="0 0 35 11" fill="none" xmlns="http://www.w3.org/2000/svg">
<rect width="35" height="11" fill="white"/>
<path d="M14.0616 4.6443H22.9197L23.4164 2.8037H14.5673C14.6838 2.36899 14.7938 1.9595 14.9039 1.55089C14.9084 1.53289 14.9212 1.51758 14.9266 1.49958C14.973 1.34567 14.9749 1.13957 15.0786 1.04956C15.1823 0.959562 15.3833 1.02347 15.5416 1.02347H24.6553C24.7378 1.01961 24.8205 1.02471 24.9018 1.03874C24.9849 1.04857 25.0649 1.07578 25.1365 1.11851C25.2081 1.16123 25.2698 1.21852 25.3173 1.2866C25.3649 1.35468 25.3973 1.43196 25.4124 1.51337C25.4275 1.59477 25.4249 1.67846 25.4049 1.75881C25.3457 2.11072 25.2539 2.45721 25.162 2.80282C24.9128 3.73525 24.6571 4.66677 24.4015 5.5974C24.3082 5.82189 24.1545 6.01676 23.9571 6.16085C23.7596 6.30493 23.5261 6.39273 23.2817 6.41464C23.2117 6.41464 23.1417 6.41464 23.0716 6.41464C20.5622 6.41464 18.0531 6.41464 15.5443 6.41464C15.3987 6.41464 15.3387 6.44975 15.2978 6.59466C15.0031 7.64589 14.6974 8.69443 14.3945 9.74476C14.3699 9.82847 14.3426 9.91126 14.3153 9.99586H12.6016L14.0616 4.6443Z" fill="#6C6B69"/>
<path d="M3.04202 8.22754H3.2667C5.48988 8.22754 7.71306 8.22754 9.93624 8.22754C10.0736 8.22754 10.1273 8.19239 10.1655 8.05379C10.8053 5.75751 11.4499 3.46247 12.0994 1.16859C12.1112 1.12629 12.1258 1.0849 12.1421 1.0345H13.855L13.4402 2.53753L11.5681 9.30753C11.5407 9.5171 11.4304 9.70736 11.2614 9.8366C11.0924 9.96583 10.8786 10.0235 10.6667 9.99695C7.76855 9.99695 4.87041 9.99695 1.97227 9.99695C1.83894 10.0002 1.70558 9.99148 1.57384 9.97085C1.47866 9.96808 1.38556 9.9426 1.30247 9.89658C1.21938 9.85056 1.14875 9.78539 1.09659 9.70657C1.04443 9.62774 1.01229 9.53758 1.00289 9.44382C0.993489 9.35006 1.00712 9.25548 1.04261 9.16806C1.22454 8.44803 1.4283 7.73791 1.62388 7.02329C2.14965 5.10322 2.67634 3.18314 3.20394 1.26308C3.22577 1.18477 3.25215 1.10737 3.27762 1.02637H5.02778L3.04202 8.22754Z" fill="#6C6B69"/>
<path d="M24.5234 9.9625L26.9285 1H28.686L28.2712 2.52193C27.6114 4.94241 26.9528 7.3635 26.2954 9.78518C26.2554 9.93188 26.1963 9.9652 26.0516 9.9652C25.5477 9.9571 25.0447 9.9625 24.5234 9.9625Z" fill="#6C6B69"/>
<path d="M29.7889 8.03649C29.7306 8.07037 29.6749 8.10854 29.6224 8.15075C29.0584 8.67756 28.4951 9.20531 27.9323 9.73393C27.8823 9.78073 27.8222 9.81764 27.7422 9.87884L30.1746 1.07202L31.1952 3.0521C31.5818 3.82072 31.9657 4.59116 32.3568 5.35799C32.3721 5.37866 32.383 5.40214 32.3889 5.42709C32.3947 5.45204 32.3954 5.47795 32.3909 5.50317C32.3864 5.5284 32.3768 5.55242 32.3627 5.57387C32.3485 5.59533 32.3301 5.61375 32.3086 5.62798C31.8107 6.0858 31.3171 6.54813 30.8277 7.01494C30.4775 7.35335 30.1355 7.69717 29.7889 8.03649Z" fill="#FE6E02"/>
<path d="M29.7915 8.0365C30.1371 7.69629 30.4801 7.35246 30.8312 7.01765C31.3206 6.55084 31.8142 6.08851 32.3121 5.63069C32.3336 5.61646 32.352 5.59809 32.3662 5.57664C32.3803 5.55519 32.3899 5.53111 32.3944 5.50588C32.3989 5.48066 32.3982 5.45481 32.3924 5.42986C32.3865 5.40491 32.3756 5.38137 32.3603 5.3607C31.9683 4.59387 31.5844 3.82433 31.1987 3.05481L31.7445 1.06396L34.0004 5.51374L29.3521 9.87436L29.3203 9.84107C29.4774 9.27705 29.6338 8.71269 29.7897 8.14807C29.7951 8.11111 29.7957 8.07363 29.7915 8.0365Z" fill="#028B49"/>
</svg>
