<svg xmlns="http://www.w3.org/2000/svg" width="32" height="32" viewBox="0 0 32 32">
  <g id="_1inch" data-name="1inch" transform="translate(-1178 -471)">
    <rect id="Rectangle_3259" data-name="Rectangle 3259" width="32" height="32" transform="translate(1178 471)" fill="none"/>
    <g id="_1inch-1inch-logo" data-name="1inch-1inch-logo" transform="translate(1183.375 477)">
      <path id="Path_42786" data-name="Path 42786" d="M29.014,40.7l.562-4.224L24.7,33.089,29.156,34.6l1.052-1.615L34.05,30.6l8.47,4.666.439,7.12-3.773,5.243-2.983.457,1.542-2.823V42.545l-1.121-2.123-1.139-.755-1.753,1.807v1.912l-1.368,1.281-1.738.21-.77.436-1.263-.4-.526-1.894.947-1.332Z" transform="translate(-23.955 -29.68)" fill="#fff"/>
      <path id="Path_42787" data-name="Path 42787" d="M286.948,107.443A8.875,8.875,0,0,0,285,107.3a2.842,2.842,0,0,1-2.4,1.948A3.719,3.719,0,0,0,286.948,107.443Z" transform="translate(-274.101 -104.069)" fill="#94a6c3"/>
      <path id="Path_42788" data-name="Path 42788" d="M185.364,180.609a6.763,6.763,0,0,0,2.351-3.455c.018-.051.174-.141.28-.21.174-.105.352-.192.385-.334a7.4,7.4,0,0,0,.105-1.245c0-.156-.159-.316-.316-.472-.123-.105-.247-.229-.247-.316a6.666,6.666,0,0,0-2.087-4.173l-.123.123a6.544,6.544,0,0,1,2.035,4.068.89.89,0,0,0,.3.421c.123.105.265.265.265.334a7.136,7.136,0,0,1-.105,1.209c-.018.069-.174.141-.3.21-.174.087-.334.174-.367.316a6.483,6.483,0,0,1-2.667,3.632c.229-.49.947-2.087,1.332-2.9l-.069-2.595-2.228-2.156-1.263.174-1.386,2.246a1.344,1.344,0,0,1-.265,1.789,4.153,4.153,0,0,1-1.6,1.158l-.649-.352a6.836,6.836,0,0,1,.878-.86c.508-.421,1.016-.457,1.016-.911.021-.95-1-.689-1-.689l-.37.352-.156,1.3-.77.965-.087-.018-1.263-.28s.773-.4.9-.86a7.064,7.064,0,0,0-.265-1.981,1.912,1.912,0,0,1,.526.806,6.368,6.368,0,0,1,.755-1.578c.105-.069,1.524-.824,1.524-.824l-.472,1.245.352-.192.842-2.069a4.127,4.127,0,0,1,1.437-.4c1.1-.018,2.736-1.368,2-3.788.21.087,3.857,1.912,4.489,5.49C189.555,176.541,188,179.118,185.364,180.609Z" transform="translate(-171.676 -163.24)" fill="#94a6c3"/>
      <path id="Path_42789" data-name="Path 42789" d="M286.412,87.076a1.5,1.5,0,0,0,.247-1.176l-1.176,1.738A1.36,1.36,0,0,0,286.412,87.076Z" transform="translate(-276.896 -83.317)" fill="#1b314f"/>
      <path id="Path_42790" data-name="Path 42790" d="M168.8,418l.141-.7s-.58,1.016-.631,1.158c-.054.159.036.439.262.421a.7.7,0,0,0,.508-.6A.251.251,0,0,0,168.8,418Z" transform="translate(-163.229 -404.753)" fill="#1b314f"/>
      <path id="Path_42791" data-name="Path 42791" d="M15.887,2.083s.878.036,1.789.141A8.9,8.9,0,0,0,12.1.138a7.622,7.622,0,0,0-3.737.947L9.047,0a3.641,3.641,0,0,0-3.7,2.631,14.415,14.415,0,0,1-.472-1.509A3.171,3.171,0,0,0,4.12,4.434C2.487,3.839.157,3.012.067,3c-.123-.018-.159.036-.159.036s-.036.051.069.141c.2.153,3.878,2.874,4.687,3.4-.174.631-.174.929,0,1.227a1.223,1.223,0,0,1,.228.911c-.036.3-.352,2.877-.421,3.193s-.806,1.437-.773,1.771.49,1.753.9,1.912a5.63,5.63,0,0,0,1.524.334.622.622,0,0,0,.4-.105c.3-.262.385-.316.6-.316h.051c.087,0,.192.018.316.018a1.333,1.333,0,0,0,.911-.3c.385-.385,1.052-.911,1.263-1.158a1.628,1.628,0,0,0,.334-1.245,1.668,1.668,0,0,1,.439-1.158c.334-.439.947-1.227.947-1.227a4.786,4.786,0,0,1,1.966,3.836,5.145,5.145,0,0,1-5.331,4.946,5.643,5.643,0,0,1-1.332-.156,10.346,10.346,0,0,0,3.421.631,5.7,5.7,0,0,0,3.034-.719,8.738,8.738,0,0,1-.965,1.016h.018a7.185,7.185,0,0,0,4.877-3.157s-.123.878-.28,1.473c4.363-3.28,3.626-7.384,3.608-7.522.036.051.475.577.7.86A9.081,9.081,0,0,0,15.887,2.083ZM9.171,13.625c-.069.087-.367.352-.577.544s-.439.385-.613.562a.613.613,0,0,1-.421.105H7.033a9.314,9.314,0,0,1,1.3-1.332c.316-.21.475-.421.28-.788s-.7-.28-.7-.28a1.741,1.741,0,0,1,.562-.123,1.083,1.083,0,0,0-.947.192c-.21.192-.174.878-.262,1.314-.087.457-.385.685-.842,1.106a.866.866,0,0,1-.562.3,5.991,5.991,0,0,1-.9-.228,5.018,5.018,0,0,1-.508-1.3,7.121,7.121,0,0,1,.367-.755,3.3,3.3,0,0,0,.37-.842c.069-.3.3-2.141.385-2.91.228.3.544.791.472,1.106a1.48,1.48,0,0,0-.036-1.7,1.931,1.931,0,0,1-.192-1.437c.174-.6.806-2.246.806-2.246s.21.37.508.3a34.888,34.888,0,0,0,2.7-3.683A2.848,2.848,0,0,1,9.8,3.983,2.89,2.89,0,0,1,8.413,5.21a2.626,2.626,0,0,0,1.858-.475c.367.86.719,1.753.737,1.876-.054.123-.755,1.807-.824,1.912a1.754,1.754,0,0,1-.457.141,2.478,2.478,0,0,0-.544.192,19.581,19.581,0,0,0-.947,2.4,1.456,1.456,0,0,0-.86.613,2.48,2.48,0,0,1,.791-.174A1.572,1.572,0,0,1,9.36,12.837v.036A1.084,1.084,0,0,1,9.171,13.625Zm-1.648.21a1.628,1.628,0,0,0,.159-.737c.018-.123.051-.352.192-.385s.475.018.475.262c0,.228-.247.28-.421.439C7.8,13.535,7.556,13.8,7.523,13.835Zm7-3.352a8.419,8.419,0,0,0,.141-2.3,6.444,6.444,0,0,1,1.227,3.157.89.89,0,0,0,.3.421c.123.105.265.247.265.334a7.2,7.2,0,0,1-.105,1.212c-.018.051-.174.141-.3.21-.174.087-.334.174-.367.316a6.537,6.537,0,0,1-2.315,3.385A5.85,5.85,0,0,0,14.519,10.483Zm-1.1,6.894a6.75,6.75,0,0,0,2.4-3.491c.018-.051.174-.141.28-.21.174-.087.352-.192.385-.334a7.4,7.4,0,0,0,.105-1.245c0-.156-.159-.316-.316-.472-.087-.105-.228-.228-.228-.316a6.877,6.877,0,0,0-1.437-3.491,3.622,3.622,0,0,0-1.789-2.772,3.214,3.214,0,0,1,.316,2.91,2.348,2.348,0,0,1-2.456,1.332,5.7,5.7,0,0,0-1.368,2,1.893,1.893,0,0,0-.878-.051c.316-.878.791-2.123.878-2.228a2.674,2.674,0,0,1,.475-.156c.334-.087.49-.141.544-.21.036-.054.21-.457.385-.878a3.959,3.959,0,0,0,.6-.054,6.53,6.53,0,0,0,.37-1c0-.087-.685-1.789-.947-2.438a4.043,4.043,0,0,0,.367-.508,7.176,7.176,0,0,1,2.318,13.611Z" transform="translate(0.098 0.01)" fill="#1b314f"/>
      <path id="Path_42792" data-name="Path 42792" d="M216.543,188.13a.765.765,0,0,0-.457-1.227c.159-.367.385-1.1.385-1.1s-1.789,2.805-1.945,2.859-.316-.562-.316-.562c-.334,1.281.562,1.455.667,1.052A4.486,4.486,0,0,0,216.543,188.13Z" transform="translate(-207.695 -180.214)" fill="#1b314f"/>
      <path id="Path_42793" data-name="Path 42793" d="M243.4,235.66l.911-1.56s.526.265.262.686A3.4,3.4,0,0,1,243.4,235.66Z" transform="translate(-236.08 -227.062)" fill="#ffd923"/>
      <path id="Path_42794" data-name="Path 42794" d="M589.111,287.117a10.274,10.274,0,0,1-.911,1.07,9.423,9.423,0,0,0,.018-8.488c.159.159.316.334.457.49A5.552,5.552,0,0,1,589.111,287.117Z" transform="translate(-570.513 -271.29)" fill="#d82122"/>
      <path id="Path_42795" data-name="Path 42795" d="M381.807,97.422a10.539,10.539,0,0,0-4.384-5.559,8.92,8.92,0,0,0-5.087-1.437H372.3a1.2,1.2,0,0,1,.262-.069,11.206,11.206,0,0,1,1.948-.4,5.77,5.77,0,0,1,5.018,1.717l.036.036A8.243,8.243,0,0,1,381.807,97.422Z" transform="translate(-361.104 -87.19)" fill="#d82122"/>
      <path id="Path_42796" data-name="Path 42796" d="M275.115,22.693a9.981,9.981,0,0,0-5.508.21,5.205,5.205,0,0,0-.265-.649c-.364.439-.752.965-1,1.3a3.563,3.563,0,0,0-.947.9,3.656,3.656,0,0,1,2.877-2.544,7.149,7.149,0,0,1,1.263-.105A8.257,8.257,0,0,1,275.115,22.693Z" transform="translate(-259.358 -21.144)" fill="#d82122"/>
      <path id="Path_42797" data-name="Path 42797" d="M155.2,79.795c-2.05-.069-1.368-2.456-1.332-2.595A3.642,3.642,0,0,0,155.2,79.795Z" transform="translate(-149.104 -74.879)" fill="#d82122"/>
      <path id="Path_42798" data-name="Path 42798" d="M214.008,20.6c-1.578.947-1.263,3.208-1.263,3.208C211.236,21.514,213.885,20.654,214.008,20.6Z" transform="translate(-205.897 -19.981)" fill="#d82122"/>
      <path id="Path_42799" data-name="Path 42799" d="M91.159,149.485a.352.352,0,0,1,.087.475c-.069.123-.174.105-.334.036-.21-.105-1.473-.842-2.613-1.6,1.3.457,2.613.947,2.823,1.052C91.123,149.452,91.141,149.47,91.159,149.485Z" transform="translate(-85.643 -143.938)" fill="#fff"/>
    </g>
  </g>
</svg>
