<svg xmlns="http://www.w3.org/2000/svg" xmlns:xlink="http://www.w3.org/1999/xlink" width="32" height="32" viewBox="0 0 32 32">
  <defs>
    <clipPath id="clip-path">
      <rect id="Rectangle_1722" data-name="Rectangle 1722" width="20" height="20" transform="translate(0.001)"/>
    </clipPath>
    <linearGradient id="linear-gradient" x1="-0.785" y1="1.145" x2="-0.786" y2="1.144" gradientUnits="objectBoundingBox">
      <stop offset="0" stop-color="#b6509e"/>
      <stop offset="1" stop-color="#2ebac6"/>
    </linearGradient>
  </defs>
  <g id="aave" transform="translate(-1466.999 -471)">
    <rect id="Rectangle_3265" data-name="Rectangle 3265" width="32" height="32" transform="translate(1466.999 471)" fill="none"/>
    <g id="aave-aave-logo" transform="translate(1472.999 477)">
      <g id="b" transform="translate(0)" clip-path="url(#clip-path)">
        <circle id="Ellipse_7387" data-name="Ellipse 7387" cx="9.7" cy="9.7" r="9.7" transform="translate(0.3 0.3)" fill="url(#linear-gradient)"/>
        <path id="Path_42800" data-name="Path 42800" d="M236.545,221.54l-3.28-7.93a.881.881,0,0,0-.822-.61h-.29a.881.881,0,0,0-.822.61l-1.428,3.455h-1.08a.592.592,0,0,0-.588.587v.008a.593.593,0,0,0,.588.587h.58l-1.362,3.293a.687.687,0,0,0-.04.225.631.631,0,0,0,.16.443.561.561,0,0,0,.435.167.582.582,0,0,0,.337-.113.73.73,0,0,0,.235-.3l1.5-3.72h1.04a.592.592,0,0,0,.587-.587v-.015a.593.593,0,0,0-.587-.587h-.555L232.3,214.2l3.12,7.76a.731.731,0,0,0,.235.3.588.588,0,0,0,.338.112.565.565,0,0,0,.435-.167.62.62,0,0,0,.16-.443A.524.524,0,0,0,236.545,221.54Z" transform="translate(-222.3 -207.675)" fill="#fff"/>
      </g>
    </g>
  </g>
</svg>
