<svg xmlns="http://www.w3.org/2000/svg" width="32" height="32" viewBox="0 0 32 32">
  <g id="algo" transform="translate(-14843.965 -7030)">
    <rect id="Rectangle_3293" data-name="Rectangle 3293" width="32" height="32" transform="translate(14843.965 7030)" fill="none"/>
    <g id="algorand-algo-logo" transform="translate(14850 7036)">
      <path d="M 20.58085632324219 20.5 L 19.92945671081543 20.5 L 16.82539558410645 20.5 L 16.44160652160645 20.5 L 16.3423957824707 20.12924957275391 L 15.00200653076172 15.12042999267578 L 14.6120080947876 13.68719673156738 L 13.71327686309814 15.24147033691406 L 10.82099628448486 20.25004005432129 L 10.67665672302246 20.5 L 10.38800621032715 20.5 L 6.931216239929199 20.5 L 6.067746639251709 20.5 L 6.497566223144531 19.7511100769043 L 9.372346878051758 14.74228954315186 L 12.26580619812012 9.749300003051758 L 13.14958095550537 8.218466758728027 L 12.41577816009521 5.47402811050415 L 9.675276756286621 10.2488899230957 L 6.781816482543945 15.24188041687012 L 3.889776468276978 20.25004005432129 L 3.745436429977417 20.5 L 3.456786394119263 20.5 L -3.551940835677669e-06 20.5 L -0.866113543510437 20.5 L -0.4329935610294342 19.74995994567871 L 2.459426403045654 14.74114036560059 L 5.333926677703857 9.750450134277344 L 8.226626396179199 4.741139888763428 L 11.04851627349854 -0.1442700028419495 L 11.05654621124268 -0.1581699997186661 L 11.06545639038086 -0.1715400069952011 L 11.13600635528564 -0.2773599922657013 L 11.28444671630859 -0.5 L 11.55202674865723 -0.5 L 14.56789684295654 -0.5 L 14.9520263671875 -0.5 L 15.05101680755615 -0.1288399994373322 L 15.19211673736572 0.4002600014209747 L 16.28446197509766 4.487776279449463 L 16.28543472290039 4.491179943084717 L 19.04761695861816 4.491179943084717 L 19.91427612304688 4.491179943084717 L 19.48046684265137 5.241459846496582 L 17.43338394165039 8.781912803649902 L 17.73090553283691 9.867879867553711 L 19.07195663452148 14.86149978637695 L 20.41245651245117 19.87075042724609 L 20.58085632324219 20.5 Z" stroke="none"/>
      <path d="M 19.92945671081543 20 L 18.58906555175781 14.99118041992188 L 17.24867630004883 10 L 16.89594650268555 8.712519645690918 L 19.04761695861816 4.991179943084717 L 15.90828609466553 4.991179943084717 L 15.80246639251709 4.620810031890869 L 14.56789684295654 0 L 11.55202674865723 0 L 11.48147678375244 0.1058200001716614 L 5.767196655273438 10 L 2.892416477203369 14.99118041992188 L -3.551940835677669e-06 20 L 3.456786394119263 20 L 6.349206447601318 14.99118041992188 L 9.241626739501953 10 L 12.11640644073486 4.991179943084717 L 12.59259605407715 4.197529792785645 L 13.68606662750244 8.289239883422852 L 12.6984167098999 10 L 9.805996894836426 14.99118041992188 L 6.931216239929199 20 L 10.38800621032715 20 L 14.7795467376709 12.39859008789062 L 15.48500633239746 14.99118041992188 L 16.82539558410645 20 L 19.92945671081543 20 M 21.23224639892578 21 L 16.05781555175781 21 L 14.4444637298584 14.97578525543213 L 14.14611625671387 15.49174976348877 L 10.96529674530029 21 L 5.204276561737061 21 L 8.93869686126709 14.49339962005615 L 11.83319664001465 9.498600006103516 L 12.61309623718262 8.14769458770752 L 12.24591636657715 6.774435043334961 L 10.10892677307129 10.49777984619141 L 7.214426517486572 15.49258041381836 L 4.03407621383667 21 L -1.732223510742188 21 L 2.026436328887939 14.49110984802246 L 4.900656223297119 9.500900268554688 L 10.64943599700928 -0.4489000141620636 L 11.01685619354248 -1 L 15.33616638183594 -1 L 16.6693000793457 3.991179943084717 L 20.78093719482422 3.991179943084717 L 17.97082328796387 8.851314544677734 L 18.21445655822754 9.740639686584473 L 19.55484580993652 14.73182010650635 L 21.23224639892578 21 Z" stroke="none" fill="#fff"/>
    </g>
  </g>
</svg>
