<svg xmlns="http://www.w3.org/2000/svg" width="32" height="32" viewBox="0 0 32 32">
  <g id="atom" transform="translate(-15018.778 -7030)">
    <rect id="Rectangle_3296" data-name="Rectangle 3296" width="32" height="32" transform="translate(15018.778 7030)" fill="none"/>
    <g id="cosmos-atom-logo" transform="translate(15024.651 7036)">
      <g id="Ellipse_7523" data-name="Ellipse 7523" transform="translate(0.127)" fill="#2e3148" stroke="#fff" stroke-width="1">
        <circle cx="10" cy="10" r="10" stroke="none"/>
        <circle cx="10" cy="10" r="10.5" fill="none"/>
      </g>
      <circle id="Ellipse_7524" data-name="Ellipse 7524" cx="5.802" cy="5.802" r="5.802" transform="translate(4.386 4.198)" fill="#1b1e36"/>
      <path id="Path_44418" data-name="Path 44418" d="M1010.185,159.47c-1.079,0-1.955,3.915-1.955,8.745s.875,8.745,1.955,8.745,1.955-3.915,1.955-8.745S1011.264,159.47,1010.185,159.47Zm.135,17a.155.155,0,0,1-.247.041,4.643,4.643,0,0,1-.746-1.646c-.87-2.8-.663-8.807-.663-8.807.409-4.77,1.152-5.9,1.4-6.147a.154.154,0,0,1,.2-.016c.367.26.675,1.348.675,1.348a25.707,25.707,0,0,1,.827,6.543,33.954,33.954,0,0,1-.456,5.844C1010.9,175.972,1010.32,176.466,1010.32,176.466Z" transform="translate(-999.976 -158.194)" fill="#6f7390"/>
      <path id="Path_44419" data-name="Path 44419" d="M311.741,668.909c-.537-.937-4.369.253-8.56,2.656s-7.148,5.111-6.611,6.047,4.369-.253,8.56-2.656,7.148-5.111,6.611-6.047Zm-14.675,8.575c-.206-.026-.159-.2-.159-.2a4.651,4.651,0,0,1,1.056-1.466c2-2.147,7.31-4.957,7.31-4.957,4.34-2.019,5.688-1.934,6.03-1.84a.154.154,0,0,1,.112.165c-.041.448-.833,1.256-.833,1.256a25.665,25.665,0,0,1-5.263,3.974,33.9,33.9,0,0,1-5.3,2.513c-2.241.807-2.958.55-2.958.55h0Z" transform="translate(-293.946 -663.24)" fill="#6f7390"/>
      <path id="Path_44420" data-name="Path 44420" d="M313.983,674.148c.542-.934-2.407-3.654-6.584-6.076s-8.007-3.625-8.548-2.69,2.407,3.654,6.586,6.076S313.442,675.084,313.983,674.148Zm-14.774-8.4a.156.156,0,0,1,.089-.235,4.643,4.643,0,0,1,1.8.181c2.857.651,7.952,3.842,7.952,3.842,3.923,2.745,4.524,3.954,4.614,4.3a.154.154,0,0,1-.086.179,3.479,3.479,0,0,1-1.5-.092A25.728,25.728,0,0,1,306,671.352a33.74,33.74,0,0,1-4.826-3.322c-1.823-1.535-1.96-2.284-1.96-2.284Z" transform="translate(-296.208 -659.745)" fill="#6f7390"/>
      <circle id="Ellipse_7525" data-name="Ellipse 7525" cx="1.029" cy="1.029" r="1.029" transform="translate(9.16 8.971)" fill="#b7b9c8"/>
      <ellipse id="Ellipse_7526" data-name="Ellipse 7526" cx="0.597" cy="0.617" rx="0.597" ry="0.617" transform="translate(13.81 5.432)" fill="#b7b9c8"/>
      <ellipse id="Ellipse_7527" data-name="Ellipse 7527" cx="0.597" cy="0.617" rx="0.597" ry="0.617" transform="translate(4.016 7.531)" fill="#b7b9c8"/>
      <ellipse id="Ellipse_7528" data-name="Ellipse 7528" cx="0.597" cy="0.617" rx="0.597" ry="0.617" transform="translate(8.378 15.103)" fill="#b7b9c8"/>
    </g>
  </g>
</svg>
