<svg xmlns="http://www.w3.org/2000/svg" width="32" height="32" viewBox="0 0 32 32">
  <g id="bat" transform="translate(-0.494)">
    <rect id="Rectangle_1709" data-name="Rectangle 1709" width="32" height="32" transform="translate(0.494)" fill="none"/>
    <g id="Group_5011" data-name="Group 5011" transform="translate(6.494 5)">
      <path id="Path_151" data-name="Path 151" d="M-916.659-560a.84.84,0,0,1,.153.237q4.892,8.47,9.781,16.941c.023.039.042.081.062.121a.407.407,0,0,1-.077-.025l-.946-.544-2.031-1.175q-1.033-.6-2.068-1.193c-.323-.186-.648-.368-.972-.552a.317.317,0,0,0-.064-.134q-1.336-2.317-2.674-4.633-.58-1-1.165-2.006Z" transform="translate(926.662 560.002)" fill="#9e2064"/>
      <path id="Path_152" data-name="Path 152" d="M-994.261-560v7.036c-.019.03-.04.06-.058.091q-.854,1.478-1.708,2.956-1.072,1.857-2.141,3.716l-6.095,3.522a.265.265,0,0,1,.056-.122q4.937-8.553,9.876-17.106C-994.314-559.943-994.309-559.99-994.261-560Z" transform="translate(1004.265 560.002)" fill="#fb4f01"/>
      <path id="Path_153" data-name="Path 153" d="M-1004.265-435.628l6.095-3.522c.078,0,.155.005.232.005l7.154,0c.141,0,.282,0,.424.007.324.184.649.366.972.552q1.035.6,2.068,1.193l2.031,1.175.946.544a.386.386,0,0,0,.077.025c0,.049-.034.028-.052.028-.1,0-.192,0-.287,0h-19.511C-1004.165-435.621-1004.215-435.626-1004.265-435.628Z" transform="translate(1004.265 452.948)" fill="#662e90"/>
      <path id="Path_154" data-name="Path 154" d="M-943.072-491.608c-.141,0-.283-.007-.424-.007l-7.154,0c-.078,0-.155,0-.232-.005q1.07-1.858,2.141-3.716.853-1.479,1.708-2.956c.018-.031.039-.061.058-.091q.582,1,1.164,2.006,1.338,2.316,2.674,4.633A.314.314,0,0,1-943.072-491.608Z" transform="translate(956.977 505.417)" fill="#fefefe"/>
    </g>
  </g>
</svg>
