<svg xmlns="http://www.w3.org/2000/svg" width="32" height="32" viewBox="0 0 32 32">
  <g id="bch" transform="translate(-15078.778 -7030)">
    <rect id="Rectangle_3297" data-name="Rectangle 3297" width="32" height="32" transform="translate(15078.778 7030)" fill="none"/>
    <g id="bitcoin-cash-bch-logo" transform="translate(15084.887 7036)">
      <circle id="Ellipse_7521" data-name="Ellipse 7521" cx="10" cy="10" r="10" transform="translate(-0.108)" fill="#0ac18e"/>
      <path id="symbol_1_" d="M200.733,150.009c-.5-1.14-1.657-1.383-3.071-1.147l-.454-1.761-1.071.277.447,1.756c-.282.071-.571.132-.858.213l-.447-1.746-1.071.277.454,1.761c-.231.066-2.162.561-2.162.561l.294,1.147s.787-.221.779-.2a.57.57,0,0,1,.739.31l1.249,4.827a.4.4,0,0,1-.31.459c.018.01-.779.2-.779.2l.117,1.338,2.165-.553.459,1.782,1.071-.277-.459-1.794q.442-.1.86-.213l.457,1.784,1.071-.277-.459-1.779c1.65-.4,2.815-1.442,2.576-3.033a2.474,2.474,0,0,0-2.071-1.835,1.769,1.769,0,0,0,.475-2.074Zm-.515,4.2c.213,1.576-1.977,1.769-2.7,1.959l-.629-2.358C197.614,153.62,199.858,152.821,200.218,154.209ZM198.9,151c.226,1.4-1.647,1.563-2.251,1.718l-.574-2.14C196.68,150.427,198.439,149.7,198.9,151Z" transform="translate(-187.174 -143.367)" fill="#fff"/>
    </g>
  </g>
</svg>
