<svg xmlns="http://www.w3.org/2000/svg" width="32" height="32" viewBox="0 0 32 32">
  <g id="bnb" transform="translate(-1563 -471)">
    <rect id="Rectangle_3267" data-name="Rectangle 3267" width="32" height="32" transform="translate(1563 471)" fill="none"/>
    <g id="Layer_2" data-name="Layer 2" transform="translate(1569 477)">
      <g id="Layer_1" data-name="Layer 1" transform="translate(0 0)">
        <path id="Path_42801" data-name="Path 42801" d="M6.116,8.4,10,4.52l3.886,3.886,2.26-2.26L10,0,3.856,6.144,6.116,8.4M0,10,2.26,7.74,4.52,10,2.26,12.26Zm6.116,1.6L10,15.48l3.886-3.886,2.261,2.259h0L10,20,3.856,13.856l0,0L6.116,11.6M15.48,10l2.26-2.26L20,10l-2.26,2.26Z" fill="#f3ba2f"/>
        <path id="Path_42802" data-name="Path 42802" d="M967.777,965.483h0l-2.293-2.293-1.695,1.695h0l-.195.195-.4.4,0,0,0,0,2.291,2.292,2.293-2.293h0" transform="translate(-955.484 -955.484)" fill="#f3ba2f"/>
      </g>
    </g>
  </g>
</svg>
