<svg xmlns="http://www.w3.org/2000/svg" width="32" height="32" viewBox="0 0 32 32">
  <g id="btt" transform="translate(-15606.127 -7030)">
    <rect id="Rectangle_3306" data-name="Rectangle 3306" width="32" height="32" transform="translate(15606.127 7030)" fill="none"/>
    <g id="bittorrent-btt-logo" transform="translate(15611.858 7036)">
      <circle id="Ellipse_7522" data-name="Ellipse 7522" cx="10" cy="10" r="10" transform="translate(0.268)"/>
      <g id="Group_6694" data-name="Group 6694" transform="translate(2.991 2.5)">
        <path id="Path_44384" data-name="Path 44384" d="M18.88,9.962a7.429,7.429,0,0,0-.436-1.4,7.564,7.564,0,0,0-.689-1.271,7.545,7.545,0,0,0-2.013-2.012,7.824,7.824,0,0,0-1.27-.689,7.476,7.476,0,0,0-9.084,2.7A7.824,7.824,0,0,0,4.7,8.561a7.429,7.429,0,0,0,0,5.8,7.6,7.6,0,0,0,.689,1.27A7.535,7.535,0,0,0,7.4,17.645a7.827,7.827,0,0,0,1.27.689,7.429,7.429,0,0,0,5.8,0,7.6,7.6,0,0,0,1.27-.689,7.535,7.535,0,0,0,2.013-2.013,7.828,7.828,0,0,0,.689-1.27,7.429,7.429,0,0,0,.436-4.4Zm-7.3,8.028A6.521,6.521,0,1,1,18.1,11.469,6.521,6.521,0,0,1,11.579,17.99Z" transform="translate(-4.109 -3.999)" fill="#fff"/>
        <path id="Path_44385" data-name="Path 44385" d="M13.022,19.146H13.2a.347.347,0,0,0,.091-.008H13.3a.317.317,0,0,0,.084-.007H13.4a.213.213,0,0,0,.069-.007H13.5c.023,0,.046-.007.077-.007h.015c.031,0,.061-.008.092-.008a.333.333,0,0,0,.084-.015h.015c.023,0,.046-.007.069-.007h.016c.031-.008.054-.008.084-.016a1.226,1.226,0,0,0,.176-.038h.016c.022-.007.053-.007.076-.016h.007l.176-.046a6.842,6.842,0,0,1-1.706-.161,5.357,5.357,0,0,1-2.327-1.079,4.715,4.715,0,0,1-1.7-3.666,4.454,4.454,0,0,1,1.048-2.847A4.546,4.546,0,0,1,13.1,9.61h.176V8.592h-.2a5.741,5.741,0,0,0-1.148.137,5.519,5.519,0,0,0-1.1.375,5.64,5.64,0,0,0-1.011.613,5.386,5.386,0,0,0-.88.842A5.208,5.208,0,0,0,8.3,11.5a5.381,5.381,0,0,0-.421,1.017,5.563,5.563,0,0,0-.206,1.064l-.023.336v.2a5.76,5.76,0,0,0,.138,1.148,5.525,5.525,0,0,0,.375,1.1A4.754,4.754,0,0,0,9.21,17.875a5.919,5.919,0,0,0,3.673,1.271h.138Z" transform="translate(-5.437 -5.722)" fill="#fff"/>
        <path id="Path_44386" data-name="Path 44386" d="M15.469,18.955a7.784,7.784,0,0,1-1.125-.122,4.3,4.3,0,0,1-3.428-2.7A3.331,3.331,0,0,1,13,11.869a3.256,3.256,0,0,1,1.041-.169,3.517,3.517,0,0,1,1.317.26l.428-.911q-.193-.077-.39-.145a4.508,4.508,0,0,0-1.355-.207,4.323,4.323,0,0,0-2.862,1.094,4.387,4.387,0,0,0-.574.62,4.162,4.162,0,0,0-.436.712,4.359,4.359,0,0,0-.2,3.329,4.231,4.231,0,0,0,.919,1.523,4.933,4.933,0,0,0,1.339.995,6.024,6.024,0,0,0,1.944.544,12.375,12.375,0,0,0,1.431.076c.314-.115.444-.169.613-.237.146-.069.291-.138.436-.222s.169-.1.413-.26a.425.425,0,0,0,.061-.046,6.8,6.8,0,0,1-1.653.13Z" transform="translate(-6.216 -6.511)" fill="#fff"/>
        <path id="Path_44387" data-name="Path 44387" d="M18.125,18.578c-.237.015-.574.037-.957.037a7.311,7.311,0,0,1-2.227-.3A2.885,2.885,0,0,1,12.8,15.845a2.1,2.1,0,0,1,3.926-1.026l.911-.451a2.959,2.959,0,0,0-.544-.727,3.107,3.107,0,0,0-5.3,2.2,3.062,3.062,0,0,0,.269,1.24,3.727,3.727,0,0,0,.666.987,4.68,4.68,0,0,0,1.906,1.209,7.681,7.681,0,0,0,2.717.245,5.7,5.7,0,0,0,.834-.122,5.743,5.743,0,0,0,.919-.911C18.859,18.509,18.423,18.555,18.125,18.578Z" transform="translate(-6.989 -7.274)" fill="#fff"/>
      </g>
    </g>
  </g>
</svg>
