<svg xmlns="http://www.w3.org/2000/svg" width="32" height="32" viewBox="0 0 32 32">
  <g id="cake" transform="translate(-15666.033 -7030)">
    <rect id="Rectangle_3307" data-name="Rectangle 3307" width="32" height="32" transform="translate(15666.033 7030)" fill="none"/>
    <g id="pancakeswap-cake-logo_1_" data-name="pancakeswap-cake-logo (1)" transform="translate(15672.127 7036)">
      <path id="Path_44551" data-name="Path 44551" d="M3.563,3.125a2.618,2.618,0,1,1,5.188-.5v3.25c.375,0,.75-.062,1.125-.062a6.064,6.064,0,0,1,1.062.062V2.625A2.641,2.641,0,0,1,13.563,0a2.7,2.7,0,0,1,2.625,3.125L15.5,6.938c2.438,1.063,4.313,2.938,4.313,5.25v1.438A5.511,5.511,0,0,1,16.75,18.25,13.045,13.045,0,0,1,9.875,20,13.045,13.045,0,0,1,3,18.25a5.571,5.571,0,0,1-3-4.625V12.188C0,9.875,1.813,8,4.25,6.938Zm11,4.313.813-4.5A1.847,1.847,0,0,0,13.563.75,1.814,1.814,0,0,0,11.75,2.563V6.688a3.564,3.564,0,0,0-.812-.062c-.375,0-.687-.063-1.062-.063a6.793,6.793,0,0,0-1.125.063c-.25,0-.562.063-.812.063V2.625A1.8,1.8,0,1,0,4.375,3l.813,4.5C2.563,8.5.813,10.25.813,12.25v1.437c0,3.063,4.063,5.562,9.063,5.562s9.062-2.5,9.062-5.562V12.25C19,10.188,17.25,8.438,14.563,7.438Z" transform="translate(0)" fill="#633001" fill-rule="evenodd"/>
      <path id="Path_44552" data-name="Path 44552" d="M19.525,20.938c0,3.063-4.062,5.563-9.063,5.563S1.4,24,1.4,20.938V19.5H19.588v1.438Z" transform="translate(-0.525 -7.312)" fill="#fedc90"/>
      <path id="Path_44553" data-name="Path 44553" d="M4.9,3.488a1.8,1.8,0,1,1,3.562-.375V7.238A18.928,18.928,0,0,1,10.4,7.113c.625,0,1.25.063,1.875.125V3.112A1.814,1.814,0,0,1,14.088,1.3,1.88,1.88,0,0,1,15.9,3.487l-.812,4.5c2.625,1,4.438,2.75,4.438,4.75,0,3.063-4.062,5.563-9.063,5.563S1.4,15.8,1.4,12.738c0-2,1.75-3.75,4.375-4.75Z" transform="translate(-0.525 -0.487)" fill="#d1884f" fill-rule="evenodd"/>
      <path id="Path_44554" data-name="Path 44554" d="M10.6,18c0,.813-.437,1.5-1,1.5s-1-.687-1-1.5.437-1.5,1-1.5S10.6,17.188,10.6,18Z" transform="translate(-3.225 -6.187)" fill="#633001"/>
      <path id="Path_44555" data-name="Path 44555" d="M21.7,18c0,.813-.437,1.5-1,1.5s-1-.687-1-1.5.438-1.5,1-1.5S21.7,17.188,21.7,18Z" transform="translate(-7.387 -6.187)" fill="#633001"/>
    </g>
  </g>
</svg>
