<svg xmlns="http://www.w3.org/2000/svg" width="32" height="32" viewBox="0 0 32 32">
  <g id="chz" transform="translate(-14784 -7030)">
    <rect id="Rectangle_3292" data-name="Rectangle 3292" width="32" height="32" transform="translate(14784 7030)" fill="none"/>
    <g id="chiliz-chz-seeklogo.com" transform="translate(14790 7036)">
      <path id="Path_44379" data-name="Path 44379" d="M15.908,15.041c0-.133,0-.2-.133-.267-.467-.333-1-.667-1.467-1a.3.3,0,0,0-.333,0l-1.467,1.067a.367.367,0,0,0-.2.333.713.713,0,0,1-.133.4.3.3,0,0,0,0,.333c.533,1.067,1,2.133,1.533,3.2.2.333.333.733.533,1.133.067-.067.067-.133.133-.2.6-1.333,1.133-2.667,1.733-4,.067-.133.067-.2-.067-.267a.873.873,0,0,1-.133-.733Z" transform="translate(-4.041 -4.575)" fill="#cd0124"/>
      <path id="Path_44380" data-name="Path 44380" d="M12.4,11.733C11.067,10.8,9.733,9.867,8.467,9L8.4,9.067c.067.133.067.2.133.333l1.4,3c.133.267.2.533.6.6a.6.6,0,0,0,.333-.067c.4-.333.867-.6,1.267-.933Z" transform="translate(-2.8 -3)" fill="#cd0124"/>
      <path id="Path_44381" data-name="Path 44381" d="M10,0A10,10,0,1,0,20,10,10,10,0,0,0,10,0Zm5.4,5.8c-.133,0-.2.067-.267.2C14.6,7.333,14,8.667,13.467,10v.267a.867.867,0,0,1-.533,1.2q-.1,0-.2.2C12.133,13,11.533,14.4,11,15.733a.3.3,0,0,0,0,.333.84.84,0,0,1-.133,1.133.813.813,0,0,1-1.067.067A.767.767,0,0,1,9.6,16.2a.427.427,0,0,0,0-.4c-.667-1.333-1.267-2.667-1.933-4a.467.467,0,0,0-.333-.267.853.853,0,0,1-.6-1.267.3.3,0,0,0,0-.333C6.133,8.6,5.533,7.333,4.867,6c0-.067-.067-.133-.267-.133a.853.853,0,0,1-.733-.8,1.027,1.027,0,0,1,.6-.867.827.827,0,0,1,1,.333c.067.133.133.133.333.133h8.467c.133,0,.267,0,.333-.2a.767.767,0,0,1,.933-.333.933.933,0,0,1,.6.8A.867.867,0,0,1,15.4,5.8Z" fill="#cd0124"/>
      <path id="Path_44382" data-name="Path 44382" d="M12.9,10.933a.3.3,0,0,0,.333,0C14.5,10,15.767,9.133,16.967,8.2c.067-.067.133-.067.133-.133V8H8.7a.513.513,0,0,1,.2.133Z" transform="translate(-2.9 -2.667)" fill="#cd0124"/>
      <path id="Path_44383" data-name="Path 44383" d="M16,11.8c.533.4,1.067.733,1.6,1.067.133.067.333,0,.533,0,.067,0,.133-.133.133-.2.467-1.067.933-2.2,1.4-3.267,0-.067.067-.133.067-.2h-.067C18.533,10,17.267,10.867,16,11.8Z" transform="translate(-5.333 -3.067)" fill="#cd0124"/>
    </g>
  </g>
</svg>
