<svg xmlns="http://www.w3.org/2000/svg" xmlns:xlink="http://www.w3.org/1999/xlink" width="32" height="32" viewBox="0 0 32 32">
  <defs>
    <linearGradient id="linear-gradient" x1="0.5" y1="1" x2="0.5" gradientUnits="objectBoundingBox">
      <stop offset="0" stop-color="#fbc651"/>
      <stop offset="1" stop-color="#f9ad16"/>
    </linearGradient>
  </defs>
  <g id="dai" transform="translate(0.239)">
    <rect id="Rectangle_1710" data-name="Rectangle 1710" width="32" height="32" transform="translate(-0.239)" fill="none"/>
    <g id="Group_5016" data-name="Group 5016" transform="translate(6 6)">
      <circle id="Ellipse_99" data-name="Ellipse 99" cx="10" cy="10" r="10" transform="translate(-0.239 0)" fill="url(#linear-gradient)"/>
      <path id="Path_888" data-name="Path 888" d="M-5021.305-306.118c.026,0,.053,0,.08,0h.99c.023,0,.048,0,.072,0l.093,0a.023.023,0,0,0,.037,0,.016.016,0,0,0,0-.026c0-.116,0-.233,0-.349,0-.241,0-.483,0-.724.012-.02,0-.033-.014-.047h-.124c-.373,0-.745-.007-1.117.005a.042.042,0,0,1-.043-.033.263.263,0,0,1,0-.039v-.939c0-.07,0-.073.075-.073h1.084l.122,0,.012-.02a.472.472,0,0,0,.007-.052c0-.04,0-.079,0-.119q0-1.376,0-2.753c0-.031,0-.062,0-.093.031,0,.062,0,.093,0h3.924a.3.3,0,0,0,.045-.007l.04,0a.085.085,0,0,0,.018.007c.05,0,.1.008.151.01a.247.247,0,0,0,.045-.006l.025.005s.01.011.015.012a1.111,1.111,0,0,0,.118.013.973.973,0,0,1,.2.023.058.058,0,0,0,.051,0h.016a.058.058,0,0,0,.06.012l.034.005a.059.059,0,0,0,.061.016,2.327,2.327,0,0,1,.291.063c.093.026.188.049.28.075.049.014.1.031.146.046a4.457,4.457,0,0,1,.64.265,4.24,4.24,0,0,1,.416.231q.179.118.353.246a5.166,5.166,0,0,1,.56.514,3.472,3.472,0,0,1,.293.35,4.335,4.335,0,0,1,.461.771c.044.1.083.194.125.291q.009.027.016.054a.031.031,0,0,0,.029.037.23.23,0,0,0,.04,0h1.065a.09.09,0,0,1,.056.014c0,.048,0,.1,0,.145q0,.458,0,.917a.076.076,0,0,1-.05.012.628.628,0,0,0-.085-.006l-.752,0a.16.16,0,0,0-.022,0,.051.051,0,0,0-.017.05c0,.07.009.14.015.21a.063.063,0,0,0,.012.023v.518a.052.052,0,0,0-.014.042c0,.042-.007.083-.009.125a.235.235,0,0,0,.006.045c0,.015,0,.031-.005.046,0,.071-.02.085.081.085h.8c.034,0,.042.008.043.043s0,.092,0,.139v.721c0,.066,0,.132,0,.2h-1.157a.056.056,0,0,0-.061.041,4.248,4.248,0,0,1-.307.644c-.045.081-.1.157-.147.235-.105.161-.23.307-.35.457-.025.031-.054.059-.081.087l-.3.3c-.025.025-.053.046-.081.069a5.337,5.337,0,0,1-.543.4,5.02,5.02,0,0,1-.464.253,2.962,2.962,0,0,1-.337.149.035.035,0,0,0-.035.018l-.151.05a.033.033,0,0,0-.034.017l-.072.02a.038.038,0,0,0-.035.017l-.07.015a.021.021,0,0,0-.027.009l-.092.029a.022.022,0,0,0-.027.009l-.079.017a.034.034,0,0,0-.04.012l-.092.02a.09.09,0,0,0-.026,0l-.108.03-.039.006a.034.034,0,0,0-.044.015h0a.16.16,0,0,0-.1.013l-.026.005c-.006,0-.013-.007-.018-.006a.6.6,0,0,1-.174.023c-.044,0-.086.008-.13.015-.009,0-.018.011-.026.017h0l-.124,0a.107.107,0,0,0-.071.014l-.09,0a.037.037,0,0,0-.013,0l-.23,0c-.007,0-.015.008-.021.012-.024,0-.048,0-.072,0h-3.445c-.059,0-.118,0-.178.005-.007,0-.014-.013-.02-.013a.216.216,0,0,0-.064,0,.087.087,0,0,1-.062-.009c0-.009,0-.018,0-.026q0-1.381,0-2.763c0-.038,0-.075,0-.113a.029.029,0,0,0,0-.04c0-.04-.005-.042-.04-.042l-.014,0a.115.115,0,0,0-.071-.009h-1.084a.5.5,0,0,1-.053,0,.2.2,0,0,1-.038-.011v-.081c0-.313,0-.626,0-.939A.074.074,0,0,1-5021.305-306.118Zm2.356-1.124h0c-.006.006-.016.011-.017.018a.2.2,0,0,0,0,.046q0,.505,0,1.01a.169.169,0,0,0,0,.039s.014.006.021.009c.048,0,.1.005.145.005h6.236l.106,0c.013.017.023.008.032,0a.009.009,0,0,0,.007,0,.029.029,0,0,0,.024-.027c0-.025.009-.051.011-.077a.228.228,0,0,0,0-.044c0-.03,0-.061.006-.091a.128.128,0,0,0,.005-.106c0-.018,0-.035.007-.053a.091.091,0,0,0,.012-.029c0-.09,0-.181,0-.271a.085.085,0,0,0-.013-.029.236.236,0,0,0,0-.026.228.228,0,0,0-.006-.134v-.039a.059.059,0,0,0,0-.051c0-.01,0-.019,0-.029a.038.038,0,0,0-.006-.052.24.24,0,0,1,0-.026c0-.032,0-.046-.019-.047a.115.115,0,0,0-.093.014h-6.35a.066.066,0,0,0-.081-.009S-5018.947-307.246-5018.949-307.242Zm2.638,4.238a.408.408,0,0,0,.136,0h0l.006,0a1.376,1.376,0,0,0,.217,0c.066,0,.131-.013.2-.02.031,0,.062,0,.092-.01.106-.018.214-.027.32-.052.083-.02.168-.034.252-.054.058-.014.114-.034.17-.05a3.253,3.253,0,0,0,.464-.172c.1-.046.2-.1.3-.151a3.423,3.423,0,0,0,.636-.451,3.178,3.178,0,0,0,.438-.478,3.837,3.837,0,0,0,.333-.533.113.113,0,0,0,.006-.019.023.023,0,0,0-.021-.028h-6.11c-.02,0-.041,0-.06,0s-.035.013-.034.039,0,.057,0,.086q0,.841,0,1.683c0,.055,0,.11,0,.165,0,.011,0,.022,0,.034a.254.254,0,0,0,.149.014h.027c.021,0,.044,0,.065,0h2.292c.022,0,.043,0,.065,0Zm3.529-5.356a.073.073,0,0,0,.026.012c.013,0,.018-.008.013-.021a.071.071,0,0,0,0-.025c-.027-.053-.054-.106-.082-.158a3.1,3.1,0,0,0-.32-.477c-.088-.1-.175-.21-.27-.308-.068-.071-.148-.131-.223-.2-.023-.02-.047-.04-.071-.059a3.584,3.584,0,0,0-.672-.417c-.042-.02-.085-.036-.127-.055a.253.253,0,0,0-.033-.02c-.07-.027-.14-.054-.21-.078-.1-.032-.192-.063-.289-.092-.06-.017-.12-.03-.18-.043s-.1-.02-.149-.029a.021.021,0,0,0-.028-.007l-.024,0a.016.016,0,0,0-.026,0l-.08-.01a.02.02,0,0,0-.028,0l-.052-.007a.025.025,0,0,0-.039-.006l-.066-.009a.042.042,0,0,0-.053,0l-.093-.011a.1.1,0,0,0-.029-.013c-.073,0-.146-.011-.218-.011h-2.824c-.025,0-.035.011-.035.038s0,.079,0,.119q0,.9,0,1.794a.467.467,0,0,0,.007.058c0,.041.005.045.038.045h6.14Z" transform="translate(5026.332 316.385)" fill="#fffffe"/>
    </g>
  </g>
</svg>
