<svg xmlns="http://www.w3.org/2000/svg" width="32" height="32" viewBox="0 0 32 32">
  <g id="dash" transform="translate(-15141.097 -7030)">
    <rect id="Rectangle_3298" data-name="Rectangle 3298" width="32" height="32" transform="translate(15141.097 7030)" fill="none"/>
    <g id="Layer_2" data-name="Layer 2" transform="translate(15147.097 7037.882)">
      <g id="Layer_1" data-name="Layer 1">
        <path id="Path_44421" data-name="Path 44421" d="M86.138,0H78.857l-.6,3.373,6.572.008c3.237,0,4.191,1.176,4.164,3.124a14.183,14.183,0,0,1-.635,3.237c-.5,1.461-1.523,3.124-5.364,3.12l-6.388,0L76,16.236h7.265a10.16,10.16,0,0,0,4.807-.83c2.559-1.188,4.082-3.712,4.694-7.008C93.672,3.49,92.542,0,86.138,0" transform="translate(-73.039)" fill="#008de4"/>
        <path id="Path_44422" data-name="Path 44422" d="M2.676,164.9a2.146,2.146,0,0,0-2.361,1.994c-.238.982-.316,1.383-.316,1.383H7.456a2.146,2.146,0,0,0,2.361-1.994c.238-.982.316-1.383.316-1.383Z" transform="translate(0 -158.476)" fill="#008de4"/>
      </g>
    </g>
  </g>
</svg>
