<svg xmlns="http://www.w3.org/2000/svg" width="32" height="32" viewBox="0 0 32 32">
  <g id="doge" transform="translate(-14959 -7030)">
    <rect id="Rectangle_3295" data-name="Rectangle 3295" width="32" height="32" transform="translate(14959 7030)" fill="none"/>
    <g id="dogecoin" transform="translate(14965 7036)">
      <path id="Path_44581" data-name="Path 44581" d="M882.549,659H881.12v2.817h2.248V663H881.12v2.817h1.5a2.939,2.939,0,0,0,3.157-3.277A3.183,3.183,0,0,0,882.549,659Z" transform="translate(-872.309 -652.41)" fill="#c2a633"/>
      <path id="Path_44582" data-name="Path 44582" d="M10,0A10,10,0,1,0,20,10,10,10,0,0,0,10,0Zm.393,15.4H6.771V10.586H5.495V9.407H6.771V4.592H9.879c.735,0,5.606-.153,5.606,5.495,0,5.741-5.092,5.314-5.092,5.314Z" fill="#c2a633"/>
    </g>
  </g>
</svg>
