<svg xmlns="http://www.w3.org/2000/svg" width="32" height="32" viewBox="0 0 32 32">
  <g id="dot" transform="translate(-15723.416 -7030)">
    <rect id="Rectangle_3308" data-name="Rectangle 3308" width="32" height="32" transform="translate(15723.416 7030)" fill="none"/>
    <g id="polkadot-new-dot-logo" transform="translate(15731.939 7036)">
      <g id="Path_44561" data-name="Path 44561" transform="translate(0)" fill="#1e1e1e">
        <path d="M 3.406215906143188 20.24228668212891 C 3.406174182891846 20.24228668212891 3.406191110610962 20.24228668212891 3.406149387359619 20.24228668212891 C 3.302939176559448 20.24228668212891 3.199656963348389 20.23150825500488 3.098217964172363 20.21019744873047 L 3.064719438552856 20.21019744873047 L 3.029489278793335 20.20515632629395 C 3.0045166015625 20.20158004760742 2.979583263397217 20.19635963439941 2.953533887863159 20.18924331665039 C 2.568185329437256 20.08966636657715 2.244218349456787 19.84662246704102 2.040759325027466 19.50430679321289 C 1.836319327354431 19.16033744812012 1.778019309043884 18.75725746154785 1.876599311828613 18.36930656433105 L 1.878579258918762 18.36981010437012 C 1.950883746147156 17.97698211669922 2.323886632919312 16.19754981994629 4.248059272766113 7.291227340698242 C 4.398479461669922 6.587207317352295 5.030859470367432 6.075407028198242 5.751479148864746 6.075407028198242 C 5.859419345855713 6.075407028198242 5.967989444732666 6.086917400360107 6.074189186096191 6.109607219696045 C 6.476129531860352 6.195487022399902 6.820509433746338 6.432847023010254 7.043879508972168 6.777947425842285 C 7.267129421234131 7.122857093811035 7.342789173126221 7.534117221832275 7.256919384002686 7.935977458953857 L 6.259276390075684 12.42308044433594 L 6.209049701690674 12.6971378326416 C 6.210281372070312 12.69696044921875 6.211508274078369 12.69678401947021 6.21273946762085 12.69660758972168 L 6.217869281768799 12.69586753845215 L 6.223019123077393 12.695237159729 C 6.760929584503174 12.62942695617676 7.80182933807373 12.56568717956543 7.845869541168213 12.56300735473633 C 9.085569381713867 12.48752689361572 10.24445915222168 11.95500755310059 11.10906982421875 11.06354713439941 C 11.97359943389893 10.17214679718018 12.47041893005371 8.99766731262207 12.50798892974854 7.756437301635742 C 12.59060955047607 5.019877433776855 10.43112945556641 2.72625732421875 7.694159507751465 2.643627166748047 C 7.642869472503662 2.642077207565308 7.592239379882812 2.641317129135132 7.541269302368164 2.641317129135132 C 6.246939182281494 2.641317129135132 5.02109956741333 3.138277292251587 4.089579582214355 4.040647029876709 C 3.156169414520264 4.944837093353271 2.620519399642944 6.158277034759521 2.581299304962158 7.457457065582275 L 2.581189393997192 7.461157321929932 L 2.581019401550293 7.46485710144043 C 2.554249286651611 8.059516906738281 2.643529415130615 8.644327163696289 2.84636926651001 9.203037261962891 L 2.850289344787598 9.213857650756836 L 2.853719234466553 9.224846839904785 C 3.100809335708618 10.01739692687988 2.686869382858276 10.87116718292236 1.911359310150146 11.16854763031006 L 1.894719362258911 11.1749267578125 L 1.877669334411621 11.18010711669922 C 1.727779388427734 11.22564697265625 1.572769403457642 11.2487268447876 1.416939377784729 11.2487268447876 C 0.7546593546867371 11.2487268447876 0.1570593565702438 10.83100700378418 -0.07010065019130707 10.20926761627197 L -0.07255065441131592 10.2025671005249 L -0.07481065392494202 10.19579696655273 C -0.3569506406784058 9.349407196044922 -0.5000006556510925 8.46818733215332 -0.5000006556510925 7.576607227325439 C -0.4913506507873535 5.421407222747803 0.3519293367862701 3.397077322006226 1.874499320983887 1.874497175216675 C 3.397069454193115 0.3519272208213806 5.421399116516113 -0.491352766752243 7.574589252471924 -0.5000028014183044 L 7.582089424133301 -0.5000327825546265 L 7.589579582214355 -0.4998327791690826 C 11.64609909057617 -0.3944627642631531 15.00892925262451 2.729627132415771 15.41181945800781 6.767057418823242 C 15.62603950500488 8.91259765625 14.99181938171387 11.01307678222656 13.62596893310547 12.68153762817383 C 12.2601490020752 14.34997749328613 10.32632923126221 15.38658714294434 8.180728912353516 15.60040760040283 L 8.172709465026855 15.60120677947998 L 8.16465950012207 15.60174751281738 C 7.800249576568604 15.62621688842773 7.165609359741211 15.6737174987793 7.01392936706543 15.69697761535645 C 6.111099243164062 15.8355770111084 5.380879402160645 16.52996635437012 5.196979522705078 17.42487716674805 C 5.169141292572021 17.5607967376709 4.944103240966797 18.65921401977539 4.879831790924072 18.96169662475586 L 4.881959438323975 18.98398780822754 L 4.871179580688477 19.04855728149414 C 4.865877628326416 19.08035850524902 4.859171867370605 19.10593032836914 4.855010986328125 19.12125205993652 C 4.683504104614258 19.78143692016602 4.088189601898193 20.24228668212891 3.406215906143188 20.24228668212891 Z" stroke="none"/>
        <path d="M 7.57659912109375 -1.9073486328125e-06 C 3.39915943145752 0.01677703857421875 0.01677894592285156 3.399168014526367 -9.5367431640625e-07 7.576606750488281 C -9.5367431640625e-07 8.413207054138184 0.1350393295288086 9.244227409362793 0.3995294570922852 10.03767681121826 C 0.596888542175293 10.57783794403076 1.182602882385254 10.86869525909424 1.732338905334473 10.70169734954834 C 2.26370906829834 10.49793720245361 2.545779228210449 9.917027473449707 2.376379013061523 9.373666763305664 C 2.151849746704102 8.755207061767578 2.051959037780762 8.099186897277832 2.08152961730957 7.442367553710938 C 2.172619819641113 4.425146102905273 4.69200325012207 2.052719116210938 7.709249496459961 2.143857955932617 C 10.72645950317383 2.234947204589844 13.09884929656982 4.75435733795166 13.00775909423828 7.771567344665527 C 12.92225933074951 10.59621715545654 10.69769954681396 12.89029693603516 7.876249313354492 13.062087059021 C 7.876249313354492 13.062087059021 6.812709808349609 13.12681770324707 6.28373908996582 13.19153785705566 C 6.08876895904541 13.21950721740723 5.89539909362793 13.25785732269287 5.704429626464844 13.30659675598145 C 5.677258491516113 13.33456802368164 5.633309364318848 13.33456611633301 5.605339050292969 13.30739784240723 L 5.604549407958984 13.30659675598145 C 5.585369110107422 13.28182792663574 5.585369110107422 13.24666786193848 5.604549407958984 13.22189712524414 L 5.769149780273438 12.32376670837402 L 6.767959594726562 7.831497192382812 C 6.887819290161133 7.270566940307617 6.530649185180664 6.718427658081055 5.969709396362305 6.598567008972168 C 5.408787727355957 6.478718757629395 4.856630325317383 6.83588695526123 4.73677921295166 7.396817207336426 C 4.73677921295166 7.396817207336426 2.361199378967285 18.3925666809082 2.361199378967285 18.49244689941406 C 2.225358963012695 19.02700805664062 2.548179626464844 19.57036781311035 3.082738876342773 19.70619773864746 C 3.088329315185547 19.70779800415039 3.094729423522949 19.70939636230469 3.100318908691406 19.71019744873047 L 3.155448913574219 19.71019744873047 C 3.689220428466797 19.84843635559082 4.234169006347656 19.52721786499023 4.371609687805176 18.99344635009766 C 4.374009132385254 18.98465728759766 4.376399040222168 18.97586631774902 4.377999305725098 18.96627807617188 C 4.376399040222168 18.94949722290039 4.376399040222168 18.93271636962891 4.377999305725098 18.9167366027832 C 4.40756893157959 18.78729629516602 4.707209587097168 17.32422637939453 4.707209587097168 17.32422637939453 C 4.934139251708984 16.21993637084961 5.824289321899414 15.37374687194824 6.938158988952637 15.2027473449707 C 7.167489051818848 15.16758728027344 8.131149291992188 15.10286712646484 8.131149291992188 15.10286712646484 C 12.29259967803955 14.688157081604 15.32979965209961 10.97816753387451 14.9142894744873 6.816707611083984 C 14.5355396270752 3.021217346191406 11.39126968383789 0.09908676147460938 7.57659912109375 -1.9073486328125e-06 M 7.587579250335693 -1.000053405761719 L 7.602569580078125 -0.9996623992919922 C 11.91035938262939 -0.8877620697021484 15.48148918151855 2.42985725402832 15.90934944152832 6.7174072265625 C 16.13683891296387 8.995837211608887 15.46332931518555 11.22643756866455 14.01286888122559 12.99825668334961 C 12.56243896484375 14.77005767822266 10.50881958007812 15.87087726593018 8.23030948638916 16.09793663024902 L 8.198169708251953 16.10061645507812 C 7.75378942489624 16.13046646118164 7.202339172363281 16.17399787902832 7.089699745178223 16.19119644165039 C 6.39263916015625 16.2982063293457 5.82875919342041 16.83444786071777 5.686738967895508 17.52551651000977 C 5.644852638244629 17.73004341125488 5.46225643157959 18.62107086181641 5.384807586669922 18.99014854431152 L 5.385909080505371 19.0016975402832 L 5.36436939239502 19.1308479309082 C 5.35533332824707 19.1849536895752 5.344050407409668 19.22824668884277 5.337987899780273 19.25064277648926 C 5.107999801635742 20.12935638427734 4.314779281616211 20.74228668212891 3.406168937683105 20.74228668212891 C 3.286924362182617 20.74228668212891 3.167660713195801 20.73151969909668 3.050037384033203 20.71019744873047 L 3.029129028320312 20.71019744873047 L 2.958649635314941 20.70010757446289 C 2.914965629577637 20.69386100769043 2.870413780212402 20.68465614318848 2.825970649719238 20.67269897460938 C 2.313077926635742 20.53948593139648 1.881881713867188 20.21561813354492 1.610949516296387 19.7597770690918 C 1.338289260864258 19.30104637145996 1.260539054870605 18.76349639892578 1.391999244689941 18.24615669250488 L 1.392122268676758 18.24618911743164 C 1.466191291809082 17.84347915649414 1.717653274536133 16.66630363464355 2.57133960723877 12.6969165802002 C 2.691705703735352 12.13725852966309 2.812027931213379 11.57831478118896 2.927451133728027 11.04245471954346 C 2.708909034729004 11.29976749420166 2.425230979919434 11.50700187683105 2.09037971496582 11.63540744781494 L 2.057099342346191 11.64816761016846 L 2.022989273071289 11.65852737426758 C 1.825949668884277 11.71837711334229 1.622049331665039 11.7487268447876 1.416939735412598 11.7487268447876 C 0.5455188751220703 11.7487268447876 -0.2408008575439453 11.1990270614624 -0.5397405624389648 10.38085746765137 L -0.5491504669189453 10.35390758514404 C -0.8483114242553711 9.456447601318359 -1.000000953674316 8.522027015686035 -1.000000953674316 7.576606750488281 C -0.9908113479614258 5.28659725189209 -0.09552097320556641 3.137416839599609 1.520949363708496 1.520946502685547 C 3.137409210205078 -0.09552192687988281 5.286589622497559 -0.9908123016357422 7.572579383850098 -0.9999923706054688 L 7.587579250335693 -1.000053405761719 Z M 6.835818290710449 12.13373184204102 C 7.312642097473145 12.0947151184082 7.785909175872803 12.06573867797852 7.815499305725098 12.06393718719482 C 8.930379867553711 11.99605751037598 9.972599029541016 11.51714706420898 10.75014877319336 10.7154369354248 C 11.52763938903809 9.913797378540039 11.9744291305542 8.857566833496094 12.00821876525879 7.741307258605957 C 12.08250904083252 5.280357360839844 10.14046955108643 3.217706680297852 7.679069519042969 3.143396377563477 C 6.46251392364502 3.106817245483398 5.308266639709473 3.556365966796875 4.43744945526123 4.399897575378418 C 3.598049163818359 5.212986946105957 3.116349220275879 6.304206848144531 3.081068992614746 7.47254753112793 L 3.080519676208496 7.487337112426758 C 3.056719779968262 8.015987396240234 3.136059761047363 8.53581714630127 3.316349029541016 9.032417297363281 L 3.331059455871582 9.076037406921387 C 3.33513069152832 9.089095115661621 3.33906078338623 9.102153778076172 3.342860221862793 9.115235328674316 C 3.590519905090332 7.967010498046875 3.759329795837402 7.185647010803223 3.759329795837402 7.185647010803223 C 3.958478927612305 6.253547668457031 4.796499252319336 5.575407028198242 5.751479148864746 5.575407028198242 C 5.89445972442627 5.575407028198242 6.038179397583008 5.590627670288086 6.178659439086914 5.620636940002441 C 6.711298942565918 5.734457015991211 7.16763973236084 6.048967361450195 7.463619232177734 6.506257057189941 C 7.7593994140625 6.963216781616211 7.859639167785645 7.508077621459961 7.745879173278809 8.040456771850586 L 7.744119167327881 8.048537254333496 L 6.835818290710449 12.13373184204102 Z" stroke="none" fill="#fff"/>
      </g>
      <g id="Path_44562" data-name="Path 44562" transform="translate(-808.149 -2165.507)" fill="#e6007a">
        <path d="M 815.9782104492188 2186.006591796875 C 815.9781494140625 2186.006591796875 815.9782104492188 2186.006591796875 815.9781494140625 2186.006591796875 C 815.8623046875 2186.006591796875 815.7462158203125 2185.994873046875 815.6320190429688 2185.9716796875 L 815.4661254882812 2185.9716796875 L 815.4131469726562 2185.92626953125 C 814.5414428710938 2185.666259765625 814.00244140625 2184.77099609375 814.1990356445312 2183.867919921875 L 814.1993408203125 2183.86669921875 C 814.2006225585938 2183.8603515625 814.2018432617188 2183.854248046875 814.2031860351562 2183.84814453125 C 814.3745727539062 2183.037353515625 815.0985107421875 2182.44970703125 815.9264526367188 2182.44970703125 C 816.0469360351562 2182.44970703125 816.1681518554688 2182.462158203125 816.286865234375 2182.48681640625 L 816.2916870117188 2182.48779296875 L 816.2964477539062 2182.48876953125 C 817.2177734375 2182.699462890625 817.8195190429688 2183.583251953125 817.683837890625 2184.513671875 L 817.683837890625 2184.5439453125 L 817.683837890625 2184.622802734375 L 817.6647338867188 2184.681884765625 C 817.664306640625 2184.683349609375 817.6638793945312 2184.68505859375 817.6634521484375 2184.686767578125 C 817.47119140625 2185.46435546875 816.77978515625 2186.006591796875 815.9782104492188 2186.006591796875 Z" stroke="none"/>
        <path d="M 815.9264526367188 2182.949462890625 C 815.3406372070312 2182.949462890625 814.8157958984375 2183.359375 814.691650390625 2183.955078125 C 814.6900634765625 2183.961669921875 814.689208984375 2183.968017578125 814.6876220703125 2183.974365234375 C 814.5399169921875 2184.65283203125 814.9697265625 2185.322998046875 815.64892578125 2185.470947265625 C 815.6497802734375 2185.470947265625 815.6505126953125 2185.470947265625 815.6513671875 2185.4716796875 L 815.6865234375 2185.4716796875 C 816.3509521484375 2185.633056640625 817.0201416015625 2185.22314453125 817.179931640625 2184.55908203125 C 817.1815185546875 2184.554443359375 817.1822509765625 2184.548828125 817.183837890625 2184.5439453125 L 817.183837890625 2184.474365234375 C 817.3013916015625 2183.788818359375 816.863525390625 2183.13134765625 816.18505859375 2182.976318359375 C 816.0982666015625 2182.958251953125 816.01171875 2182.94970703125 815.9264526367188 2182.949462890625 M 815.9263916015625 2181.94970703125 C 816.0810546875 2181.94970703125 816.2366333007812 2181.965576171875 816.3887329101562 2181.997314453125 L 816.4078369140625 2182.00146484375 C 817.5712890625 2182.267333984375 818.33544921875 2183.374267578125 818.183837890625 2184.547607421875 L 818.183837890625 2184.701904296875 L 818.1453247070312 2184.82080078125 C 817.8930053710938 2185.81494140625 817.0059204101562 2186.506591796875 815.9782104492188 2186.506591796875 C 815.8466796875 2186.506591796875 815.7149658203125 2186.494873046875 815.5849609375 2186.4716796875 L 815.2808837890625 2186.4716796875 L 815.1630249023438 2186.370361328125 C 814.10791015625 2185.997802734375 813.4676513671875 2184.88671875 813.7096557617188 2183.765625 C 813.7111206054688 2183.75830078125 813.712646484375 2183.7509765625 813.7142333984375 2183.74365234375 C 813.9346313476562 2182.70361328125 814.86376953125 2181.94970703125 815.9263916015625 2181.94970703125 Z" stroke="none" fill="#fff"/>
      </g>
    </g>
  </g>
</svg>
