<svg xmlns="http://www.w3.org/2000/svg" width="32" height="32" viewBox="0 0 32 32">
  <g id="enj" transform="translate(-1323 -471)">
    <rect id="Rectangle_3262" data-name="Rectangle 3262" width="32" height="32" transform="translate(1323 471)" fill="none"/>
    <g id="enjin-coin-enj-logo" transform="translate(1328.738 477)">
      <circle id="Ellipse_7391" data-name="Ellipse 7391" cx="10" cy="10" r="10" transform="translate(0.262 0)" fill="#7866d5"/>
      <g id="Group_6598" data-name="Group 6598" transform="translate(3.216 4.866)">
        <path id="Path_44334" data-name="Path 44334" d="M35.178,36.314c.339.042.691.071,1.03.127.663.127.889.465.776,1.142a.568.568,0,0,1-.48.494,1.829,1.829,0,0,1-.48.028c-2.2,0-4.386.014-6.587.014a5.834,5.834,0,0,0-.987.085,1.6,1.6,0,0,0-1.594,1.721c-.042.508-.042.508.48.508h9a.8.8,0,0,1,.395.113c.395.254.3.663.282,1.03a.536.536,0,0,1-.508.522,1.8,1.8,0,0,1-.395.028h-8.97c-.324,0-.324,0-.3.324a4.789,4.789,0,0,0,.113.889,1.353,1.353,0,0,0,1.016,1.03,7.211,7.211,0,0,0,1.819.212h6.417a.733.733,0,0,1,.691.282.9.9,0,0,1-.3,1.241.437.437,0,0,1-.183.085,4.923,4.923,0,0,1-1.439.2c-2.017.042-4.02.042-6.023,0a10.161,10.161,0,0,1-1.848-.212A2.693,2.693,0,0,1,24.727,43.7c-.056-.324-.085-.663-.127-1V40.08c.028-.254.056-.522.085-.776A2.844,2.844,0,0,1,27.2,36.512a14.327,14.327,0,0,1,1.721-.212Z" transform="translate(-24.346 -36.046)" fill="#fff"/>
        <path id="Path_44335" data-name="Path 44335" d="M30.416,45.121c-1.016,0-2.017-.014-3.018-.028a9.48,9.48,0,0,1-1.89-.226A2.943,2.943,0,0,1,22.927,42.2a6.39,6.39,0,0,1-.085-.705c-.014-.1-.028-.2-.042-.31v-2.68l.028-.254c.014-.183.042-.353.056-.522a3.082,3.082,0,0,1,2.722-3,11.076,11.076,0,0,1,1.326-.183l.423-.042h6.319a2.307,2.307,0,0,0,.31.028,7,7,0,0,1,.733.1,1.076,1.076,0,0,1,.973,1.425.823.823,0,0,1-.705.705,3.128,3.128,0,0,1-.522.042c-2.186.014-4.386.028-6.573.028a5.35,5.35,0,0,0-.945.085c-.973.155-1.3.508-1.382,1.5,0,.085-.014.169-.014.24h9.238a1.11,1.11,0,0,1,.522.141A1.05,1.05,0,0,1,35.72,39.9c0,.042-.014.1-.014.141a.785.785,0,0,1-.705.748,2.352,2.352,0,0,1-.437.028H25.55v.056a4.355,4.355,0,0,0,.113.86,1.092,1.092,0,0,0,.832.832,6.564,6.564,0,0,0,1.763.2c1.664.014,3.357.014,5.007.014h1.41a.969.969,0,0,1,.9.409,1.129,1.129,0,0,1,.141.874,1.167,1.167,0,0,1-.522.719,1.25,1.25,0,0,1-.24.113,5.4,5.4,0,0,1-1.509.212C32.447,45.106,31.432,45.121,30.416,45.121Zm-7.109-3.977a2.1,2.1,0,0,1,.028.3l.085.677a2.454,2.454,0,0,0,2.186,2.257,9.707,9.707,0,0,0,1.805.212c1.989.042,4.02.042,6.023,0a5.2,5.2,0,0,0,1.354-.183c.042-.014.085-.042.127-.056a.723.723,0,0,0,.3-.409.618.618,0,0,0-.085-.494c-.085-.127-.2-.169-.465-.169h-1.41c-1.636,0-3.343,0-5.007-.014a6.57,6.57,0,0,1-1.89-.226A1.559,1.559,0,0,1,25.17,41.82a4.325,4.325,0,0,1-.113-.945v-.014c-.014-.2-.028-.339.085-.465s.268-.127.465-.127h8.97a1.489,1.489,0,0,0,.353-.028c.226-.042.282-.141.3-.282,0-.056.014-.1.014-.155.028-.353.028-.522-.169-.649a.528.528,0,0,0-.254-.071H25.79c-.31,0-.494,0-.635-.141s-.113-.339-.1-.635a1.842,1.842,0,0,1,1.805-1.946,8.212,8.212,0,0,1,1.03-.1c2.2,0,4.386-.014,6.587-.014a2.207,2.207,0,0,0,.437-.028.3.3,0,0,0,.268-.268c.1-.564-.042-.748-.578-.86a5.549,5.549,0,0,0-.677-.085,2.307,2.307,0,0,0-.31-.028H27.384l-.423.042a9.471,9.471,0,0,0-1.269.169,2.633,2.633,0,0,0-2.3,2.609c-.014.169-.042.339-.056.522l-.028.24v2.581Z" transform="translate(-22.8 -34.5)" fill="#fff"/>
      </g>
    </g>
  </g>
</svg>
