<svg xmlns="http://www.w3.org/2000/svg" width="32" height="32" viewBox="0 0 32 32">
  <g id="eos" transform="translate(-15200.054 -7030)">
    <rect id="Rectangle_3299" data-name="Rectangle 3299" width="32" height="32" transform="translate(15200.054 7030)" fill="none"/>
    <g id="Layer_2" data-name="Layer 2" transform="translate(15209.414 7036)">
      <g id="Layer_1" data-name="Layer 1">
        <g id="Path_44544" data-name="Path 44544">
          <path d="M 6.640000343322754 20.58527946472168 L 6.380110263824463 20.42715072631836 L -0.2598896622657776 16.38714981079102 L -0.5607396364212036 16.20409965515137 L -0.489729642868042 15.85916996002197 L 1.470270395278931 6.339169979095459 L 1.492050290107727 6.233409881591797 L 1.555520296096802 6.146059989929199 L 6.235520362854004 -0.293940007686615 L 6.640480518341064 -0.8511800169944763 L 7.04481029510498 -0.2934800088405609 L 11.68481063842773 6.106520175933838 L 11.74752044677734 6.193029880523682 L 11.76940059661865 6.297609806060791 L 13.76940059661865 15.85760974884033 L 13.84176063537598 16.2034797668457 L 13.53989028930664 16.38714981079102 L 6.899890422821045 20.42715072631836 L 6.640000343322754 20.58527946472168 Z M 10.56667137145996 10.22213649749756 L 8.221015930175781 17.34287452697754 L 11.59987640380859 15.27646446228027 L 10.56667137145996 10.22213649749756 Z M 1.640124320983887 15.27646446228027 L 5.018984794616699 17.34287452697754 L 2.673329591751099 10.22213649749756 L 1.640124320983887 15.27646446228027 Z M 3.595206260681152 6.726267337799072 L 6.640000343322754 15.92831134796143 L 9.684794425964355 6.726267337799072 L 6.640000343322754 2.531217813491821 L 3.595206260681152 6.726267337799072 Z" stroke="none"/>
          <path d="M 6.640000343322754 0 L 1.960000038146973 6.439999580383301 L 0 15.96000003814697 L 6.640000343322754 20 L 13.28000068664551 15.96000003814697 L 11.28000068664551 6.399999618530273 L 6.640000343322754 0 M 6.640000343322754 17.52000045776367 L 3.039999961853027 6.640000343322754 L 6.640000343322754 1.680000305175781 L 10.23999977111816 6.640000343322754 L 6.640000343322754 17.52000045776367 M 5.920000553131104 18.47999954223633 L 1.079999923706055 15.52000045776367 L 2.560000419616699 8.279999732971191 L 5.920000553131104 18.47999954223633 M 7.320000171661377 18.47999954223633 L 10.68000030517578 8.279999732971191 L 12.15999984741211 15.52000045776367 L 7.320000171661377 18.47999954223633 M 6.640950202941895 -1.702360153198242 L 12.21505069732666 5.986049652099609 L 14.40352058410645 16.44696044921875 L 6.640000343322754 21.1705493927002 L -1.121489524841309 16.44820022583008 L 1.024090766906738 6.026829719543457 L 6.640950202941895 -1.702360153198242 Z M 9.12959098815918 6.812538146972656 L 6.640000343322754 3.382434844970703 L 4.150409698486328 6.812538146972656 L 6.640000343322754 14.33663272857666 L 9.12959098815918 6.812538146972656 Z M 4.117981910705566 16.20574951171875 L 2.786664009094238 12.16424751281738 L 2.200250625610352 15.03292083740234 L 4.117981910705566 16.20574951171875 Z M 11.03975105285645 15.03292083740234 L 10.45333671569824 12.16424751281738 L 9.122018814086914 16.20574951171875 L 11.03975105285645 15.03292083740234 Z" stroke="none" fill="#fff"/>
        </g>
      </g>
    </g>
  </g>
</svg>
