<svg xmlns="http://www.w3.org/2000/svg" width="32" height="32" viewBox="0 0 32 32">
  <g id="etc" transform="translate(-15252.868 -7030)">
    <rect id="Rectangle_3300" data-name="Rectangle 3300" width="32" height="32" transform="translate(15252.868 7030)" fill="none"/>
    <g id="Layer_2" data-name="Layer 2" transform="translate(15262.694 7036)">
      <g id="svg8">
        <g id="layer5">
          <g id="g1627">
            <path id="path1599" d="M0,10.892c2.176,1.155,4.446,2.365,6.2,3.3l6.149-3.3C10.122,14.2,8.267,16.953,6.2,20,4.128,16.959,1.841,13.6,0,10.892ZM.236,9.98l5.97-3.185L12.1,9.956,6.209,13.145ZM6.2,5.774,0,9.037,6.172,0l6.176,9.057Z" fill="#3ab83a"/>
            <path id="path1593" d="M771.317,14.193l6.149-3.3C775.239,14.2,771.317,20,771.317,20Zm.007-7.4,5.892,3.162-5.889,3.189Zm-.007-1.02L771.29,0l6.176,9.057Z" transform="translate(-765.118)" fill="#0b8311"/>
            <path id="path1603" d="M29.55,1244.55l5.97.49,5.892-.51-5.889,3.189Z" transform="translate(-29.314 -1234.571)" fill="#0b8311"/>
            <path id="path1606" d="M775.51,1245.04l5.892-.51-5.888,3.189Z" transform="translate(-769.304 -1234.571)" fill="#146714"/>
          </g>
        </g>
      </g>
    </g>
  </g>
</svg>
