<svg xmlns="http://www.w3.org/2000/svg" width="32" height="32" viewBox="0 0 32 32">
  <g id="fil" transform="translate(-15309.043 -7030)">
    <rect id="Rectangle_3301" data-name="Rectangle 3301" width="32" height="32" transform="translate(15309.043 7030)" fill="none"/>
    <g id="filecoin-fil-logo" transform="translate(15315.043 7036)">
      <path id="Path_44545" data-name="Path 44545" d="M10,20a10,10,0,1,1,10-9.9A10.04,10.04,0,0,1,10,20" transform="translate(0 0.001)" fill="#0090ff" fill-rule="evenodd"/>
      <path id="Path_44546" data-name="Path 44546" d="M16.15,11.946l-.3,1.6,2.85.4-.2.75-2.8-.4c-.2.65-.3,1.35-.55,1.95-.25.7-.5,1.4-.8,2.05a2.7,2.7,0,0,1-2.05,1.6,2,2,0,0,1-1.6-.3.666.666,0,0,1-.3-.45.716.716,0,0,1,.25-.55.9.9,0,0,1,.5.05,2.22,2.22,0,0,1,.4.55.714.714,0,0,0,1.1.15,3.021,3.021,0,0,0,.85-1.5c.3-1.2.6-2.35.85-3.55v-.2l-2.65-.4.1-.75,2.75.4.35-1.55-2.85-.45.1-.8,2.95.4c.1-.3.15-.55.25-.8a7.42,7.42,0,0,1,1.1-2.6A2.636,2.636,0,0,1,18.8,6.3a1.551,1.551,0,0,1,1.2.5.425.425,0,0,1,.15.25.838.838,0,0,1-.15.6.48.48,0,0,1-.65-.1c-.15-.15-.25-.3-.4-.45a.682.682,0,0,0-1.1-.1,3.2,3.2,0,0,0-.65.95c-.35,1.05-.6,2.15-.95,3.25l2.75.4-.2.75-2.65-.4" transform="translate(-5.2 -3.146)" fill="#fff" fill-rule="evenodd"/>
    </g>
  </g>
</svg>
