<svg xmlns="http://www.w3.org/2000/svg" xmlns:xlink="http://www.w3.org/1999/xlink" width="32" height="32" viewBox="0 0 32 32">
  <defs>
    <linearGradient id="linear-gradient" x1="0.259" y1="1.224" x2="0.93" y2="0.379" gradientUnits="objectBoundingBox">
      <stop offset="0.21" stop-color="#f15a24"/>
      <stop offset="0.684" stop-color="#fbb03b"/>
    </linearGradient>
    <linearGradient id="linear-gradient-2" x1="0.741" y1="0.009" x2="0.07" y2="0.853" gradientUnits="objectBoundingBox">
      <stop offset="0.21" stop-color="#ed1e79"/>
      <stop offset="0.893" stop-color="#522785"/>
    </linearGradient>
  </defs>
  <g id="icp" transform="translate(-16138 -7030)">
    <rect id="Rectangle_3315" data-name="Rectangle 3315" width="32" height="32" transform="translate(16138 7030)" fill="none"/>
    <g id="Group_6696" data-name="Group 6696" transform="translate(166 930)">
      <circle id="Ellipse_7553" data-name="Ellipse 7553" cx="10" cy="10" r="10" transform="translate(15978 6106)" fill="#292a2e"/>
      <g id="Group_6695" data-name="Group 6695" transform="translate(15980.673 6112.436)">
        <path id="Path_44584" data-name="Path 44584" d="M125.063,273.4a4.106,4.106,0,0,0-2.643,1.292,10.587,10.587,0,0,0-1.12,1.187s.455.515.956,1.068a11.009,11.009,0,0,1,1.113-1.2,2.74,2.74,0,0,1,1.7-.918,2.158,2.158,0,0,1,0,4.316,1.1,1.1,0,0,1-.2-.022,2.62,2.62,0,0,0,1.06.269,2.412,2.412,0,0,0,2.6-1.561,3.827,3.827,0,0,0,.1-.836A3.585,3.585,0,0,0,125.063,273.4Z" transform="translate(-113.997 -273.4)" fill="url(#linear-gradient)"/>
        <path id="Path_44585" data-name="Path 44585" d="M27.054,295.089A4.106,4.106,0,0,0,29.7,293.8a10.582,10.582,0,0,0,1.12-1.187s-.455-.515-.956-1.068a11.009,11.009,0,0,1-1.113,1.2,2.74,2.74,0,0,1-1.7.918,2.158,2.158,0,0,1,0-4.316,1.1,1.1,0,0,1,.2.022,2.621,2.621,0,0,0-1.06-.269,2.412,2.412,0,0,0-2.6,1.561,3.827,3.827,0,0,0-.1.836A3.585,3.585,0,0,0,27.054,295.089Z" transform="translate(-23.5 -287.928)" fill="url(#linear-gradient-2)"/>
        <path id="Path_44586" data-name="Path 44586" d="M30.078,275.775a4.537,4.537,0,0,0-2.487-1.165,2.468,2.468,0,0,0-2.584,1.531,3.566,3.566,0,0,1,3.442-2.74c1.359,0,2.725,1.3,3.741,2.479a.007.007,0,0,1,.007-.007s.455.515.956,1.068c0,0,.567.657,1.172,1.24a4.539,4.539,0,0,0,2.479,1.157,2.519,2.519,0,0,0,2.606-1.531,3.571,3.571,0,0,1-3.442,2.755c-1.359,0-2.725-1.307-3.748-2.479l-.007.007s-.455-.515-.956-1.068C31.25,277.014,30.682,276.357,30.078,275.775ZM25,276.148v-.015C25.007,276.14,25.007,276.148,25,276.148Z" transform="translate(-24.888 -273.4)" fill="#29abe2"/>
      </g>
    </g>
  </g>
</svg>
