<svg xmlns="http://www.w3.org/2000/svg" width="32" height="32" viewBox="0 0 32 32">
  <g id="rupee" transform="translate(-0.295)">
    <rect id="Rectangle_1712" data-name="Rectangle 1712" width="32" height="32" transform="translate(0.295)" fill="none"/>
    <g id="money_1_" data-name="money (1)" transform="translate(11.063 7.692)">
      <path id="Path_1" data-name="Path 1" d="M84.559,4.217a.411.411,0,0,0-.3-.119H81.995a4.575,4.575,0,0,0-.846-1.9h3.08a.406.406,0,0,0,.423-.423V.423A.407.407,0,0,0,84.229,0h-11a.407.407,0,0,0-.423.423V2.181a.429.429,0,0,0,.423.423h1.917q2.789,0,3.543,1.494h-5.46a.407.407,0,0,0-.423.423V5.87a.407.407,0,0,0,.423.423h5.646a2.584,2.584,0,0,1-1.355,1.653,5.966,5.966,0,0,1-2.809.569H73.229a.429.429,0,0,0-.423.423v1.679a.4.4,0,0,0,.119.291q2.538,2.7,6.584,7.549a.39.39,0,0,0,.331.159h2.578a.384.384,0,0,0,.383-.238.361.361,0,0,0-.053-.45q-3.86-4.733-6.068-7.086a6.705,6.705,0,0,0,3.649-1.454,4.943,4.943,0,0,0,1.705-3.094h2.221a.407.407,0,0,0,.423-.423V4.522A.412.412,0,0,0,84.559,4.217Z" transform="translate(-72.806 0)" fill="#4891ff"/>
    </g>
  </g>
</svg>
