<svg xmlns="http://www.w3.org/2000/svg" width="32" height="32" viewBox="0 0 32 32">
  <g id="MIOTA" transform="translate(-14740.329 -7011.05)">
    <rect id="Rectangle_3316" data-name="Rectangle 3316" width="32" height="32" transform="translate(14740.329 7011.05)" fill="none"/>
    <g id="Layer_2" data-name="Layer 2" transform="translate(14746 7017.05)">
      <g id="Layer_1" data-name="Layer 1">
        <g id="Path_44587" data-name="Path 44587">
          <path d="M 11.81205940246582 20.25 L 11.81108951568604 20.25 L 11.81011962890625 20.2499885559082 C 11.14088916778564 20.24478912353516 10.6006498336792 19.69612884521484 10.6058292388916 19.02694892883301 C 10.60581970214844 18.35555839538574 11.14693927764893 17.80776977539062 11.81205940246582 17.80776977539062 C 12.47717952728271 17.80776977539062 13.0182991027832 18.35555839538574 13.0182991027832 19.02888870239258 C 13.0182991027832 19.70220947265625 12.47717952728271 20.25 11.81205940246582 20.25 Z M 7.894539356231689 19.95163917541504 C 7.302789211273193 19.95163917541504 6.821369647979736 19.46502876281738 6.821369647979736 18.86689949035645 C 6.821369647979736 18.26876831054688 7.302789211273193 17.78214836120605 7.894539356231689 17.78214836120605 C 8.486289024353027 17.78214836120605 8.967719078063965 18.26876831054688 8.967719078063965 18.86689949035645 C 8.967719078063965 19.46502876281738 8.486289024353027 19.95163917541504 7.894539356231689 19.95163917541504 Z M 16.35108947753906 19.59624862670898 C 15.58615970611572 19.59624862670898 14.96384906768799 18.96614837646484 14.96384906768799 18.19165992736816 C 14.96384906768799 17.41716957092285 15.58615970611572 16.78706932067871 16.35108947753906 16.78706932067871 C 17.11602020263672 16.78706932067871 17.73832893371582 17.41716957092285 17.73832893371582 18.19165992736816 C 17.73832893371582 18.96614837646484 17.11602020263672 19.59624862670898 16.35108947753906 19.59624862670898 Z M 9.668999671936035 18.49703979492188 L 9.663959503173828 18.49703979492188 C 9.06658935546875 18.49099922180176 8.587449073791504 18.00215911865234 8.593349456787109 17.40732955932617 C 8.593338966369629 16.8103084564209 9.075879096984863 16.32257843017578 9.668999671936035 16.32257843017578 C 10.26211929321289 16.32257843017578 10.74464988708496 16.8103084564209 10.74464988708496 17.40980911254883 C 10.74464988708496 18.00930976867676 10.26211929321289 18.49703979492188 9.668999671936035 18.49703979492188 Z M 13.46253967285156 18.13503837585449 C 12.80197906494141 18.13503837585449 12.26456928253174 17.59132957458496 12.26456928253174 16.92300987243652 C 12.26456928253174 16.25469970703125 12.80197906494141 15.71098899841309 13.46253967285156 15.71098899841309 C 14.1230993270874 15.71098899841309 14.66050910949707 16.25469970703125 14.66050910949707 16.92300987243652 C 14.66050910949707 17.59132957458496 14.1230993270874 18.13503837585449 13.46253967285156 18.13503837585449 Z M 6.417619228363037 18.05825996398926 C 5.886889457702637 18.05825996398926 5.455109596252441 17.62647819519043 5.455109596252441 17.09574890136719 C 5.455109596252441 16.56505966186523 5.886819362640381 16.13331985473633 6.417469501495361 16.13331985473633 C 6.673159599304199 16.13331985473633 6.913129329681396 16.2340087890625 7.093319416046143 16.41682815551758 C 7.272359371185303 16.59848976135254 7.370959281921387 16.839599609375 7.370949268341064 17.09575843811035 C 7.372879505157471 17.62117958068848 6.946249485015869 18.05332946777344 6.419919490814209 18.05816841125488 L 6.418769359588623 18.05817985534668 L 6.417619228363037 18.05825996398926 Z M 8.192459106445312 16.59703826904297 C 7.661739349365234 16.59610939025879 7.230709552764893 16.1635799407959 7.231629371643066 15.6328592300415 C 7.232559204101562 15.10308933258057 7.664259433746338 14.67209911346436 8.1939697265625 14.67209911346436 C 8.721049308776855 14.67209911346436 9.148709297180176 15.10383892059326 9.148709297180176 15.63452911376953 C 9.151802062988281 16.15964889526367 8.72691822052002 16.59126281738281 8.200811386108398 16.59691619873047 L 8.199189186096191 16.59696960449219 L 8.192459106445312 16.59703826904297 Z M 11.31619930267334 16.35313987731934 L 11.31533908843994 16.35313987731934 C 10.72147941589355 16.35313987731934 10.23745918273926 15.86412906646729 10.23637962341309 15.26305866241455 C 10.2343692779541 14.97459888458252 10.3453197479248 14.70140933990479 10.54877948760986 14.49510860443115 C 10.75223922729492 14.28880882263184 11.02385902404785 14.1740894317627 11.31360912322998 14.17208862304688 C 11.60681915283203 14.1740894317627 11.87843990325928 14.28880882263184 12.08189964294434 14.49510860443115 C 12.28536987304688 14.70140933990479 12.3963098526001 14.97459888458252 12.39428901672363 15.26434898376465 C 12.3963098526001 15.55061912536621 12.28536987304688 15.82380867004395 12.0819091796875 16.03011894226074 C 11.87843990325928 16.23641967773438 11.60681915283203 16.35113906860352 11.31705951690674 16.35312843322754 L 11.31619930267334 16.35313987731934 Z M 5.549509525299072 16.20437812805176 L 5.547989368438721 16.20437812805176 L 5.546469211578369 16.20436859130859 C 5.316989421844482 16.20281982421875 5.101849555969238 16.11198997497559 4.940689563751221 15.94862937927246 C 4.779519557952881 15.78525924682617 4.691619396209717 15.56890869140625 4.69318962097168 15.33942890167236 C 4.691929340362549 15.11157894134521 4.780039310455322 14.89555931091309 4.941269397735596 14.73256874084473 C 5.102499485015869 14.5695686340332 5.317549228668213 14.47912883758545 5.546809673309326 14.47787857055664 L 5.548689365386963 14.47786903381348 L 5.553959369659424 14.47788906097412 C 6.026719570159912 14.4824390411377 6.407659530639648 14.87075901031494 6.403139591217041 15.34351921081543 C 6.404399394989014 15.5706787109375 6.31628942489624 15.78669929504395 6.155059337615967 15.94968891143799 C 5.993829250335693 16.11268997192383 5.778769493103027 16.20312881469727 5.549509525299072 16.20437812805176 Z M 14.4744291305542 15.06301879882812 L 14.47231960296631 15.06299877166748 L 14.46479988098145 15.0629186630249 C 14.11569976806641 15.05681896209717 13.83797931671143 14.76925945281982 13.84400939941406 14.42188930511475 C 13.84290981292725 14.25759887695312 13.90779972076416 14.09811878204346 14.02668952941895 13.97773933410645 C 14.14557933807373 13.85735893249512 14.30422973632812 13.79047870635986 14.47341918945312 13.78941917419434 C 14.65953922271729 13.78941917419434 14.82683372497559 13.87044811248779 14.94255828857422 13.99921798706055 C 14.9682502746582 13.64968109130859 15.25878620147705 13.37287902832031 15.61221981048584 13.37287902832031 C 15.782883644104 13.37419986724854 15.93831539154053 13.43856620788574 16.05654907226562 13.54352474212646 C 16.033935546875 13.47007369995117 16.02174949645996 13.39206027984619 16.02174949645996 13.31128883361816 C 16.02174949645996 12.87539863586426 16.37636947631836 12.52077865600586 16.81225967407227 12.52077865600586 C 17.24497032165527 12.52077865600586 17.59700012207031 12.87539863586426 17.59700012207031 13.31128883361816 C 17.59700012207031 13.74717903137207 17.24497032165527 14.10180950164795 16.81225967407227 14.10180950164795 C 16.59867668151855 14.10180950164795 16.40463447570801 14.01669120788574 16.26223373413086 13.87856483459473 C 16.27659034729004 13.93387508392334 16.28407096862793 13.99188804626465 16.28372001647949 14.05163860321045 C 16.28372001647949 14.42362880706787 15.98248958587646 14.72745895385742 15.61221981048584 14.72745895385742 L 15.61076927185059 14.72745895385742 L 15.60930919647217 14.72743892669678 C 15.4072208404541 14.7250919342041 15.22590827941895 14.63301563262939 15.10325717926025 14.48962116241455 C 15.08979034423828 14.63449478149414 15.02713871002197 14.76951789855957 14.92326927185059 14.87468910217285 C 14.8043794631958 14.99506950378418 14.64572906494141 15.06194877624512 14.47653961181641 15.06300926208496 L 14.4744291305542 15.06301879882812 Z M 7.316829204559326 14.74894905090332 C 6.842199325561523 14.74894905090332 6.456059455871582 14.35909938812256 6.456059455871582 13.87990951538086 C 6.456059455871582 13.40072917938232 6.842199325561523 13.01087951660156 7.316829204559326 13.01087951660156 C 7.791459560394287 13.01087951660156 8.177599906921387 13.40072917938232 8.177599906921387 13.87990951538086 C 8.177599906921387 14.35909938812256 7.791459560394287 14.74894905090332 7.316829204559326 14.74894905090332 Z M 5.142519474029541 14.49851894378662 L 5.141539573669434 14.49851894378662 C 4.715209484100342 14.49851894378662 4.368369579315186 14.14908885955811 4.368369579315186 13.71957874298096 C 4.368369579315186 13.36577892303467 4.603734970092773 13.06630229949951 4.924989700317383 12.97171974182129 C 4.638154983520508 12.88396263122559 4.428709506988525 12.61403656005859 4.428709506988525 12.2955493927002 C 4.428709506988525 11.96154117584229 4.659079074859619 11.68094062805176 4.96747350692749 11.60785865783691 C 4.829663753509521 11.49095439910889 4.741939544677734 11.31577396392822 4.741939544677734 11.12029933929443 C 4.741939544677734 10.76916885375977 5.025009632110596 10.48349857330322 5.372949600219727 10.48349857330322 C 5.720889568328857 10.48349857330322 6.003959655761719 10.76916885375977 6.003959655761719 11.12029933929443 C 6.003959655761719 11.41041374206543 5.810741424560547 11.65582847595215 5.547332763671875 11.73236083984375 C 5.715668678283691 11.86141872406006 5.824609279632568 12.06585788726807 5.824609279632568 12.2955493927002 C 5.826319217681885 12.48079872131348 5.754899501800537 12.6577787399292 5.623509407043457 12.79159927368164 C 5.543525695800781 12.87305545806885 5.447134971618652 12.93258571624756 5.34166145324707 12.96708393096924 C 5.671282768249512 13.05615520477295 5.914699554443359 13.35977554321289 5.914699554443359 13.71957874298096 C 5.916049480438232 14.14538860321045 5.570089340209961 14.49517917633057 5.143499374389648 14.49850940704346 L 5.142519474029541 14.49851894378662 Z M 9.854989051818848 14.45388889312744 L 9.854129791259766 14.45388889312744 C 9.328459739685059 14.45388889312744 8.900789260864258 14.02103900909424 8.900789260864258 13.48898887634277 C 8.899029731750488 13.23302936553955 8.997039794921875 12.99170875549316 9.176779747009277 12.80947875976562 C 9.35651969909668 12.62724876403809 9.59645938873291 12.52592945098877 9.852409362792969 12.52416896820068 C 10.37979984283447 12.52415943145752 10.80745983123779 12.95701885223389 10.80745983123779 13.48906898498535 C 10.80921936035156 13.74501895904541 10.71120929718018 13.98633861541748 10.53146934509277 14.16856861114502 C 10.35172939300537 14.35079860687256 10.11178970336914 14.45212936401367 9.855839729309082 14.45387935638428 L 9.854989051818848 14.45388889312744 Z M 13.47906970977783 13.95056915283203 L 13.47773933410645 13.95056915283203 L 13.47640991210938 13.95055866241455 C 13.08904933929443 13.94642925262451 12.77454948425293 13.62791919708252 12.77532958984375 13.24052906036377 C 12.77532958984375 12.84980869293213 13.09102916717529 12.53151893615723 13.47906970977783 12.53151893615723 C 13.65096855163574 12.53151893615723 13.80864906311035 12.59396266937256 13.93099880218506 12.69755744934082 C 13.9117603302002 12.62848854064941 13.90184307098389 12.55561351776123 13.90266990661621 12.48040866851807 C 13.90264987945557 12.05045890808105 14.25208950042725 11.69842910766602 14.68159961700439 11.69842910766602 L 14.68277931213379 11.69842910766602 L 14.68817901611328 11.69843864440918 C 15.11809921264648 11.7025089263916 15.46457958221436 12.055588722229 15.46053981781006 12.48550891876221 C 15.46054935455322 12.91586875915527 15.11110973358154 13.26789951324463 14.68159961700439 13.26789951324463 L 14.67572975158691 13.26789951324463 C 14.47776508331299 13.26571846008301 14.29796409606934 13.19041538238525 14.16168975830078 13.06818580627441 C 14.17548370361328 13.12353420257568 14.18280982971191 13.18143749237061 14.18280982971191 13.24103927612305 C 14.18280982971191 13.63227939605713 13.86710929870605 13.95056915283203 13.47906970977783 13.95056915283203 Z M 6.919289588928223 13.04639911651611 L 6.917399406433105 13.04639911651611 L 6.915509223937988 13.04636859893799 L 6.90955924987793 13.04627895355225 C 6.702859401702881 13.04333877563477 6.509469509124756 12.95998859405518 6.36523962020874 12.81157875061035 C 6.221009254455566 12.66317939758301 6.143209457397461 12.46749877929688 6.146159648895264 12.26057910919189 C 6.144829273223877 12.05574893951416 6.224379539489746 11.86025905609131 6.370129585266113 11.71268939971924 C 6.461098670959473 11.62058353424072 6.571052551269531 11.55403900146484 6.6912841796875 11.5167179107666 C 6.402725696563721 11.42632865905762 6.192909240722656 11.15556144714355 6.194069385528564 10.83837890625 C 6.194069385528564 10.44805908203125 6.509769439697266 10.12976932525635 6.897809505462646 10.12976932525635 C 7.285849571228027 10.12976932525635 7.601539611816406 10.44805908203125 7.601539611816406 10.83928871154785 C 7.601539611816406 11.15003204345703 7.402401924133301 11.41475009918213 7.126029014587402 11.51052951812744 C 7.452725887298584 11.60253143310547 7.692459583282471 11.90554904937744 7.692459583282471 12.26413917541504 C 7.692459583282471 12.69547939300537 7.345619201660156 13.04639911651611 6.919289588928223 13.04639911651611 Z M 17.99329948425293 13.0050687789917 C 17.52505874633789 13.0050687789917 17.14410972595215 12.6204195022583 17.14410972595215 12.14760875701904 C 17.14410972595215 11.6747989654541 17.52505874633789 11.29014873504639 17.99329948425293 11.29014873504639 C 18.46154975891113 11.29014873504639 18.84249877929688 11.6747989654541 18.84249877929688 12.14760875701904 C 18.84249877929688 12.6204195022583 18.46154975891113 13.0050687789917 17.99329948425293 13.0050687789917 Z M 12.01784896850586 12.89679908752441 L 12.01668930053711 12.89679908752441 L 12.01552963256836 12.89678859710693 C 11.58661937713623 12.89280891418457 11.23822975158691 12.54060935974121 11.23889923095703 12.11167907714844 C 11.23889923095703 11.67936897277832 11.58833980560303 11.32733917236328 12.01784896850586 11.32733917236328 C 12.44735908508301 11.32733917236328 12.796799659729 11.67936897277832 12.796799659729 12.11206912994385 C 12.796799659729 12.54476928710938 12.44735908508301 12.89679908752441 12.01784896850586 12.89679908752441 Z M 8.97029972076416 12.59430885314941 L 8.970049858093262 12.59430885314941 L 8.969789505004883 12.59430885314941 L 8.96730899810791 12.59430885314941 C 8.498299598693848 12.59334945678711 8.117549896240234 12.2114086151123 8.118029594421387 11.74290943145752 C 8.118509292602539 11.27441883087158 8.500049591064453 10.89326858520508 8.968549728393555 10.89326858520508 C 9.437049865722656 10.89326858520508 9.818589210510254 11.27441883087158 9.819069862365723 11.74290943145752 C 9.819549560546875 12.2114086151123 9.438799858093262 12.59334945678711 8.97029972076416 12.59430885314941 Z M 1.133929491043091 12.25710868835449 C 0.3708294332027435 12.25710868835449 -0.2500005662441254 11.62997913360596 -0.2500005662441254 10.85912895202637 C -0.2500005662441254 10.08736896514893 0.3708294332027435 9.459488868713379 1.133929491043091 9.459488868713379 C 1.897029399871826 9.459488868713379 2.51785945892334 10.086989402771 2.51785945892334 10.85829925537109 C 2.51785945892334 11.62960910797119 1.897029399871826 12.25710868835449 1.133929491043091 12.25710868835449 Z M 15.86180973052979 12.18520927429199 C 15.38580989837646 12.18520927429199 14.99855899810791 11.79387950897217 14.99855899810791 11.31286907196045 C 14.99855899810791 10.83185863494873 15.38580989837646 10.44052886962891 15.86180973052979 10.44052886962891 C 16.33780860900879 10.44052886962891 16.72505950927734 10.83185863494873 16.72505950927734 11.31286907196045 C 16.72505950927734 11.79387950897217 16.33780860900879 12.18520927429199 15.86180973052979 12.18520927429199 Z M 13.20284938812256 11.80510902404785 C 12.72498989105225 11.80478858947754 12.33647918701172 11.41574859619141 12.33679962158203 10.93788909912109 C 12.33711624145508 10.46505260467529 12.7182674407959 10.079514503479 13.18931007385254 10.07203006744385 L 13.19041919708252 10.07190895080566 L 13.20484924316406 10.07182884216309 C 13.43633937835693 10.07198905944824 13.65390968322754 10.16227912902832 13.81747913360596 10.32606887817383 C 13.98105907440186 10.48986911773682 14.07105922698975 10.70755863189697 14.07089900970459 10.93904876708984 C 14.07058238983154 11.41241073608398 13.68858623504639 11.7982873916626 13.21681213378906 11.80494022369385 L 13.21578979492188 11.80503940582275 L 13.20284938812256 11.80510902404785 Z M 19.04127883911133 11.44798946380615 L 19.03788948059082 11.44798946380615 C 18.50415992736816 11.44238948822021 18.07660865783691 11.00576877593994 18.08216857910156 10.47466945648193 C 18.0821590423584 9.942049026489258 18.51241874694824 9.506599426269531 19.04127883911133 9.506599426269531 C 19.57013893127441 9.506599426269531 20.00039863586426 9.942049026489258 20.00039863586426 10.4772891998291 C 20.00039863586426 11.01253890991211 19.57013893127441 11.44798946380615 19.04127883911133 11.44798946380615 Z M 8.571429252624512 10.89671897888184 L 8.568949699401855 10.89671897888184 C 8.358499526977539 10.89509868621826 8.16310977935791 10.81237888336182 8.016809463500977 10.66378879547119 C 7.870529651641846 10.51519870758057 7.790859222412109 10.31853866577148 7.792489528656006 10.11003875732422 C 7.792479515075684 9.679288864135742 8.141919136047363 9.327259063720703 8.571429252624512 9.327259063720703 L 8.572609901428223 9.327259063720703 L 8.578019142150879 9.327268600463867 C 9.007929801940918 9.331338882446289 9.354409217834473 9.684418678283691 9.350369453430176 10.11433887481689 C 9.35037899017334 10.5446891784668 9.00093936920166 10.89671897888184 8.571429252624512 10.89671897888184 Z M 16.92057037353516 10.61488914489746 L 16.91971015930176 10.61488914489746 L 16.91292953491211 10.61488914489746 C 16.6544303894043 10.61156940460205 16.41572952270508 10.50906944274902 16.2375602722168 10.32622909545898 C 16.05937957763672 10.14338874816895 15.96307945251465 9.902098655700684 15.96638965606689 9.646828651428223 C 15.96636962890625 9.118019104003906 16.39403915405273 8.685158729553223 16.91971015930176 8.685158729553223 C 17.44537925720215 8.685158729553223 17.87303924560547 9.118019104003906 17.87303924560547 9.650069236755371 C 17.87479972839355 9.90601921081543 17.77678871154785 10.1473388671875 17.59705924987793 10.32956886291504 C 17.41732025146484 10.51179885864258 17.17737007141113 10.61312866210938 16.92141914367676 10.61487865447998 L 16.92057037353516 10.61488914489746 Z M 14.25843906402588 10.2520694732666 C 13.72957897186279 10.2520694732666 13.29931926727295 9.817728996276855 13.29931926727295 9.283859252929688 C 13.29931926727295 8.749979019165039 13.72957897186279 8.315639495849609 14.25843906402588 8.315639495849609 C 14.7936897277832 8.319998741149902 15.22187900543213 8.75525951385498 15.21754932403564 9.28589916229248 C 15.21755981445312 9.817728996276855 14.78729915618896 10.2520694732666 14.25843906402588 10.2520694732666 Z M 3.707589387893677 10.20577907562256 C 3.034269332885742 10.20577907562256 2.486479520797729 9.65131950378418 2.486479520797729 8.969789505004883 C 2.481949329376221 8.29280948638916 3.028979539871216 7.738368988037109 3.705899477005005 7.733808994293213 C 4.380919456481934 7.733798980712891 4.928709506988525 8.288259506225586 4.928709506988525 8.969789505004883 C 4.928709506988525 9.65131950378418 4.380919456481934 10.20577907562256 3.707589387893677 10.20577907562256 Z M 19.82643890380859 9.385088920593262 C 19.23012924194336 9.385088920593262 18.74499893188477 8.894768714904785 18.74499893188477 8.292078971862793 C 18.74298858642578 8.003398895263672 18.85418891906738 7.729588985443115 19.05813026428223 7.522819042205811 C 19.26206016540527 7.316049098968506 19.53430938720703 7.201068878173828 19.82472038269043 7.199079036712646 C 20.42274856567383 7.199069023132324 20.90787887573242 7.689389228820801 20.90787887573242 8.292078971862793 C 20.90787887573242 8.894768714904785 20.42274856567383 9.385088920593262 19.82643890380859 9.385088920593262 Z M 6.198599338531494 9.001599311828613 C 5.602289199829102 9.001599311828613 5.117159366607666 8.511279106140137 5.117159366607666 7.908588886260986 C 5.117159366607666 7.305899143218994 5.602289199829102 6.815578937530518 6.198599338531494 6.815578937530518 C 6.794909477233887 6.815578937530518 7.280039310455322 7.305899143218994 7.280039310455322 7.908588886260986 C 7.280039310455322 8.511279106140137 6.794909477233887 9.001599311828613 6.198599338531494 9.001599311828613 Z M 12.01867961883545 8.855319023132324 C 11.60183906555176 8.855319023132324 11.25870990753174 8.510889053344727 11.25379943847656 8.087529182434082 C 11.25235939025879 7.663349151611328 11.59461975097656 7.317248821258545 12.0167293548584 7.313959121704102 C 12.44044971466064 7.313949108123779 12.78357982635498 7.659678936004639 12.78357982635498 8.084629058837891 C 12.78357982635498 8.509589195251465 12.44044971466064 8.855319023132324 12.01867961883545 8.855319023132324 Z M 17.6990795135498 8.548688888549805 C 17.10595893859863 8.548688888549805 16.6234302520752 8.060969352722168 16.6234302520752 7.461469173431396 C 16.6234302520752 6.861968994140625 17.10595893859863 6.374238967895508 17.6990795135498 6.374238967895508 C 18.29220008850098 6.374238967895508 18.77472877502441 6.861968994140625 18.77472877502441 7.461469173431396 C 18.77472877502441 8.060969352722168 18.29220008850098 8.548688888549805 17.6990795135498 8.548688888549805 Z M 10.40703964233398 8.48422908782959 C 9.929219245910645 8.48422908782959 9.540489196777344 8.095489501953125 9.540489196777344 7.617669105529785 C 9.540489196777344 7.139849185943604 9.929219245910645 6.751119136810303 10.40703964233398 6.751119136810303 C 10.88166904449463 6.751119136810303 11.26780986785889 7.139849185943604 11.26780986785889 7.617669105529785 C 11.26780986785889 8.095489501953125 10.88166904449463 8.48422908782959 10.40703964233398 8.48422908782959 Z M 8.452269554138184 8.477728843688965 L 8.448559761047363 8.477679252624512 C 7.919339656829834 8.471428871154785 7.493789672851562 8.035799026489258 7.499929428100586 7.506578922271729 L 7.499909400939941 7.487829208374023 C 7.507899284362793 6.964539051055908 7.936929225921631 6.541939258575439 8.456319808959961 6.541939258575439 L 8.471199035644531 6.542048931121826 C 8.726719856262207 6.545958995819092 8.965419769287109 6.649148941040039 9.143339157104492 6.83259916305542 C 9.320597648620605 7.015367031097412 9.416376113891602 7.25601053237915 9.413198471069336 7.510493755340576 C 9.41575813293457 8.039689064025879 8.98814582824707 8.473257064819336 8.458599090576172 8.477599143981934 L 8.45596981048584 8.477659225463867 L 8.452269554138184 8.477728843688965 Z M 15.02686977386475 8.199918746948242 L 15.02614974975586 8.199918746948242 L 15.02541923522949 8.199918746948242 C 14.4209098815918 8.199918746948242 13.92909908294678 7.702919006347656 13.92909908294678 7.092029094696045 C 13.92909908294678 6.481139183044434 14.4209098815918 5.984138965606689 15.02541923522949 5.984138965606689 C 15.6299295425415 5.984138965606689 16.12172889709473 6.481139183044434 16.12172889709473 7.092029094696045 C 16.12344932556152 7.386379241943359 16.0105094909668 7.663609027862549 15.80371952056885 7.872818946838379 C 15.59691905975342 8.082038879394531 15.3210391998291 8.198208808898926 15.02686977386475 8.199918746948242 Z M 2.70341944694519 7.676759243011475 L 2.703169345855713 7.676759243011475 L 2.702919483184814 7.676759243011475 L 2.697879552841187 7.676749229431152 C 2.023019552230835 7.669778823852539 1.481249451637268 7.11677885055542 1.488099455833435 6.44399881362915 C 1.485869407653809 6.120119094848633 1.610889434814453 5.812408924102783 1.840119481086731 5.58004903793335 C 2.069359540939331 5.347699165344238 2.375349521636963 5.218529224395752 2.701739549636841 5.216349124908447 C 3.373559474945068 5.216339111328125 3.918749332427979 5.768208980560303 3.918749332427979 6.446548938751221 C 3.918749332427979 7.124888896942139 3.373559474945068 7.676759243011475 2.70341944694519 7.676759243011475 Z M 12.22859954833984 6.956068992614746 L 12.22681903839111 6.956048965454102 C 11.84074974060059 6.953309059143066 11.52844905853271 6.636979103088379 11.53064918518066 6.250898838043213 C 11.53064918518066 6.195068836212158 11.53717231750488 6.140745639801025 11.54950428009033 6.088610172271729 C 11.40986347198486 6.239309310913086 11.21053409576416 6.333999156951904 10.98949909210205 6.334548950195312 L 10.98918914794922 6.334548950195312 L 10.98887920379639 6.334548950195312 L 10.98631954193115 6.334548950195312 C 10.56372928619385 6.333498954772949 10.22085952758789 5.989348888397217 10.22137928009033 5.567378997802734 C 10.22190952301025 5.145409107208252 10.56563949584961 4.802109241485596 10.98759937286377 4.802109241485596 C 11.40957927703857 4.802109241485596 11.75329971313477 5.145409107208252 11.75381946563721 5.567378997802734 C 11.75390338897705 5.634185791015625 11.74538135528564 5.699035167694092 11.72929763793945 5.760888576507568 C 11.85612869262695 5.630040168762207 12.03309726715088 5.54858922958374 12.22859954833984 5.54858922958374 C 12.61345958709717 5.54858922958374 12.92655944824219 5.864289283752441 12.92655944824219 6.252328872680664 C 12.92875957489014 6.636979103088379 12.6164493560791 6.953309059143066 12.23037910461426 6.956048965454102 L 12.22859954833984 6.956068992614746 Z M 5.18450927734375 6.478359222412109 C 4.589569568634033 6.478359222412109 4.105549335479736 5.98914909362793 4.105549335479736 5.387828826904297 C 4.105549335479736 4.786509037017822 4.589569568634033 4.297298908233643 5.18450927734375 4.297298908233643 C 5.779449462890625 4.297298908233643 6.263469219207764 4.786509037017822 6.263469219207764 5.387828826904297 C 6.263469219207764 5.98914909362793 5.779449462890625 6.478359222412109 5.18450927734375 6.478359222412109 Z M 18.01809883117676 5.969249248504639 C 17.34795951843262 5.969249248504639 16.80276870727539 5.417378902435303 16.80276870727539 4.739038944244385 C 16.80276870727539 4.060698986053467 17.34795951843262 3.508829116821289 18.01809883117676 3.508829116821289 C 18.68824005126953 3.508829116821289 19.23342895507812 4.060698986053467 19.23342895507812 4.739038944244385 C 19.23342895507812 5.417378902435303 18.68824005126953 5.969249248504639 18.01809883117676 5.969249248504639 Z M 7.449069499969482 5.960148811340332 L 7.447919368743896 5.960148811340332 L 7.446759223937988 5.960139274597168 C 6.917319297790527 5.955258846282959 6.488099575042725 5.520529270172119 6.489949226379395 4.991058826446533 C 6.489949226379395 4.45806884765625 6.920209407806396 4.023728847503662 7.449069499969482 4.023728847503662 C 7.977929592132568 4.023728847503662 8.40818977355957 4.45806884765625 8.40818977355957 4.991939067840576 C 8.40818977355957 5.525808811187744 7.977929592132568 5.960148811340332 7.449069499969482 5.960148811340332 Z M 9.396259307861328 5.957679271697998 L 9.392569541931152 5.957669258117676 C 9.163309097290039 5.955809116363525 8.94849967956543 5.864778995513916 8.78770923614502 5.701339244842529 C 8.626919746398926 5.537909030914307 8.539399147033691 5.321639060974121 8.541279792785645 5.092379093170166 C 8.541269302368164 4.618429183959961 8.924818992614746 4.231179237365723 9.396259307861328 4.231179237365723 C 9.86769962310791 4.231179237365723 10.25123977661133 4.618429183959961 10.25123977661133 5.094429016113281 C 10.25380897521973 5.56597900390625 9.871179580688477 5.95383882522583 9.398279190063477 5.957659244537354 L 9.396259307861328 5.957679271697998 Z M 15.36191940307617 5.5849289894104 L 15.36096954345703 5.5849289894104 C 14.68946933746338 5.5849289894104 14.14315986633301 5.031989097595215 14.14315986633301 4.352329254150391 C 14.14315986633301 3.672619104385376 14.68946933746338 3.119639158248901 15.36096954345703 3.119639158248901 C 16.03246879577637 3.119639158248901 16.57876968383789 3.672619104385376 16.57876968383789 4.352329254150391 C 16.5838794708252 5.025999069213867 16.03842926025391 5.579789161682129 15.36286926269531 5.584918975830078 L 15.36191940307617 5.5849289894104 Z M 12.76578903198242 5.418798923492432 L 12.76432991027832 5.412366390228271 L 12.76432991027832 5.418728828430176 L 12.75837898254395 5.418728828430176 C 12.58694934844971 5.416189193725586 12.43029975891113 5.348508834838867 12.31353950500488 5.22813892364502 C 12.19677925109863 5.107779026031494 12.1338996887207 4.94913911819458 12.13648986816406 4.781458854675293 C 12.13611793518066 4.727168560028076 12.14297008514404 4.673422813415527 12.15660858154297 4.621465682983398 C 12.06750774383545 4.662545204162598 11.96851825714111 4.685797691345215 11.86424922943115 4.686539173126221 L 11.86335945129395 4.686549186706543 L 11.86246967315674 4.686549186706543 C 11.47123908996582 4.686549186706543 11.15294933319092 4.365659236907959 11.15294933319092 3.97123908996582 C 11.15294933319092 3.922803163528442 11.15775394439697 3.875456571578979 11.16689968109131 3.829696655273438 C 11.02900505065918 3.96504020690918 10.84075450897217 4.048509120941162 10.63349914550781 4.048509120941162 C 10.20853900909424 4.048509120941162 9.862809181213379 3.702779054641724 9.862809181213379 3.277819156646729 C 9.862809181213379 2.852869033813477 10.20853900909424 2.507138967514038 10.63349914550781 2.507138967514038 C 11.05526924133301 2.507138967514038 11.39839935302734 2.852869033813477 11.39839935302734 3.277819156646729 C 11.39839935302734 3.336100578308105 11.39195251464844 3.392855644226074 11.37972736358643 3.447469234466553 C 11.50645065307617 3.328675270080566 11.67619132995605 3.255928993225098 11.86246967315674 3.255928993225098 C 12.25370979309082 3.255928993225098 12.57199954986572 3.576818943023682 12.57199954986572 3.97123908996582 C 12.57241821289062 4.049161434173584 12.56014442443848 4.124321937561035 12.53711700439453 4.19474983215332 C 12.60802364349365 4.167068004608154 12.68413829803467 4.152356624603271 12.76253986358643 4.151849269866943 C 12.93547916412354 4.153298854827881 13.09316921234131 4.220219135284424 13.21115970611572 4.340289115905762 C 13.3291597366333 4.460349082946777 13.39332962036133 4.619179248809814 13.39184951782227 4.787508964538574 C 13.39295959472656 4.952838897705078 13.32843971252441 5.111518859863281 13.21018981933594 5.231328964233398 C 13.09193897247314 5.351129055023193 12.93411922454834 5.417708873748779 12.76578903198242 5.418798923492432 Z M 4.82664966583252 4.164208889007568 C 4.246289253234863 4.164208889007568 3.774129390716553 3.686869144439697 3.774129390716553 3.100129127502441 C 3.774129390716553 2.513389110565186 4.246289253234863 2.036049127578735 4.82664966583252 2.036049127578735 C 5.407009601593018 2.036049127578735 5.879159450531006 2.513389110565186 5.879159450531006 3.100129127502441 C 5.879159450531006 3.686869144439697 5.407009601593018 4.164208889007568 4.82664966583252 4.164208889007568 Z M 9.033429145812988 3.679888963699341 L 9.032269477844238 3.679888963699341 L 9.031119346618652 3.679888963699341 C 8.555768966674805 3.675488948822021 8.170669555664062 3.285179138183594 8.172659873962402 2.809808969497681 C 8.171419143676758 2.57974910736084 8.260128974914551 2.362278938293457 8.422459602355957 2.198199033737183 C 8.584779739379883 2.034119129180908 8.801289558410645 1.943069100379944 9.032089233398438 1.941829085350037 C 9.508059501647949 1.941829085350037 9.894199371337891 2.331679105758667 9.894199371337891 2.810858964920044 C 9.894199371337891 3.2900390625 9.508059501647949 3.679888963699341 9.033429145812988 3.679888963699341 Z M 7.083759307861328 3.670799016952515 C 6.554899215698242 3.670799016952515 6.124639511108398 3.236459016799927 6.124639511108398 2.70258903503418 C 6.124639511108398 2.168719053268433 6.554899215698242 1.734379053115845 7.083759307861328 1.734379053115845 C 7.612619400024414 1.734379053115845 8.042879104614258 2.168719053268433 8.042879104614258 2.70258903503418 C 8.042879104614258 3.236459016799927 7.612619400024414 3.670799016952515 7.083759307861328 3.670799016952515 Z M 15.02375984191895 2.569929122924805 C 14.25564956665039 2.569929122924805 13.63073921203613 1.938719034194946 13.63073921203613 1.162859082221985 C 13.63073921203613 0.3878390491008759 14.25505924224854 -0.2459709495306015 15.0224494934082 -0.2500009536743164 C 15.79187965393066 -0.2500009536743164 16.41679000854492 0.3823190331459045 16.41679000854492 1.159548997879028 C 16.41679000854492 1.937239050865173 15.79187965393066 2.569929122924805 15.02375984191895 2.569929122924805 Z" stroke="none"/>
          <path d="M 15.02375984191895 -1.9073486328125e-06 C 14.39315986633301 0.003309249877929688 13.88073921203613 0.5231590270996094 13.88073921203613 1.162858963012695 C 13.88073921203613 1.802549362182617 14.39315986633301 2.319929122924805 15.02375984191895 2.319929122924805 C 15.65436935424805 2.319929122924805 16.16677856445312 1.799249649047852 16.16677856445312 1.159549713134766 C 16.16677856445312 0.5198593139648438 15.65436935424805 -1.9073486328125e-06 15.02375984191895 -1.9073486328125e-06 M 7.083759307861328 1.984378814697266 C 6.691189765930176 1.984378814697266 6.374639511108398 2.306709289550781 6.374639511108398 2.70258903503418 C 6.374639511108398 3.098478317260742 6.691189765930176 3.420799255371094 7.083759307861328 3.420799255371094 C 7.476339340209961 3.420799255371094 7.792879104614258 3.098478317260742 7.792879104614258 2.70258903503418 C 7.792879104614258 2.306709289550781 7.476339340209961 1.984378814697266 7.083759307861328 1.984378814697266 M 9.033429145812988 2.191829681396484 C 8.694279670715332 2.193649291992188 8.420829772949219 2.470058441162109 8.422659873962402 2.809209823608398 L 8.422659873962402 2.810859680175781 C 8.421239852905273 3.150108337402344 8.694189071655273 3.426759719848633 9.033429145812988 3.429889678955078 C 9.370639801025391 3.429889678955078 9.644199371337891 3.153848648071289 9.644199371337891 2.810859680175781 C 9.644199371337891 2.467868804931641 9.370639801025391 2.191829681396484 9.033429145812988 2.191829681396484 M 4.82664966583252 2.286048889160156 C 4.381999969482422 2.286048889160156 4.024129867553711 2.649698257446289 4.024129867553711 3.100128173828125 C 4.024129867553711 3.550559997558594 4.384479522705078 3.914209365844727 4.82664966583252 3.914209365844727 C 5.271289825439453 3.914209365844727 5.629158973693848 3.550559997558594 5.629158973693848 3.100128173828125 C 5.629158973693848 2.649698257446289 5.26880931854248 2.286048889160156 4.82664966583252 2.286048889160156 M 10.63349914550781 2.757139205932617 C 10.34592914581299 2.757139205932617 10.11280918121338 2.990259170532227 10.11280918121338 3.27781867980957 C 10.11280918121338 3.565389633178711 10.34592914581299 3.798498153686523 10.63349914550781 3.798498153686523 C 10.91862964630127 3.798498153686523 11.14839935302734 3.566259384155273 11.14839935302734 3.27781867980957 C 11.14839935302734 2.9893798828125 10.91862964630127 2.757139205932617 10.63349914550781 2.757139205932617 M 15.36096954345703 3.369638442993164 C 14.82622909545898 3.369638442993164 14.39315986633301 3.808498382568359 14.39315986633301 4.352329254150391 C 14.39315986633301 4.896148681640625 14.82540893554688 5.334929466247559 15.36096954345703 5.334929466247559 C 15.89955902099609 5.330839157104492 16.33284950256348 4.890918731689453 16.32877922058105 4.352329254150391 L 16.32876968383789 4.352329254150391 C 16.32876968383789 3.811809539794922 15.8956995010376 3.369638442993164 15.36096954345703 3.369638442993164 M 11.86246967315674 3.505929946899414 C 11.60956954956055 3.505929946899414 11.40294933319092 3.715028762817383 11.40294933319092 3.97123908996582 C 11.40294933319092 4.227449417114258 11.60956954956055 4.436549186706543 11.86246967315674 4.436549186706543 C 12.11775970458984 4.434728622436523 12.32336902618408 4.226529121398926 12.32199954986572 3.97123908996582 C 12.32199954986572 3.712549209594727 12.11537933349609 3.505929946899414 11.86246967315674 3.505929946899414 M 18.01809883117676 3.758829116821289 C 17.48584938049316 3.758829116821289 17.05276870727539 4.197698593139648 17.05276870727539 4.739039421081543 C 17.05276870727539 5.280379295349121 17.48666954040527 5.719239234924316 18.01809883117676 5.719239234924316 C 18.55035018920898 5.719239234924316 18.98342895507812 5.280379295349121 18.98342895507812 4.739039421081543 C 18.98342895507812 4.197698593139648 18.55035972595215 3.758829116821289 18.01809883117676 3.758829116821289 M 7.449069023132324 4.27372932434082 C 7.056488990783691 4.27372932434082 6.739949226379395 4.59605884552002 6.739949226379395 4.991938591003418 C 6.738569259643555 5.385628700256348 7.055399894714355 5.70651912689209 7.449069023132324 5.710148811340332 C 7.841649055480957 5.710148811340332 8.15818977355957 5.387828826904297 8.15818977355957 4.991938591003418 C 8.15818977355957 4.59605884552002 7.841649055480957 4.27372932434082 7.449069023132324 4.27372932434082 M 12.76415920257568 4.401839256286621 C 12.55418968200684 4.403199195861816 12.38508987426758 4.574528694152832 12.38645935058594 4.784499168395996 L 12.38645935058594 4.785319328308105 C 12.38323974609375 4.993919372558594 12.54977989196777 5.16559886932373 12.75837898254395 5.168728828430176 L 12.76432991027832 5.168728828430176 L 12.76415920257568 5.168808937072754 C 12.97412872314453 5.167439460754395 13.14323997497559 4.996119499206543 13.14185905456543 4.786149024963379 L 13.14185905456543 4.785319328308105 C 13.14369964599609 4.575348854064941 12.97495937347412 4.40364933013916 12.76498985290527 4.401839256286621 L 12.76415920257568 4.401839256286621 M 9.396259307861328 4.481179237365723 C 9.061529159545898 4.481179237365723 8.791269302368164 4.757219314575195 8.791269302368164 5.094429016113281 C 8.788519859313965 5.430378913879395 9.058649063110352 5.704949378967285 9.394599914550781 5.707669258117676 L 9.396259307861328 5.707669258117676 C 9.73246955871582 5.704949378967285 10.00306987762451 5.430648803710938 10.00123977661133 5.094429016113281 C 10.00123977661133 4.753918647766113 9.730978965759277 4.481179237365723 9.396259307861328 4.481179237365723 M 5.18450927734375 4.547299385070801 C 4.727469444274902 4.547299385070801 4.355548858642578 4.922518730163574 4.355548858642578 5.387828826904297 C 4.355548858642578 5.85313892364502 4.728289604187012 6.228359222412109 5.18450927734375 6.228359222412109 C 5.640729904174805 6.228359222412109 6.013469696044922 5.85313892364502 6.013469696044922 5.387828826904297 C 6.013469696044922 4.922518730163574 5.641559600830078 4.547299385070801 5.18450927734375 4.547299385070801 M 10.98759937286377 5.052108764648438 C 10.70274925231934 5.052108764648438 10.47173976898193 5.282838821411133 10.47137928009033 5.567688941955566 C 10.47102928161621 5.8525390625 10.70146942138672 6.083839416503906 10.98631954193115 6.084548950195312 L 10.98887920379639 6.084548950195312 C 11.27372932434082 6.083839416503906 11.50417900085449 5.8525390625 11.50381946563721 5.567688941955566 C 11.50346946716309 5.282838821411133 11.2724494934082 5.052108764648438 10.98759937286377 5.052108764648438 M 2.703418731689453 5.466339111328125 C 2.16663932800293 5.469939231872559 1.734418869018555 5.908028602600098 1.738088607788086 6.444808959960938 L 1.738088607788086 6.446549415588379 C 1.732629776000977 6.982378959655762 2.162538528442383 7.421209335327148 2.698379516601562 7.426749229431152 L 2.703418731689453 7.426749229431152 C 3.238149642944336 7.426749229431152 3.66874885559082 6.987889289855957 3.66874885559082 6.446549415588379 C 3.66874885559082 5.90519905090332 3.23567008972168 5.466339111328125 2.703418731689453 5.466339111328125 M 12.22859954833984 5.798588752746582 C 11.98148918151855 5.798588752746582 11.78064918518066 6.001898765563965 11.78064918518066 6.2523193359375 C 11.77922916412354 6.501249313354492 11.9796895980835 6.704289436340332 12.22859954833984 6.706059455871582 C 12.47751903533936 6.704289436340332 12.67797946929932 6.501249313354492 12.67655944824219 6.2523193359375 C 12.67655944824219 6.001898765563965 12.4757194519043 5.798588752746582 12.22859954833984 5.798588752746582 M 15.02540969848633 6.234139442443848 C 14.55679893493652 6.234139442443848 14.17910003662109 6.617629051208496 14.17910003662109 7.092028617858887 C 14.17910003662109 7.563118934631348 14.55762958526611 7.949918746948242 15.02540969848633 7.949918746948242 C 15.49555969238281 7.947189331054688 15.87447929382324 7.56382942199707 15.87172889709473 7.093679428100586 L 15.87172889709473 7.092028617858887 C 15.87172889709473 6.61845874786377 15.4940299987793 6.234139442443848 15.02540969848633 6.234139442443848 M 17.6990795135498 6.624238967895508 C 17.24285888671875 6.624238967895508 16.8734188079834 6.999459266662598 16.8734188079834 7.461468696594238 C 16.8734188079834 7.923468589782715 17.24285888671875 8.298688888549805 17.6990795135498 8.298688888549805 C 18.15528869628906 8.298688888549805 18.52472877502441 7.923468589782715 18.52472877502441 7.461468696594238 C 18.52472877502441 6.999459266662598 18.15528869628906 6.624238967895508 17.6990795135498 6.624238967895508 M 8.456323623657227 6.791934013366699 C 8.071038246154785 6.791902542114258 7.755833625793457 7.101227760314941 7.749909400939941 7.487829208374023 C 7.749909400939941 7.495099067687988 7.749909400939941 7.502288818359375 7.749909400939941 7.509479522705078 C 7.745359420776367 7.901538848876953 8.059449195861816 8.223069190979004 8.451509475708008 8.227699279785156 L 8.456549644470215 8.227608680725098 C 8.849959373474121 8.22437858581543 9.166299819946289 7.902898788452148 9.163189888000488 7.509479522705078 C 9.169169425964355 7.119218826293945 8.857639312744141 6.797999382019043 8.467369079589844 6.792018890380859 C 8.463701248168945 6.791962623596191 8.459979057312012 6.791934967041016 8.456323623657227 6.791934013366699 M 10.40703964233398 7.001118659973145 C 10.06652927398682 7.001118659973145 9.790489196777344 7.277158737182617 9.790489196777344 7.617669105529785 C 9.790489196777344 7.958189010620117 10.06652927398682 8.23422908782959 10.40703964233398 8.23422908782959 C 10.74424934387207 8.23422908782959 11.01780986785889 7.958179473876953 11.01780986785889 7.617669105529785 C 11.01780986785889 7.277158737182617 10.74424934387207 7.001118659973145 10.40703964233398 7.001118659973145 M 6.198599815368652 7.065579414367676 C 5.739079475402832 7.065579414367676 5.367169380187988 7.443279266357422 5.367169380187988 7.908589363098145 C 5.367169380187988 8.373899459838867 5.739079475402832 8.751599311828613 6.198599815368652 8.751599311828613 C 6.658129692077637 8.751599311828613 7.03003978729248 8.373899459838867 7.03003978729248 7.908589363098145 C 7.03003978729248 7.443279266357422 6.658129692077637 7.065579414367676 6.198599815368652 7.065579414367676 M 19.82643890380859 7.449069023132324 C 19.36404991149902 7.452248573303223 18.99178886413574 7.829689025878906 18.99499893188477 8.292078971862793 C 18.99499893188477 8.757389068603516 19.36773872375488 9.135088920593262 19.82643890380859 9.135088920593262 C 20.28595924377441 9.135088920593262 20.65787887573242 8.757389068603516 20.65787887573242 8.292078971862793 C 20.65787887573242 7.82676887512207 20.28595924377441 7.449069023132324 19.82643890380859 7.449069023132324 M 12.01867961883545 7.563948631286621 C 11.7329797744751 7.566179275512695 11.5028190612793 7.798918724060059 11.50377941131592 8.084629058837891 C 11.50708961486816 8.369769096374512 11.73601913452148 8.605319023132324 12.01867961883545 8.605319023132324 C 12.30050945281982 8.605319023132324 12.53357982635498 8.373068809509277 12.53357982635498 8.084629058837891 C 12.53357982635498 7.796189308166504 12.30380916595459 7.563948631286621 12.01867961883545 7.563948631286621 M 3.707590103149414 7.983798980712891 C 3.167638778686523 7.987439155578613 2.732858657836914 8.428098678588867 2.736478805541992 8.968058586120605 L 2.736478805541992 8.969789505004883 C 2.736478805541992 9.516919136047363 3.172859191894531 9.955779075622559 3.707590103149414 9.955779075622559 C 4.245630264282227 9.955779075622559 4.678709030151367 9.513619422912598 4.678709030151367 8.969789505004883 C 4.678709030151367 8.425969123840332 4.242328643798828 7.983798980712891 3.707590103149414 7.983798980712891 M 14.2584400177002 8.565639495849609 C 13.86585998535156 8.565639495849609 13.54931926727295 8.887969017028809 13.54931926727295 9.283859252929688 C 13.54931926727295 9.679738998413086 13.86585998535156 10.0020694732666 14.2584400177002 10.0020694732666 C 14.65102005004883 10.0020694732666 14.96755981445312 9.679738998413086 14.96755981445312 9.283859252929688 C 14.97076988220215 8.890419006347656 14.65443992614746 8.568868637084961 14.26099967956543 8.565639495849609 L 14.2584400177002 8.565639495849609 M 16.91971015930176 8.935158729553223 C 16.53043937683105 8.935158729553223 16.21636962890625 9.255008697509766 16.21636962890625 9.650069236755371 C 16.21131896972656 10.03981876373291 16.52318954467773 10.35985946655273 16.91292953491211 10.36488914489746 L 16.91971015930176 10.36488914489746 C 17.31083869934082 10.36220932006836 17.62574005126953 10.04293918609619 17.62303924560547 9.651799201965332 L 17.62303924560547 9.650069236755371 C 17.62303924560547 9.255008697509766 17.30897903442383 8.935158729553223 16.91971015930176 8.935158729553223 M 8.571429252624512 9.577259063720703 C 8.280508995056152 9.577259063720703 8.042479515075684 9.818589210510254 8.042479515075684 10.11198902130127 C 8.040189743041992 10.405029296875 8.275899887084961 10.64444923400879 8.568949699401855 10.64671897888184 L 8.571429252624512 10.64671897888184 C 8.862349510192871 10.64671897888184 9.10037899017334 10.40538883209229 9.10037899017334 10.11198902130127 C 9.103129386901855 9.819429397583008 8.868199348449707 9.580029487609863 8.575639724731445 9.577259063720703 L 8.571429252624512 9.577259063720703 M 1.133930206298828 9.709488868713379 C 0.5091094970703125 9.709488868713379 0 10.22521877288818 0 10.85912895202637 C 0 11.49303913116455 0.5091094970703125 12.00710868835449 1.133930206298828 12.00710868835449 C 1.758749008178711 12.00710868835449 2.267858505249023 11.49220943450928 2.267858505249023 10.85829925537109 C 2.267858505249023 10.22438907623291 1.758749008178711 9.709488868713379 1.133930206298828 9.709488868713379 M 19.04127883911133 9.756599426269531 C 18.6486988067627 9.756599426269531 18.3321590423584 10.07892894744873 18.3321590423584 10.4772891998291 C 18.32802963256836 10.87118911743164 18.64399909973145 11.19384860992432 19.03788948059082 11.19798946380615 L 19.04127883911133 11.19798946380615 C 19.43385887145996 11.19798946380615 19.75039863586426 10.87565898895264 19.75039863586426 10.4772891998291 C 19.75039863586426 10.07892894744873 19.43385887145996 9.756599426269531 19.04127883911133 9.756599426269531 M 13.20467948913574 10.32182884216309 L 13.20384979248047 10.32191944122314 C 12.86398315429688 10.32038497924805 12.58702945709229 10.59749889373779 12.58679962158203 10.93805885314941 C 12.58656978607178 11.27861881256104 12.86245918273926 11.5548791885376 13.2030200958252 11.55510902404785 L 13.20384979248047 11.55502891540527 C 13.54450607299805 11.55488014221191 13.82066917419434 11.27943992614746 13.82089996337891 10.93887901306152 C 13.82112884521484 10.5983190536499 13.54523944854736 10.32205867767334 13.20467948913574 10.32182884216309 M 6.897809028625488 10.37976932525635 C 6.647379875183105 10.37976932525635 6.444069862365723 10.58638858795166 6.444069862365723 10.83928871154785 C 6.443149566650391 11.09120941162109 6.645899772644043 11.29653930664062 6.897809028625488 11.29880905151367 C 7.148229598999023 11.29881858825684 7.351539611816406 11.09219932556152 7.351539611816406 10.83928871154785 C 7.351539611816406 10.58638858795166 7.148229598999023 10.37976932525635 6.897809028625488 10.37976932525635 M 15.86180877685547 10.69052886962891 C 15.52212905883789 10.69052886962891 15.24855995178223 10.96987915039062 15.24855995178223 11.31286907196045 C 15.24855995178223 11.65585899353027 15.52460956573486 11.93520927429199 15.86180877685547 11.93520927429199 C 16.19900894165039 11.93520927429199 16.47505950927734 11.65585899353027 16.47505950927734 11.31286907196045 C 16.47505950927734 10.96987915039062 16.20148849487305 10.69052886962891 15.86180877685547 10.69052886962891 M 5.372949600219727 10.73349857330322 C 5.160539627075195 10.73349857330322 4.991939544677734 10.9078893661499 4.991939544677734 11.12029933929443 C 4.991939544677734 11.33269882202148 5.160539627075195 11.50708866119385 5.372949600219727 11.50708866119385 C 5.585359573364258 11.50708866119385 5.753959655761719 11.33269882202148 5.753959655761719 11.12029933929443 C 5.753959655761719 10.9078893661499 5.582049369812012 10.73349857330322 5.372949600219727 10.73349857330322 M 8.968549728393555 11.14326858520508 C 8.637139320373535 11.14326858520508 8.368369102478027 11.41175937652588 8.368029594421387 11.74316883087158 C 8.36768913269043 12.07458877563477 8.635899543762207 12.34362888336182 8.96730899810791 12.34430885314941 L 8.969789505004883 12.34430885314941 C 9.301209449768066 12.34362888336182 9.569409370422363 12.07458877563477 9.569069862365723 11.74316883087158 C 9.568729400634766 11.41175937652588 9.299969673156738 11.14326858520508 8.968549728393555 11.14326858520508 M 17.99329948425293 11.54014873504639 C 17.66188049316406 11.54014873504639 17.39410972595215 11.8137092590332 17.39410972595215 12.14760971069336 C 17.39410972595215 12.4815092086792 17.66188049316406 12.75506973266602 17.99329948425293 12.75506973266602 C 18.3247184753418 12.75506973266602 18.59249877929688 12.4815092086792 18.59249877929688 12.14760971069336 C 18.59249877929688 11.8137092590332 18.3247184753418 11.54014873504639 17.99329948425293 11.54014873504639 M 12.01784896850586 11.57733917236328 C 11.72692966461182 11.57733917236328 11.48889923095703 11.81536865234375 11.48889923095703 12.11206912994385 C 11.48843955993652 12.40533924102783 11.72459983825684 12.64407920837402 12.01784896850586 12.64679908752441 C 12.30876922607422 12.64679908752441 12.546799659729 12.40877914428711 12.546799659729 12.11206912994385 C 12.546799659729 11.81536865234375 12.31124973297119 11.57733917236328 12.01784896850586 11.57733917236328 M 6.919289588928223 11.73188877105713 C 6.628539085388184 11.73365879058838 6.394299507141113 11.97082901000977 6.396129608154297 12.2615795135498 L 6.396129608154297 12.26413917541504 C 6.391989707946777 12.55391883850098 6.62355899810791 12.79218864440918 6.913339614868164 12.79630851745605 L 6.919289588928223 12.79639911651611 C 7.210219383239746 12.79639911651611 7.442459106445312 12.55836868286133 7.442459106445312 12.26413917541504 C 7.442459106445312 11.96991920471191 7.2069091796875 11.73188877105713 6.919289588928223 11.73188877105713 M 5.126659393310547 11.83932876586914 C 4.879539489746094 11.83932876586914 4.678709030151367 12.042649269104 4.678709030151367 12.2955493927002 C 4.678709030151367 12.54844856262207 4.879539489746094 12.75176906585693 5.126659393310547 12.75176906585693 C 5.376339912414551 12.74949836730957 5.576899528503418 12.54523849487305 5.574609756469727 12.2955493927002 C 5.574609756469727 12.04512882232666 5.373779296875 11.83932876586914 5.126659393310547 11.83932876586914 M 14.68159961700439 11.94842910766602 C 14.38819885253906 11.94842910766602 14.15264892578125 12.18975925445557 14.15264892578125 12.48315906524658 C 14.14943885803223 12.7752685546875 14.38362884521484 13.01466941833496 14.67572975158691 13.01789855957031 L 14.68159961700439 13.01789855957031 C 14.97499942779541 13.01789855957031 15.21053886413574 12.7765588760376 15.21053886413574 12.48315906524658 C 15.21329879760742 12.19059944152832 14.97836875915527 11.95119857788086 14.68581008911133 11.94842910766602 L 14.68159961700439 11.94842910766602 M 16.81225967407227 12.77077865600586 C 16.51374053955078 12.77077865600586 16.27174949645996 13.01276969909668 16.27174949645996 13.31128883361816 C 16.27174949645996 13.60980892181396 16.51374053955078 13.85180854797363 16.81225967407227 13.85180854797363 C 17.10566902160645 13.85180854797363 17.34700012207031 13.6104793548584 17.34700012207031 13.31128883361816 C 17.34700012207031 13.01210975646973 17.10896873474121 12.77077865600586 16.81225967407227 12.77077865600586 M 9.854129791259766 12.7741584777832 C 9.462989807128906 12.7768497467041 9.148089408874512 13.09610939025879 9.150789260864258 13.48724937438965 L 9.150789260864258 13.48898887634277 C 9.150789260864258 13.8840389251709 9.464849472045898 14.20388889312744 9.854129791259766 14.20388889312744 C 10.24525928497314 14.20120906829834 10.56015968322754 13.88193893432617 10.55745983123779 13.49079895019531 L 10.55745983123779 13.48906898498535 C 10.55745983123779 13.09400939941406 10.24339962005615 12.7741584777832 9.854129791259766 12.7741584777832 M 13.47906875610352 12.78151893615723 C 13.2286491394043 12.78151893615723 13.02532958984375 12.98813915252686 13.02532958984375 13.24103927612305 C 13.02481937408447 13.49278926849365 13.22733879089355 13.69788932800293 13.47906875610352 13.70056915283203 C 13.72948932647705 13.70056915283203 13.93280982971191 13.4939489364624 13.93280982971191 13.24103927612305 C 13.93280982971191 12.98813915252686 13.72948932647705 12.78151893615723 13.47906875610352 12.78151893615723 M 5.141539573669434 13.19062900543213 C 4.85391902923584 13.19062900543213 4.618370056152344 13.42865943908691 4.618370056152344 13.71957969665527 C 4.618370056152344 14.01297950744629 4.85391902923584 14.24851894378662 5.141539573669434 14.24851894378662 C 5.431779861450195 14.24624919891357 5.665619850158691 14.00982856750488 5.664699554443359 13.71957969665527 C 5.664699554443359 13.42616844177246 5.429149627685547 13.19062900543213 5.141539573669434 13.19062900543213 M 7.316829681396484 13.26087951660156 C 6.979629516601562 13.26087951660156 6.706059455871582 13.53691864013672 6.706059455871582 13.87990951538086 C 6.706059455871582 14.22289848327637 6.979629516601562 14.49894905090332 7.316829681396484 14.49894905090332 C 7.65403938293457 14.49894905090332 7.927599906921387 14.22289848327637 7.927599906921387 13.87990951538086 C 7.927599906921387 13.53691864013672 7.65403938293457 13.26087951660156 7.316829681396484 13.26087951660156 M 15.61221885681152 13.62287902832031 C 15.37996959686279 13.62287902832031 15.19071006774902 13.81461906433105 15.19071006774902 14.05016899108887 C 15.19023895263672 14.28409957885742 15.37829971313477 14.47473907470703 15.61221885681152 14.47745895385742 C 15.84445953369141 14.47745895385742 16.03372001647949 14.28570938110352 16.03372001647949 14.05016899108887 C 16.03509902954102 13.81586837768555 15.84650993347168 13.62469863891602 15.61221885681152 13.62287902832031 M 14.47497940063477 14.03941917419434 C 14.26322937011719 14.04073905944824 14.0926399230957 14.21346855163574 14.09396934509277 14.42521858215332 L 14.09396934509277 14.42621898651123 C 14.09033012390137 14.63612937927246 14.25753974914551 14.80925941467285 14.46745872497559 14.81292915344238 L 14.47497940063477 14.81300926208496 C 14.68672943115234 14.81168937683105 14.85731887817383 14.63895893096924 14.85598945617676 14.42720890045166 L 14.85598945617676 14.42621898651123 C 14.85598945617676 14.21132850646973 14.68408012390137 14.03941917419434 14.47497940063477 14.03941917419434 M 11.31533908843994 14.42207908630371 C 10.85431957244873 14.42526912689209 10.48317909240723 14.801589012146 10.48637962341309 15.26260948181152 C 10.48720932006836 15.72543907165527 10.85912990570068 16.10313987731934 11.31533908843994 16.10313987731934 C 11.77636909484863 16.0999584197998 12.14750957489014 15.72362899780273 12.14429950714111 15.26260948181152 C 12.14750957489014 14.801589012146 11.77635955810547 14.42526912689209 11.31533908843994 14.42208862304688 L 11.31533908843994 14.42207908630371 M 5.548159599304199 14.72787857055664 C 5.212209701538086 14.72969913482666 4.941349029541016 15.0035285949707 4.943179130554199 15.33947944641113 L 4.943179130554199 15.34112930297852 C 4.940889358520508 15.67753887176514 5.211749076843262 15.95209884643555 5.548159599304199 15.95437908172607 C 5.884109497070312 15.95255851745605 6.154979705810547 15.67872905731201 6.153149604797363 15.3427791595459 L 6.153149604797363 15.34112930297852 C 6.156359672546387 15.00565910339355 5.887019157409668 14.73110961914062 5.551549911499023 14.72787857055664 L 5.548159599304199 14.72787857055664 M 8.193973541259766 14.92209815979004 C 7.801092147827148 14.92207717895508 7.482318878173828 15.24023532867432 7.481629371643066 15.6332893371582 C 7.480949401855469 16.02679824829102 7.799389839172363 16.34634971618652 8.192899703979492 16.34703826904297 L 8.195379257202148 16.34695816040039 C 8.586239814758301 16.34422874450684 8.901009559631348 16.02538871765137 8.898709297180176 15.63452911376953 C 8.898709297180176 15.23900604248047 8.584485054016113 14.92212867736816 8.193973541259766 14.92209815979004 M 13.46253967285156 15.96098899841309 C 12.93937873840332 15.96098899841309 12.51456928253174 16.3915901184082 12.51456928253174 16.92300987243652 C 12.51456928253174 17.45443916320801 12.93854904174805 17.88503837585449 13.46253967285156 17.88503837585449 C 13.98569965362549 17.88503837585449 14.41050910949707 17.45443916320801 14.41050910949707 16.92300987243652 C 14.41050910949707 16.3915901184082 13.98569965362549 15.96098899841309 13.46253967285156 15.96098899841309 M 6.417471885681152 16.38331985473633 C 6.024027824401855 16.38331985473633 5.705109596252441 16.7022876739502 5.705109596252441 17.09574890136719 C 5.705109596252441 17.48925971984863 6.024109840393066 17.80825805664062 6.417619705200195 17.80825805664062 L 6.417619705200195 17.80816841125488 C 6.808119773864746 17.80458831787109 7.122379302978516 17.48625946044922 7.120949745178223 17.09574890136719 C 7.120949745178223 16.70316886901855 6.806889533996582 16.38331985473633 6.417619705200195 16.38331985473633 C 6.417571067810059 16.38331985473633 6.417519569396973 16.38331985473633 6.417471885681152 16.38331985473633 M 9.668999671936035 16.57257843017578 C 9.21277904510498 16.57257843017578 8.843338966369629 16.94779968261719 8.843338966369629 17.40980911254883 C 8.838799476623535 17.86758804321289 9.206169128417969 18.24239921569824 9.663959503173828 18.24702835083008 L 9.668999671936035 18.24702835083008 C 10.12520980834961 18.24702835083008 10.49464988708496 17.8718090057373 10.49464988708496 17.40980911254883 C 10.49464988708496 16.94779968261719 10.12520980834961 16.57257843017578 9.668999671936035 16.57257843017578 M 16.35108947753906 17.03706932067871 C 15.72296905517578 17.03706932067871 15.2138500213623 17.55443954467773 15.2138500213623 18.19165992736816 C 15.2138500213623 18.82887840270996 15.72295951843262 19.34624862670898 16.35108947753906 19.34624862670898 C 16.97920989990234 19.34624862670898 17.48832893371582 18.82887840270996 17.48832893371582 18.19165992736816 C 17.48832893371582 17.55443954467773 16.97920989990234 17.03706932067871 16.35108947753906 17.03706932067871 M 7.894539833068848 18.03214836120605 C 7.438329696655273 18.03214836120605 7.071369171142578 18.40736961364746 7.071369171142578 18.86688995361328 C 7.071369171142578 19.32641983032227 7.44080924987793 19.70163917541504 7.894539833068848 19.70163917541504 C 8.350759506225586 19.70163917541504 8.717719078063965 19.32641983032227 8.717719078063965 18.86688995361328 C 8.717719078063965 18.40488815307617 8.348278999328613 18.03214836120605 7.894539833068848 18.03214836120605 M 11.81205940246582 18.05776977539062 C 11.28310966491699 18.05776977539062 10.85581970214844 18.49084854125977 10.85581970214844 19.02888870239258 C 10.85169982910156 19.56107902526855 11.2797794342041 19.99585914611816 11.81197929382324 20 L 11.81205940246582 20 C 12.34100914001465 20 12.7682991027832 19.56691932678223 12.7682991027832 19.02888870239258 C 12.7682991027832 18.49414825439453 12.34100914001465 18.05776977539062 11.81205940246582 18.05776977539062 M 15.0224494934082 -0.5000019073486328 L 15.02375984191895 -0.5000019073486328 C 15.92971992492676 -0.5000019073486328 16.66677856445312 0.2444686889648438 16.66677856445312 1.159549713134766 C 16.66677856445312 2.075088500976562 15.92971992492676 2.819929122924805 15.02375984191895 2.819929122924805 C 14.11779975891113 2.819929122924805 13.38073921203613 2.076568603515625 13.38073921203613 1.162858963012695 C 13.38073921203613 0.2507095336914062 14.11661911010742 -0.4952507019042969 15.02113914489746 -0.4999904632568359 L 15.0224494934082 -0.5000019073486328 Z M 7.083759307861328 1.484378814697266 C 7.545215606689453 1.484378814697266 7.947099685668945 1.746131896972656 8.150827407836914 2.13005256652832 C 8.179596900939941 2.092512130737305 8.210916519165039 2.056556701660156 8.244729042053223 2.022378921508789 C 8.454019546508789 1.810819625854492 8.733159065246582 1.693429946899414 9.030749320983887 1.691839218139648 L 9.033429145812988 1.691829681396484 C 9.510807991027832 1.691829681396484 9.91880989074707 1.996767044067383 10.07558059692383 2.423465728759766 C 10.23602962493896 2.318342208862305 10.42776966094971 2.257139205932617 10.63349914550781 2.257139205932617 C 11.11073398590088 2.257139205932617 11.5120792388916 2.590089797973633 11.61990833282471 3.037168502807617 C 11.69741249084473 3.016782760620117 11.77870273590088 3.005929946899414 11.86246967315674 3.005929946899414 C 12.36905097961426 3.005929946899414 12.78520011901855 3.402950286865234 12.81968975067139 3.903915405273438 C 13.03784561157227 3.918657302856445 13.2372932434082 4.010213851928711 13.38946914672852 4.165048599243164 C 13.55337429046631 4.33183765411377 13.64292240142822 4.55219554901123 13.64186382293701 4.785883903503418 C 13.64261817932129 5.01988410949707 13.55257415771484 5.240324020385742 13.38810920715332 5.406949043273926 C 13.26910591125488 5.52751636505127 13.12141227722168 5.609489440917969 12.9601936340332 5.64646053314209 C 13.09529685974121 5.811315536499023 13.17655944824219 6.022466659545898 13.17655944824219 6.2523193359375 C 13.17906188964844 6.689776420593262 12.88059616088867 7.062524795532227 12.47470569610596 7.172905921936035 C 12.80594539642334 7.341142654418945 13.03357887268066 7.686643600463867 13.03357887268066 8.084629058837891 C 13.03357887268066 8.647439002990723 12.5782995223999 9.105319023132324 12.01867961883545 9.105319023132324 C 11.60800647735596 9.105319023132324 11.25127124786377 8.85433292388916 11.09211540222168 8.496000289916992 C 10.90325164794922 8.645188331604004 10.66531753540039 8.73422908782959 10.40703964233398 8.73422908782959 C 10.00330638885498 8.73422908782959 9.648956298828125 8.518866539001465 9.452822685241699 8.196957588195801 C 9.236258506774902 8.51425838470459 8.872989654541016 8.724207878112793 8.460649490356445 8.727588653564453 L 8.453019142150879 8.727748870849609 L 8.445609092712402 8.727668762207031 C 8.053788185119629 8.723040580749512 7.707042694091797 8.531658172607422 7.489190101623535 8.239340782165527 C 7.342757225036621 8.820487976074219 6.819660186767578 9.251599311828613 6.198599815368652 9.251599311828613 C 5.78071117401123 9.251599311828613 5.407181739807129 9.056411743164062 5.162899017333984 8.751654624938965 C 5.173308372497559 8.822844505310059 5.178709030151367 8.895722389221191 5.178709030151367 8.969789505004883 C 5.178709030151367 9.789169311523438 4.518770217895508 10.45577907562256 3.707590103149414 10.45577907562256 C 2.896419525146484 10.45577907562256 2.236478805541992 9.789169311523438 2.236478805541992 8.969789505004883 C 2.233760833740234 8.56425666809082 2.39613151550293 8.195018768310547 2.660696029663086 7.926028251647949 C 1.866630554199219 7.90046501159668 1.232172012329102 7.243412971496582 1.238082885742188 6.44558048248291 C 1.235668182373047 6.054450035095215 1.386245727539062 5.68412971496582 1.662149429321289 5.404479026794434 C 1.938289642333984 5.124579429626465 2.306888580322266 4.968989372253418 2.700069427490234 4.966348648071289 L 2.703418731689453 4.966339111328125 C 3.175666809082031 4.966339111328125 3.596429824829102 5.193145751953125 3.864585876464844 5.544618606567383 C 3.858623504638672 5.493196487426758 3.855548858642578 5.440839767456055 3.855548858642578 5.387828826904297 C 3.855548858642578 4.958601951599121 4.056545257568359 4.575870513916016 4.368616104125977 4.330348014831543 C 3.875677108764648 4.142949104309082 3.524129867553711 3.662191390991211 3.524129867553711 3.100128173828125 C 3.524129867553711 2.375539779663086 4.108438491821289 1.786048889160156 4.82664966583252 1.786048889160156 C 5.282412528991699 1.786048889160156 5.684268951416016 2.023460388183594 5.917088508605957 2.382114410400391 C 6.057068824768066 1.865346908569336 6.527082443237305 1.484378814697266 7.083759307861328 1.484378814697266 Z M 9.033429145812988 3.929889678955078 C 8.629392623901367 3.926176071166992 8.277170181274414 3.709295272827148 8.082832336425781 3.388069152832031 C 7.968753814697266 3.556316375732422 7.81398868560791 3.694377899169922 7.632869720458984 3.787776947021484 C 8.016118049621582 3.846906661987305 8.340666770935059 4.087977409362793 8.516695022583008 4.420454025268555 C 8.718711853027344 4.154017448425293 9.037840843200684 3.981178283691406 9.396259307861328 3.981178283691406 C 9.873605728149414 3.981178283691406 10.28123950958252 4.287744522094727 10.43539714813232 4.715685844421387 C 10.59451675415039 4.612239837646484 10.78419017791748 4.552108764648438 10.98759937286377 4.552108764648438 C 11.02613067626953 4.552108764648438 11.06421661376953 4.554272651672363 11.10164928436279 4.558474540710449 C 11.03164100646973 4.467047691345215 10.97760677337646 4.36275577545166 10.94367694854736 4.249759674072266 C 10.84586143493652 4.281408309936523 10.74163913726807 4.29849910736084 10.63349914550781 4.29849910736084 C 10.22180080413818 4.29849910736084 9.866262435913086 4.05351448059082 9.705015182495117 3.701648712158203 C 9.518373489379883 3.844808578491211 9.285576820373535 3.929889678955078 9.033429145812988 3.929889678955078 Z M 6.89989185333252 3.906740188598633 C 6.567883491516113 3.855484008789062 6.279918670654297 3.667707443237305 6.094429969787598 3.402223587036133 C 6.026350021362305 3.69306755065918 5.862205505371094 3.946907043457031 5.637794494628906 4.127601623535156 C 5.905735015869141 4.225955963134766 6.133688926696777 4.408900260925293 6.289816856384277 4.644280433654785 C 6.384740829467773 4.323320388793945 6.608194351196289 4.057117462158203 6.89989185333252 3.906740188598633 Z M 11.86602973937988 4.936538696289062 C 11.83696556091309 4.936539649963379 11.80825233459473 4.935254096984863 11.77985000610352 4.932730674743652 C 11.87269115447998 5.048192977905273 11.94084167480469 5.184248924255371 11.97626209259033 5.332877159118652 C 12.00335788726807 5.325345039367676 12.03089714050293 5.319003105163574 12.05890083312988 5.313892364501953 C 11.97554397583008 5.20194149017334 11.92077732086182 5.07288646697998 11.89817237854004 4.935778617858887 C 11.88748645782471 4.93620777130127 11.87680053710938 4.93646240234375 11.86602973937988 4.936538696289062 Z M 9.398279190063477 6.207669258117676 L 9.394599914550781 6.207669258117676 C 9.094509124755859 6.205259323120117 8.817129135131836 6.087709426879883 8.609498977661133 5.876668930053711 C 8.548213958740234 5.814376831054688 8.495182991027832 5.746159553527832 8.450920104980469 5.673304557800293 C 8.23334789276123 5.996977806091309 7.865437507629395 6.210148811340332 7.449069023132324 6.210148811340332 C 7.048426628112793 6.206465721130371 6.694393157958984 6.009946823120117 6.474596977233887 5.710330963134766 C 6.331122398376465 6.294275283813477 5.80713939666748 6.728359222412109 5.18450927734375 6.728359222412109 C 4.76900577545166 6.728359222412109 4.397394180297852 6.534976959228516 4.153514862060547 6.23279857635498 C 4.163555145263672 6.302613258361816 4.16874885559082 6.373967170715332 4.16874885559082 6.446549415588379 C 4.16874885559082 6.850409507751465 4.007818222045898 7.217000007629395 3.747318267822266 7.484333038330078 C 4.207141876220703 7.496695518493652 4.615001678466797 7.723231315612793 4.876562118530273 8.068569183349609 C 4.870365142822266 8.016120910644531 4.867169380187988 7.962692260742188 4.867169380187988 7.908589363098145 C 4.867169380187988 7.168048858642578 5.464449882507324 6.565579414367676 6.198599815368652 6.565579414367676 C 6.656060218811035 6.565579414367676 7.060383796691895 6.799509048461914 7.300168991088867 7.154990196228027 C 7.449531555175781 6.657347679138184 7.913816452026367 6.291938781738281 8.456249237060547 6.291938781738281 L 8.475539207458496 6.292089462280273 C 8.797319412231445 6.297019004821777 9.09839916229248 6.427159309387207 9.322799682617188 6.658549308776855 C 9.403717041015625 6.741983413696289 9.471174240112305 6.834983825683594 9.524123191833496 6.934909820556641 C 9.728534698486328 6.671157836914062 10.04828643798828 6.501118659973145 10.40703964233398 6.501118659973145 C 10.49399185180664 6.501118659973145 10.57866382598877 6.51121997833252 10.65991401672363 6.530304908752441 C 10.39241790771484 6.438864707946777 10.1747932434082 6.238772392272949 10.05996322631836 5.983051300048828 C 9.876147270202637 6.122160911560059 9.647819519042969 6.205649375915527 9.400299072265625 6.207649230957031 L 9.398279190063477 6.207669258117676 Z M 11.78202056884766 7.092761993408203 C 11.56207370758057 6.974150657653809 11.39394664764404 6.771480560302734 11.32076454162598 6.528416633605957 C 11.21710586547852 6.564511299133301 11.10585975646973 6.584259986877441 10.9901294708252 6.584548950195312 L 10.98506927490234 6.584548950195312 C 10.90753173828125 6.584355354309082 10.83199214935303 6.575423240661621 10.75941371917725 6.558694839477539 C 11.08098983764648 6.667088508605957 11.33736610412598 6.919625282287598 11.45226097106934 7.239580154418945 C 11.55122470855713 7.172229766845703 11.66250801086426 7.12191104888916 11.78202056884766 7.092761993408203 Z M 15.36096954345703 2.869638442993164 C 16.03427505493164 2.869638442993164 16.6031551361084 3.329988479614258 16.77537536621094 3.955442428588867 C 17.03463172912598 3.537384033203125 17.49476051330566 3.258829116821289 18.01809883117676 3.258829116821289 C 18.82608985900879 3.258829116821289 19.48342895507812 3.922849655151367 19.48342895507812 4.739039421081543 C 19.48342895507812 5.503469467163086 18.90684509277344 6.134407043457031 18.16989707946777 6.211355209350586 C 18.60149002075195 6.377326011657715 18.92576217651367 6.764512062072754 19.00567817687988 7.234801292419434 C 19.23782157897949 7.051566123962402 19.52251434326172 6.951148986816406 19.82299995422363 6.949079513549805 L 19.82643890380859 6.949069023132324 C 20.56060028076172 6.949069023132324 21.15787887573242 7.551539421081543 21.15787887573242 8.292078971862793 C 21.15787887573242 9.003239631652832 20.60698509216309 9.587072372436523 19.91307830810547 9.632277488708496 C 20.12188529968262 9.851761817932129 20.25039863586426 10.14965915679932 20.25039863586426 10.4772891998291 C 20.25039863586426 11.15038871765137 19.70798873901367 11.69798946380615 19.04127883911133 11.69798946380615 L 19.03263854980469 11.69795894622803 C 19.02083969116211 11.69783496856689 19.00911521911621 11.69754314422607 18.99740028381348 11.69708347320557 C 19.05851173400879 11.83479404449463 19.09249877929688 11.98726654052734 19.09249877929688 12.14760971069336 C 19.09249877929688 12.75826835632324 18.59939956665039 13.25506973266602 17.99329948425293 13.25506973266602 C 17.94298934936523 13.25506973266602 17.89346122741699 13.25164604187012 17.84492492675781 13.24501991271973 C 17.8463020324707 13.26694679260254 17.84700012207031 13.28901672363281 17.84700012207031 13.31128883361816 C 17.84700012207031 13.88502883911133 17.38282012939453 14.35180854797363 16.81225967407227 14.35180854797363 C 16.70321273803711 14.35180854797363 16.5980281829834 14.33494567871094 16.49917984008789 14.30369281768799 C 16.38986968994141 14.69133949279785 16.03362655639648 14.97745895385742 15.61221885681152 14.97745895385742 L 15.60640907287598 14.9774284362793 C 15.47096920013428 14.97585296630859 15.34232997894287 14.94484710693359 15.22660255432129 14.89058971405029 C 15.19146537780762 14.9477710723877 15.14950752258301 15.00138473510742 15.10113906860352 15.05035972595215 C 14.93532943725586 15.21825885772705 14.71405982971191 15.3115291595459 14.47809982299805 15.3129997253418 L 14.47387886047363 15.31302833557129 L 14.46213912963867 15.31289863586426 C 13.97575569152832 15.30440807342529 13.58918380737305 14.90639686584473 13.59395980834961 14.42419528961182 C 13.59363651275635 14.34398174285889 13.60413455963135 14.26514434814453 13.62478446960449 14.1893892288208 C 13.57727241516113 14.19674682617188 13.52859687805176 14.20056915283203 13.47906875610352 14.20056915283203 L 13.4737491607666 14.20053863525391 C 12.94972991943359 14.19495964050293 12.52426910400391 13.76407909393311 12.52532958984375 13.24002838134766 C 12.52532958984375 13.15458488464355 12.53654003143311 13.07166385650635 12.55754566192627 12.99274158477783 C 12.40055274963379 13.09038543701172 12.21561527252197 13.14679908752441 12.01784896850586 13.14679908752441 C 11.44751930236816 13.14152908325195 10.98800945281982 12.67700958251953 10.98889923095703 12.11128902435303 C 10.98889923095703 11.54151916503906 11.45048904418945 11.07733917236328 12.01784896850586 11.07733917236328 C 12.04402923583984 11.07733917236328 12.0699634552002 11.07832622528076 12.09565734863281 11.08026790618896 C 12.08975124359131 11.03336334228516 12.08676719665527 10.98576164245605 12.08679962158203 10.93771934509277 C 12.08721256256104 10.33257007598877 12.5717887878418 9.838385581970215 13.17309188842773 9.822320938110352 L 13.17392253875732 9.822231292724609 C 13.09417247772217 9.659809112548828 13.04931926727295 9.47700309753418 13.04931926727295 9.283859252929688 C 13.04931926727295 8.666535377502441 13.50742149353027 8.154985427856445 14.09910774230957 8.076170921325684 C 13.84037017822266 7.828600883483887 13.67910003662109 7.47896671295166 13.67910003662109 7.092028617858887 C 13.67910003662109 6.400459289550781 14.19434928894043 5.827975273132324 14.85799694061279 5.744583129882812 C 14.29477500915527 5.536246299743652 13.89315986633301 4.990758895874023 13.89315986633301 4.352329254150391 C 13.89315986633301 3.534769058227539 14.55161952972412 2.869638442993164 15.36096954345703 2.869638442993164 Z M 17.53050994873047 6.134998321533203 C 17.0837345123291 5.97528076171875 16.73573875427246 5.602487564086914 16.60687446594238 5.138158798217773 C 16.3730525970459 5.512813568115234 15.97504234313965 5.776434898376465 15.51325416564941 5.826370239257812 C 16.01520538330078 6.023841857910156 16.37172889709473 6.516718864440918 16.37172889709473 7.092028617858887 C 16.37382888793945 7.451699256896973 16.23524856567383 7.791858673095703 15.9815092086792 8.048568725585938 C 15.75294494628906 8.279817581176758 15.45556640625 8.418421745300293 15.13497734069824 8.445168495178223 C 15.34345245361328 8.664944648742676 15.47019958496094 8.962185859680176 15.46753883361816 9.287939071655273 C 15.46755981445312 9.955578804016113 14.92514991760254 10.5020694732666 14.2584400177002 10.5020694732666 C 14.24981307983398 10.5020694732666 14.24122142791748 10.50197792053223 14.23263740539551 10.50179576873779 C 14.29062843322754 10.63831233978271 14.32100200653076 10.78642463684082 14.32089996337891 10.93921947479248 C 14.32070922851562 11.21706962585449 14.2184476852417 11.47153949737549 14.0496940612793 11.66706657409668 C 14.22420597076416 11.53011131286621 14.44359493255615 11.44842910766602 14.68159961700439 11.44842910766602 L 14.68581008911133 11.44842910766602 C 14.70974540710449 11.448655128479 14.73349857330322 11.44968795776367 14.75700759887695 11.45149803161621 C 14.75143527984619 11.40608024597168 14.74855995178223 11.35978221893311 14.74855995178223 11.31286907196045 C 14.74855995178223 10.70163917541504 15.23568820953369 10.20296192169189 15.83912467956543 10.19075870513916 C 15.7568531036377 10.02358055114746 15.71435737609863 9.838235855102539 15.71637439727783 9.64659309387207 C 15.71810150146484 9.019739151000977 16.19245529174805 8.503056526184082 16.79788970947266 8.441337585449219 C 16.53696441650391 8.196967124938965 16.3734188079834 7.848100662231445 16.3734188079834 7.461468696594238 C 16.3734188079834 6.78172492980957 16.87885665893555 6.218804359436035 17.53050994873047 6.134998321533203 Z M 18.90839195251465 9.263921737670898 C 18.70468139648438 9.068028450012207 18.56224060058594 8.807777404785156 18.51349067687988 8.515909194946289 C 18.30735015869141 8.678278923034668 18.05254745483398 8.780585289001465 17.77522277832031 8.7965087890625 C 17.99017143249512 9.016082763671875 18.12303924560547 9.317694664001465 18.12303924560547 9.650069236755371 C 18.12311935424805 9.661472320556641 18.12303733825684 9.672869682312012 18.12280082702637 9.68422794342041 C 18.31760215759277 9.45460033416748 18.59515190124512 9.298633575439453 18.90839195251465 9.263921737670898 Z M 17.83216094970703 10.4751148223877 C 17.83218002319336 10.46423244476318 17.83234024047852 10.45337867736816 17.8326416015625 10.44256401062012 C 17.81424903869629 10.46397972106934 17.7950553894043 10.48483562469482 17.77503967285156 10.50512886047363 C 17.54840850830078 10.73489952087402 17.24585914611816 10.86266899108887 16.92313957214355 10.86487865447998 L 16.90969848632812 10.86488914489746 L 16.90647888183594 10.86484909057617 C 16.89840126037598 10.86474514007568 16.89030838012695 10.8645601272583 16.88225746154785 10.86429882049561 C 16.94194221496582 11.00175762176514 16.97505950927734 11.15347003936768 16.97505950927734 11.31286907196045 C 16.97505950927734 11.93172931671143 16.47565841674805 12.43520927429199 15.86180877685547 12.43520927429199 C 15.81003093719482 12.43520927429199 15.75911808013916 12.43163299560547 15.70919990539551 12.42470169067383 C 15.71027374267578 12.44560813903809 15.71071910858154 12.46667098999023 15.71051979064941 12.48787879943848 C 15.71052742004395 12.73087501525879 15.62540245056152 12.95512962341309 15.48333358764648 13.13191795349121 C 15.52545547485352 13.12596130371094 15.56849098205566 13.12287902832031 15.61221885681152 13.12287902832031 L 15.61609935760498 13.12289905548096 C 15.67409801483154 13.1233491897583 15.73086261749268 13.12917327880859 15.78586387634277 13.13988208770752 C 15.86783790588379 12.64741611480713 16.29689407348633 12.27077865600586 16.81225967407227 12.27077865600586 C 16.84224319458008 12.27077865600586 16.87194633483887 12.27206993103027 16.90129089355469 12.27459526062012 C 16.89654731750488 12.23291778564453 16.89410972595215 12.1905460357666 16.89410972595215 12.14760971069336 C 16.89410972595215 11.5457820892334 17.37301254272461 11.05454635620117 17.96704483032227 11.04046058654785 C 17.87937927246094 10.87105751037598 17.83053016662598 10.6786584854126 17.83216094970703 10.4751148223877 Z M 13.6686897277832 12.30056762695312 C 13.70146560668945 12.11624526977539 13.78297519683838 11.94860935211182 13.89923858642578 11.81178951263428 C 13.71492767333984 11.95876216888428 13.483229637146 12.04872894287109 13.2312126159668 12.05471134185791 L 13.20267963409424 12.05510902404785 C 13.14930438995361 12.05507278442383 13.09652709960938 12.05132102966309 13.04459571838379 12.04396915435791 C 13.04605674743652 12.06648254394531 13.046799659729 12.08918952941895 13.046799659729 12.11206912994385 C 13.046799659729 12.21542549133301 13.03166007995605 12.31526184082031 13.00348091125488 12.40950965881348 C 13.14355850219727 12.32813262939453 13.30599784851074 12.28151893615723 13.47906875610352 12.28151893615723 C 13.54397106170654 12.28151893615723 13.60739517211914 12.28807830810547 13.6686897277832 12.30056762695312 Z M 14.68159961700439 13.51789855957031 L 14.67019939422607 13.5178689956665 C 14.57768058776855 13.51684665679932 14.48806762695312 13.50356674194336 14.4029712677002 13.47961616516113 C 14.39739322662354 13.50146293640137 14.39106178283691 13.52304172515869 14.38401794433594 13.54426288604736 C 14.41301536560059 13.54123497009277 14.44232177734375 13.53961372375488 14.47185897827148 13.5394287109375 L 14.47497940063477 13.53941917419434 C 14.59141540527344 13.53941917419434 14.70267486572266 13.56228446960449 14.80451107025146 13.6037712097168 C 14.82421684265137 13.56782627105713 14.84624099731445 13.53330612182617 14.87035751342773 13.50045585632324 C 14.80916404724121 13.51190185546875 14.74604415893555 13.51789855957031 14.68159961700439 13.51789855957031 Z M 8.571429252624512 9.077259063720703 L 8.575639724731445 9.077259063720703 C 9.148129463195801 9.082658767700195 9.60568904876709 9.548929214477539 9.600358963012695 10.11668872833252 C 9.600367546081543 10.34587478637695 9.524666786193848 10.55835723876953 9.396865844726562 10.73009872436523 C 9.791131973266602 10.89738082885742 10.06860446929932 11.2882604598999 10.06906986236572 11.7426586151123 C 10.06926727294922 11.93620681762695 10.01919651031494 12.11830902099609 9.931185722351074 12.27662181854248 C 10.55894565582275 12.31686210632324 11.05745983123779 12.84529590606689 11.05745983123779 13.48906898498535 C 11.05862140655518 13.65705871582031 11.02533435821533 13.82044982910156 10.96085071563721 13.9709939956665 C 11.07373714447021 13.93955993652344 11.1915454864502 13.92292213439941 11.31187915802002 13.92208862304688 L 11.31533908843994 13.92206954956055 L 11.31879901885986 13.92208862304688 C 11.67531967163086 13.92455863952637 12.00954914093018 14.06571960449219 12.2598991394043 14.31955909729004 C 12.50944995880127 14.57258796691895 12.64588451385498 14.90736389160156 12.64430904388428 15.26260948181152 C 12.64514636993408 15.45133590698242 12.60703563690186 15.63426208496094 12.5337028503418 15.80225276947021 C 12.78529644012451 15.58931541442871 13.10933685302734 15.46098899841309 13.46253967285156 15.46098899841309 C 14.26095008850098 15.46098899841309 14.91050910949707 16.11684799194336 14.91050910949707 16.92300987243652 C 14.91050910949707 17.72917938232422 14.26095008850098 18.38503837585449 13.46253967285156 18.38503837585449 C 13.33647155761719 18.38503837585449 13.21415138244629 18.36869621276855 13.09747791290283 18.33798217773438 C 13.20645523071289 18.5440845489502 13.2682991027832 18.77935600280762 13.2682991027832 19.02888870239258 C 13.2682991027832 19.84005928039551 12.61502933502197 20.5 11.81205940246582 20.5 C 11.00109958648682 20.49370956420898 10.34958934783936 19.83203887939453 10.3558292388916 19.0250186920166 C 10.35582733154297 18.83378601074219 10.39247417449951 18.65083885192871 10.45909118652344 18.48295593261719 C 10.23830509185791 18.64877510070801 9.96479606628418 18.74702835083008 9.668999671936035 18.74702835083008 L 9.658899307250977 18.74699974060059 C 9.498140335083008 18.7453727722168 9.344255447387695 18.71512031555176 9.202023506164551 18.66113662719727 C 9.21235179901123 18.72820281982422 9.217719078063965 18.79694747924805 9.217719078063965 18.86688995361328 C 9.217719078063965 19.60286903381348 8.624139785766602 20.20163917541504 7.894539833068848 20.20163917541504 C 7.164939880371094 20.20163917541504 6.571369171142578 19.60286903381348 6.571369171142578 18.86688995361328 C 6.571369171142578 18.65266227722168 6.621669769287109 18.45004272460938 6.710967063903809 18.27045059204102 C 6.618366241455078 18.29422760009766 6.521383285522461 18.30817031860352 6.421848297119141 18.30814933776855 C 6.093592643737793 18.30814933776855 5.789239883422852 18.18207931518555 5.560259819030762 17.95312881469727 C 5.331239700317383 17.72412872314453 5.205109596252441 17.41963958740234 5.205109596252441 17.09574890136719 C 5.205109596252441 16.85581970214844 5.27515697479248 16.6319465637207 5.395876884460449 16.44350624084473 C 5.156306266784668 16.40988731384277 4.935479164123535 16.2993278503418 4.762709617614746 16.12419891357422 C 4.554649353027344 15.91328907012939 4.441169738769531 15.63397884368896 4.44318962097168 15.33772850036621 C 4.441778182983398 15.08361053466797 4.528020858764648 14.83908176422119 4.688036918640137 14.64111518859863 C 4.350118637084961 14.47242736816406 4.118370056152344 14.12269401550293 4.118370056152344 13.71957969665527 C 4.118370056152344 13.42062759399414 4.245790481567383 13.15105438232422 4.448902130126953 12.96288967132568 C 4.281595230102539 12.79046058654785 4.178709030151367 12.55489921569824 4.178709030151367 12.2955493927002 C 4.178709030151367 11.97218990325928 4.338672637939453 11.68578815460205 4.58294677734375 11.51264476776123 C 4.524698257446289 11.39429759979248 4.491939544677734 11.26107788085938 4.491939544677734 11.12029933929443 C 4.491939544677734 10.63131904602051 4.88715934753418 10.23349857330322 5.372949600219727 10.23349857330322 C 5.620321273803711 10.23349857330322 5.844213485717773 10.33665943145752 6.004389762878418 10.50247859954834 C 6.140013694763184 10.13944053649902 6.489333152770996 9.879769325256348 6.897809028625488 9.879769325256348 C 7.146182060241699 9.879769325256348 7.372708320617676 9.975805282592773 7.542596817016602 10.13287734985352 C 7.54246711730957 10.12462329864502 7.542434692382812 10.11636257171631 7.542499542236328 10.108078956604 C 7.542479515075684 9.541439056396484 8.004069328308105 9.077259063720703 8.571429252624512 9.077259063720703 Z M 8.120864868164062 11.0428295135498 C 8.022541999816895 10.99476146697998 7.931663513183594 10.93067932128906 7.851457595825195 10.85194683074951 C 7.848269462585449 11.09849548339844 7.752196311950684 11.32291984558105 7.59689998626709 11.49132823944092 C 7.723176002502441 11.60414791107178 7.821688652038574 11.74789428710938 7.88067626953125 11.91069602966309 C 7.872286796569824 11.85587596893311 7.867971420288086 11.7997875213623 7.868029594421387 11.7426586151123 C 7.868301391601562 11.4769983291626 7.963234901428223 11.23308181762695 8.120864868164062 11.0428295135498 Z M 8.837611198425293 12.83612442016602 C 8.416111946105957 12.78481388092041 8.06868839263916 12.49730014801025 7.931306838989258 12.11154747009277 C 7.938652038574219 12.16135025024414 7.942459106445312 12.21230697631836 7.942459106445312 12.26413917541504 C 7.942459106445312 12.48300552368164 7.874593734741211 12.68618202209473 7.758978843688965 12.85337257385254 C 8.152091979980469 13.02587699890137 8.427599906921387 13.42108345031738 8.427599906921387 13.87990951538086 C 8.427599906921387 14.07789421081543 8.376308441162109 14.26401710510254 8.286396980285645 14.4255313873291 C 8.907565116882324 14.47255706787109 9.398709297180176 14.9968376159668 9.398709297180176 15.63452911376953 C 9.399740219116211 15.8091869354248 9.363080978393555 15.9757251739502 9.29636287689209 16.12632179260254 C 9.414628028869629 16.09134864807129 9.539661407470703 16.07257843017578 9.668999671936035 16.07257843017578 C 10.39996910095215 16.07257843017578 10.99464988708496 16.67245864868164 10.99464988708496 17.40980911254883 C 10.99464988708496 17.57222938537598 10.96580696105957 17.72794342041016 10.91299629211426 17.8720817565918 C 11.16073799133301 17.67539978027344 11.47306156158447 17.55776977539062 11.81205940246582 17.55776977539062 C 11.94002342224121 17.55776977539062 12.06416893005371 17.57452583312988 12.18249130249023 17.60598754882812 C 12.07533359527588 17.40203475952148 12.01456928253174 17.16952514648438 12.01456928253174 16.92300987243652 C 12.01456928253174 16.70242691040039 12.0631799697876 16.49314308166504 12.15018558502197 16.30542373657227 C 11.91568470001221 16.49625778198242 11.62548732757568 16.60101318359375 11.3187894821167 16.60312843322754 C 10.58386898040771 16.60313987731934 9.987709045410156 16.00217819213867 9.986379623413086 15.26350975036621 C 9.984940528869629 15.05652713775635 10.03103256225586 14.85561847686768 10.11961460113525 14.67370796203613 C 10.03459548950195 14.69304370880127 9.946846961975098 14.70326805114746 9.857559204101562 14.70387840270996 C 9.190608978271484 14.70388889312744 8.650789260864258 14.1588888168335 8.650789260864258 13.48898887634277 C 8.649171829223633 13.25502300262451 8.714388847351074 13.02994251251221 8.837611198425293 12.83612442016602 Z M 6.449161529541016 13.18197250366211 C 6.352736473083496 13.13188171386719 6.263914108276367 13.06603336334229 6.185959815979004 12.98581886291504 C 6.102853775024414 12.90031337738037 6.03641414642334 12.80291748046875 5.988223075866699 12.69761657714844 C 5.946170806884766 12.78867340087891 5.88933277130127 12.87355995178223 5.818883895874023 12.94900894165039 C 6.030839920043945 13.13766860961914 6.164699554443359 13.41321754455566 6.164699554443359 13.71957969665527 C 6.165400505065918 13.94091606140137 6.094980239868164 14.14673900604248 5.974908828735352 14.31525802612305 C 6.376792907714844 14.48490810394287 6.656411170959473 14.88286590576172 6.653152465820312 15.34316635131836 C 6.6536865234375 15.53663444519043 6.60491943359375 15.7227201461792 6.512723922729492 15.8870677947998 C 6.714336395263672 15.90301895141602 6.902154922485352 15.96928215026855 7.063775062561035 16.07332801818848 C 7.010509490966797 15.93657684326172 6.981362342834473 15.78781700134277 6.981629371643066 15.6324291229248 C 6.982043266296387 15.3961706161499 7.050477981567383 15.17548751831055 7.168307304382324 14.98898601531982 C 6.625797271728516 14.91563034057617 6.206059455871582 14.4462194442749 6.206059455871582 13.87990951538086 C 6.206059455871582 13.61616802215576 6.297084808349609 13.373459815979 6.449161529541016 13.18197250366211 Z M 8.192019462585449 16.84703826904297 C 7.95130729675293 16.84661865234375 7.72686767578125 16.77570915222168 7.538249969482422 16.65392684936523 C 7.591638565063477 16.7909049987793 7.620949745178223 16.93991661071777 7.620949745178223 17.09574890136719 C 7.621590614318848 17.27032089233398 7.584628105163574 17.43674468994141 7.517667770385742 17.58728981018066 C 7.637149810791016 17.55142021179199 7.763662338256836 17.53214836120605 7.894539833068848 17.53214836120605 C 8.057568550109863 17.53214836120605 8.213762283325195 17.5620288848877 8.358102798461914 17.61667060852051 C 8.347710609436035 17.54763793945312 8.342645645141602 17.47684478759766 8.343358993530273 17.40485000610352 C 8.343353271484375 17.19193649291992 8.393611907958984 16.99021530151367 8.482864379882812 16.81118011474609 C 8.393987655639648 16.83335494995117 8.301183700561523 16.84567451477051 8.205774307250977 16.84688186645508 L 8.192019462585449 16.84703826904297 Z M 1.133930206298828 9.209488868713379 C 2.034879684448242 9.209488868713379 2.767858505249023 9.949138641357422 2.767858505249023 10.85829925537109 C 2.767858505249023 11.76745891571045 2.034879684448242 12.50710868835449 1.133930206298828 12.50710868835449 C 0.2329788208007812 12.50710868835449 -0.5 11.76782894134521 -0.5 10.85912895202637 C -0.5 9.949519157409668 0.2329788208007812 9.209488868713379 1.133930206298828 9.209488868713379 Z M 16.35108947753906 16.53706932067871 C 17.25387001037598 16.53706932067871 17.98832893371582 17.27931976318359 17.98832893371582 18.19165992736816 C 17.98832893371582 19.1039981842041 17.25387001037598 19.84624862670898 16.35108947753906 19.84624862670898 C 15.44830894470215 19.84624862670898 14.7138500213623 19.1039981842041 14.7138500213623 18.19165992736816 C 14.7138500213623 17.27931976318359 15.44830894470215 16.53706932067871 16.35108947753906 16.53706932067871 Z" stroke="none" fill="#fff"/>
        </g>
      </g>
    </g>
  </g>
</svg>
