<svg xmlns="http://www.w3.org/2000/svg" width="32" height="32" viewBox="0 0 32 32">
  <g id="knc" transform="translate(-890 -471)">
    <rect id="Rectangle_3253" data-name="Rectangle 3253" width="32" height="32" transform="translate(890 471)" fill="none"/>
    <g id="kyber-network-knc-logo" transform="translate(898.989 477)">
      <path id="Path_44340" data-name="Path 44340" d="M20,23.327,27.458,27.6a.394.394,0,0,0,.6-.34v-7.87a.391.391,0,0,0-.6-.337Z" transform="translate(-14.033 -13.327)" fill="#31cb9e"/>
      <path id="Path_44341" data-name="Path 44341" d="M26.6,3.833,21.5.083A.406.406,0,0,0,20.862.3L19,8.651l7.554-4.177a.376.376,0,0,0,.045-.641" transform="translate(-13.331 0.001)" fill="#31cb9e"/>
      <path id="Path_44342" data-name="Path 44342" d="M21.494,46.577l5.1-3.75a.382.382,0,0,0-.042-.65L19,38l1.862,8.353a.4.4,0,0,0,.632.23" transform="translate(-13.331 -26.663)" fill="#31cb9e"/>
      <path id="Path_44343" data-name="Path 44343" d="M4.027,10.589,5.966,1.52a.385.385,0,0,0-.6-.391L.4,4.939a1.029,1.029,0,0,0-.4.82v9.666a1.029,1.029,0,0,0,.4.832l4.943,3.8a.385.385,0,0,0,.6-.391Z" transform="translate(0.001 -0.744)" fill="#31cb9e"/>
    </g>
  </g>
</svg>
