<svg xmlns="http://www.w3.org/2000/svg" xmlns:xlink="http://www.w3.org/1999/xlink" width="32" height="32" viewBox="0 0 32 32">
  <defs>
    <linearGradient id="linear-gradient" x1="0.5" y1="1.003" x2="0.5" y2="0.003" gradientUnits="objectBoundingBox">
      <stop offset="0" stop-color="#4fa89b"/>
      <stop offset="1" stop-color="#6acebb"/>
    </linearGradient>
  </defs>
  <g id="mkr" transform="translate(-1130 -471)">
    <rect id="Rectangle_3258" data-name="Rectangle 3258" width="32" height="32" transform="translate(1130 471)" fill="none"/>
    <g id="Layer_2" data-name="Layer 2" transform="translate(1135.929 477)">
      <g id="Layer_1" data-name="Layer 1" transform="translate(0 0)">
        <circle id="Ellipse_7392" data-name="Ellipse 7392" cx="10" cy="10" r="10" transform="translate(0.071)" fill="url(#linear-gradient)"/>
        <path id="Path_44344" data-name="Path 44344" d="M125.911,216.072v-4.707l3.569,2.686v2.02h.911v-2.21a.531.531,0,0,0-.212-.423l-4.329-3.259a.533.533,0,0,0-.851.426v5.467Zm9.871,0v-4.707l-3.569,2.686v2.02H131.3v-2.21a.531.531,0,0,1,.212-.423l4.329-3.258a.533.533,0,0,1,.851.424v5.467Z" transform="translate(-120.833 -203.072)" fill="#fff"/>
      </g>
    </g>
  </g>
</svg>
