<svg xmlns="http://www.w3.org/2000/svg" width="32" height="32" viewBox="0 0 32 32">
  <g id="paxg" transform="translate(-1418.999 -471)">
    <rect id="Rectangle_3264" data-name="Rectangle 3264" width="32" height="32" transform="translate(1418.999 471)" fill="none"/>
    <g id="pax-gold-paxg-logo" transform="translate(1424.391 477)">
      <g id="Group-3" transform="translate(0 1.416)">
        <g id="Fill-1-Clipped">
          <g id="Group_6599" data-name="Group 6599">
            <path id="Fill-1" d="M5.862,6c.4-.46.775-.849,1.128-1.178C1.022,4.634,2.76,8.95.8,13.331c-2.239,5.05.265,6.974,4,7.575a8.12,8.12,0,0,1-1.261-2.062C1.131,15.8,2.106,10.252,5.862,6" transform="translate(0.043 -4.819)" fill="#efe812"/>
          </g>
        </g>
      </g>
      <path id="Fill-4" d="M31.844,27.1a17.05,17.05,0,0,1-3.014,5.047,14.463,14.463,0,0,1-3.662,3.173,9.887,9.887,0,0,1-5.4,1.535,21.271,21.271,0,0,1-3.335-.233,6.817,6.817,0,0,0,2.23,1.747c5.4,2.61,5.736-2.236,11.446-4.7,3.205-1.382,3.217-4.08,1.735-6.573" transform="translate(-11.577 -19.119)" fill="#ede70a"/>
      <path id="Fill-6" d="M30.4,2.955a7.091,7.091,0,0,1,2.227.79,12.424,12.424,0,0,1,4.449,4.248c.972-2.74.519-4.891-1.606-5.28C33.126,2.286,31.3,2.147,29.544.922c-2.163-1.5-4.06-1.013-5.7.516l.356.015a15.478,15.478,0,0,1,6.187,1.5" transform="translate(-16.804 -0.012)" fill="#ede70a"/>
      <path id="Fill-8" d="M11.3,6.033c-3.756,4.248-4.732,9.8-2.313,12.84a9.239,9.239,0,0,1,.521-8.249,9.339,9.339,0,0,1,9.478-4.248,15.381,15.381,0,0,0-6.187-1.5l-.356-.018A15.691,15.691,0,0,0,11.3,6.033" transform="translate(-5.393 -3.432)" fill="#dec21c"/>
      <path id="Fill-10" d="M48.317,10.784A7.091,7.091,0,0,0,46.09,10a6.8,6.8,0,0,1,3.8,6.464,8.111,8.111,0,0,1-3.8,6.794,14.4,14.4,0,0,0,3.662-3.173,17.05,17.05,0,0,0,3.014-5.047,12.424,12.424,0,0,0-4.449-4.254" transform="translate(-32.499 -7.057)" fill="#e5cb22"/>
      <path id="Fill-12" d="M20.387,9.67A9.354,9.354,0,0,0,10.909,13.9a9.23,9.23,0,0,0-.521,8.264,8.037,8.037,0,0,0,1.261,2.062,21.271,21.271,0,0,0,3.335.233,9.887,9.887,0,0,0,5.4-1.535,8.108,8.108,0,0,0,3.8-6.794,6.8,6.8,0,0,0-3.8-6.464M20.009,21.4a5.55,5.55,0,1,1-6.037-9.316c2.8-1.989,6.387-1.2,7.7,1.656,1.276,2.787.925,6.007-1.659,7.66" transform="translate(-6.795 -6.727)" fill="#cca727"/>
    </g>
  </g>
</svg>
