<svg xmlns="http://www.w3.org/2000/svg" width="32" height="32" viewBox="0 0 32 32">
  <g id="shib" transform="translate(-15780.777 -7030)">
    <rect id="Rectangle_3309" data-name="Rectangle 3309" width="32" height="32" transform="translate(15780.777 7030)" fill="none"/>
    <g id="Group_938" transform="translate(15786.892 7036)">
      <g id="Group_931" transform="translate(0 0.654)">
        <path id="Path_8573" d="M1134.092,254.3a12.738,12.738,0,0,0-1.405,1.667l-.132-.043a9.618,9.618,0,0,0-2.354-.456c-.24-.018-1.137-.018-1.43,0a8.316,8.316,0,0,0-2.333.459c-.031.012-.058.022-.086.031a12.54,12.54,0,0,0-1.451-1.655,10.088,10.088,0,0,1,8.227-.434c.286.108.567.234.841.37Z" transform="translate(-1119.617 -253.196)" fill="#f00500"/>
        <path id="Path_8574" d="M972.714,393.054a9.621,9.621,0,0,1-1.726,3.026,10.728,10.728,0,0,1-1.35,1.322,9.958,9.958,0,0,1-3.892,1.92,10.2,10.2,0,0,1-4.782,0,9.936,9.936,0,0,1-3.892-1.92,10.728,10.728,0,0,1-1.35-1.322A9.51,9.51,0,0,1,954,386.811a10.076,10.076,0,0,1,.786-1.695c.145-.247.324-.524.41-.638.3,1.273.659,2.391.8,2.795a.689.689,0,0,1-.034.068,11.173,11.173,0,0,0-1.2,4.348c0,.018,0,.04,0,.059a2.681,2.681,0,0,0,.062.94,6.029,6.029,0,0,0,2.058,2.795,11.869,11.869,0,0,0,6.181,2.8,10.734,10.734,0,0,0,6.767-2.681,9.667,9.667,0,0,0,.85-.854,4.675,4.675,0,0,0,.453-.6c-.006,0,0-.006.012-.012s.018-.015.012-.022,0-.012.012-.015.015-.009.012-.015,0-.012.012-.015a.014.014,0,0,0,.009-.018c0-.006,0-.012.006-.012s.012-.009.012-.015.006-.015.012-.015a.013.013,0,0,0,.012-.012.324.324,0,0,1,.04-.071c.046-.071.231-.4.256-.456a4.254,4.254,0,0,0,.339-1.106,3.146,3.146,0,0,0,.028-.555c0-.012,0-.034-.006-.068-.006-.062-.009-.154-.015-.247-.006-.139-.018-.333-.028-.428a9.039,9.039,0,0,0-1.168-3.753,1.074,1.074,0,0,1-.068-.129.177.177,0,0,1-.012-.025h0c.1-.287.487-1.485.8-2.856l.006.006.046.062c.08.108.293.428.388.582a9.464,9.464,0,0,1,.872,8.1Z" transform="translate(-953.47 -380.26)" fill="#f00500"/>
        <path id="Path_8575" d="M1342.658,516.1a1.037,1.037,0,0,1-.3.305,5.151,5.151,0,0,1-1.96.74,2.41,2.41,0,0,1-1.014.028c-.086-.043-.1-.077-.068-.188a1.5,1.5,0,0,1,.6-.721c.166-.12.841-.53,1.156-.7a4.084,4.084,0,0,1,1.22-.493.629.629,0,0,1,.231,0c.055.022.117.185.142.382A5.012,5.012,0,0,1,1342.658,516.1Z" transform="translate(-1327.414 -506.993)"/>
        <path id="Path_8576" d="M1105.112,518.131a.335.335,0,0,1-.216.092,3.484,3.484,0,0,1-.607-.015,6.38,6.38,0,0,1-1.852-.533,2.334,2.334,0,0,1-.638-.428l-.086-.089-.009-.117a3.231,3.231,0,0,1,.012-.638.838.838,0,0,1,.1-.271c.025-.031.025-.031.136-.031a1.332,1.332,0,0,1,.434.08,8.486,8.486,0,0,1,1.63.813,2.824,2.824,0,0,1,.943.733A.615.615,0,0,1,1105.112,518.131Z" transform="translate(-1097.127 -507.999)"/>
        <path id="Path_8577" d="M1212.7,630.193c0,.009-.037.157-.083.333s-.083.317-.083.324a.528.528,0,0,1-.1,0h-.1l-.135.32c-.074.176-.142.339-.151.364l-.019.043-.065-.1-.065-.1v-.854l-.025.006c-.052.012-.425.062-.589.077a8.4,8.4,0,0,1-2.025-.043,2.037,2.037,0,0,0-.2-.025s0,.2.006.444l.009.438-.052.08c-.028.043-.055.08-.055.083s-.04-.04-.111-.182a2.075,2.075,0,0,1-.172-.468l-.022-.089-.1.006-.1.009-.025-.114c-.012-.062-.028-.157-.034-.21l-.009-.1-.08-.071c-.046-.04-.092-.08-.1-.086a.068.068,0,0,1-.021-.052v-.037l.385,0,.385,0,.012.04.012.04.132.006.518.015.385.009.1-.154.1-.154h.129l0-.32,0-.32-.169-.074a1.654,1.654,0,0,1-.986-.847,1.181,1.181,0,0,1-.031-.4,1.223,1.223,0,0,1,.019-.4.447.447,0,0,1,.317-.314,7.318,7.318,0,0,1,.918-.015l.857,0,.1.046a.537.537,0,0,1,.231.182.509.509,0,0,1,.1.364,2.706,2.706,0,0,1-.046.592,1.274,1.274,0,0,1-.179.354,1.641,1.641,0,0,1-.69.484l-.074.028,0,.324,0,.324.068.006.068.006.092.139.089.139h.413c.228,0,.428,0,.447.006s.037,0,.068-.049l.037-.055h.354A1.12,1.12,0,0,1,1212.7,630.193Z" transform="translate(-1200.351 -615.772)"/>
        <path id="Path_8578" d="M1253.813,741.662c-.059.034-.1.049-.108.043s-.052-.04-.1-.074l-.083-.068-.086.092c-.188.2-.194.213-.25.216-.086.009-.1-.006-.209-.163-.056-.08-.1-.148-.1-.148s-.04-.006-.086-.009l-.086-.009-.04.083-.04.083-.071-.022a1.49,1.49,0,0,1-.163-.065l-.092-.046V741.4l.82,0,.82,0,0,.083C1253.945,741.588,1253.948,741.585,1253.813,741.662Z" transform="translate(-1243.092 -726.357)"/>
      </g>
      <path id="Path_8579" d="M1011.879,581.476c0-.012,0-.034-.006-.068a6.553,6.553,0,0,0-4.81,1.488,3.732,3.732,0,0,0-3.59-2.9,4.6,4.6,0,0,0-4.055,2.9,5.326,5.326,0,0,0-4.678-1.538c0,.018,0,.04,0,.059a2.684,2.684,0,0,0,.062.94,6.029,6.029,0,0,0,2.058,2.795,11.868,11.868,0,0,0,6.181,2.8,10.733,10.733,0,0,0,6.767-2.681,9.658,9.658,0,0,0,.85-.853,4.669,4.669,0,0,0,.453-.6c-.006,0,0-.006.012-.012s.019-.015.012-.022,0-.012.012-.015.015-.009.012-.015,0-.012.012-.015a.014.014,0,0,0,.009-.018c0-.006,0-.012.006-.012s.012-.009.012-.015.006-.015.012-.015a.013.013,0,0,0,.012-.012.321.321,0,0,1,.04-.071c.046-.071.231-.4.256-.456a4.248,4.248,0,0,0,.339-1.106A3.748,3.748,0,0,0,1011.879,581.476Zm-7.7,3.759c-.059.034-.1.049-.108.043s-.052-.04-.1-.074l-.083-.068-.086.092c-.188.2-.194.213-.25.216-.086.009-.1-.006-.21-.163-.055-.08-.1-.148-.1-.148s-.04-.006-.086-.009l-.086-.009-.04.083-.04.083-.071-.022a1.49,1.49,0,0,1-.163-.065l-.092-.046v-.176l.82,0,.82,0,0,.083C1004.308,585.161,1004.311,585.158,1004.175,585.235Zm1.541-.555c-.046.176-.083.317-.083.324a.529.529,0,0,1-.1,0h-.1l-.133.324c-.074.176-.142.339-.151.364l-.018.043-.065-.1-.065-.1v-.854l-.025.006c-.052.012-.425.062-.589.077a8.4,8.4,0,0,1-2.024-.043c-.108-.015-.2-.028-.2-.025s0,.2.006.444l.009.438-.052.08c-.028.043-.056.08-.056.083s-.04-.04-.111-.182a2.08,2.08,0,0,1-.173-.468l-.022-.089-.1.006-.1.009-.025-.114c-.012-.062-.028-.157-.034-.21l-.009-.1-.08-.071c-.046-.04-.092-.08-.1-.086a.068.068,0,0,1-.022-.052v-.037l.385,0,.385,0,.012.04.012.04.133.006.518.015.385.009.1-.154.1-.154h.129l0-.32,0-.321-.169-.074a1.653,1.653,0,0,1-.986-.847,1.18,1.18,0,0,1-.031-.4,1.225,1.225,0,0,1,.018-.4.448.448,0,0,1,.317-.314,7.32,7.32,0,0,1,.918-.015l.857,0,.1.046a.536.536,0,0,1,.231.182.509.509,0,0,1,.1.364,2.714,2.714,0,0,1-.046.592,1.277,1.277,0,0,1-.179.354,1.641,1.641,0,0,1-.69.484l-.074.028,0,.324,0,.324.068.006.068.006.092.139.089.139h.413c.228,0,.428,0,.447.006s.037,0,.068-.049l.037-.055h.354a1.5,1.5,0,0,1,.354.012A2.118,2.118,0,0,0,1005.716,584.681Z" transform="translate(-993.454 -569.276)" fill="#fff"/>
      <path id="Path_8580" d="M985.308,624.1a2.864,2.864,0,0,0-.308.059" transform="translate(-984.028 -612.017)" fill="none"/>
      <path id="Path_8581" d="M1551.474,625.74s-.1-.022-.274-.04" transform="translate(-1532.782 -613.568)" fill="none"/>
      <path id="Path_8582" d="M1012.12,243.849c-.006-.139-.018-.333-.028-.428a9.039,9.039,0,0,0-1.168-3.753,1.068,1.068,0,0,1-.068-.129.18.18,0,0,1-.012-.025h0c.1-.287.487-1.485.8-2.856.422-1.861.69-4.037-.129-4.69,0,0-1.417-.1-3.316,1.756a12.741,12.741,0,0,0-1.405,1.667l-.133-.043a9.619,9.619,0,0,0-2.354-.456c-.24-.018-1.137-.018-1.43,0a8.316,8.316,0,0,0-2.333.459c-.031.012-.059.022-.086.031a12.546,12.546,0,0,0-1.451-1.655c-1.975-1.87-3.445-1.763-3.445-1.763-.869.675-.573,2.949-.123,4.872.3,1.273.659,2.391.8,2.795a.689.689,0,0,1-.034.068,11.172,11.172,0,0,0-1.2,4.348,5.322,5.322,0,0,1,4.681,1.538,4.594,4.594,0,0,1,4.055-2.9,3.732,3.732,0,0,1,3.59,2.9,6.568,6.568,0,0,1,4.81-1.488C1012.132,244.033,1012.126,243.941,1012.12,243.849Zm-15.305-5.38s-1.152-2.881-.857-4.527h0a1.587,1.587,0,0,1,.287-.706s1.307.129,3.414,2.471a6.026,6.026,0,0,0-.937.607.011.011,0,0,1-.006,0,7.406,7.406,0,0,0-1.9,2.151Zm4.89,4.28a.335.335,0,0,1-.216.092,3.484,3.484,0,0,1-.607-.015,6.379,6.379,0,0,1-1.852-.533,2.333,2.333,0,0,1-.638-.428l-.086-.089-.009-.117a3.217,3.217,0,0,1,.012-.638.837.837,0,0,1,.1-.271c.025-.031.025-.031.136-.031a1.333,1.333,0,0,1,.434.08,8.481,8.481,0,0,1,1.63.813,2.826,2.826,0,0,1,.943.733A.616.616,0,0,1,1001.705,242.749Zm7.26-1.02a1.036,1.036,0,0,1-.3.305,5.152,5.152,0,0,1-1.96.74,2.409,2.409,0,0,1-1.014.028c-.086-.043-.1-.077-.068-.188a1.5,1.5,0,0,1,.6-.721c.166-.12.841-.53,1.156-.7a4.084,4.084,0,0,1,1.22-.493.627.627,0,0,1,.231,0c.055.022.117.185.142.382A5.033,5.033,0,0,1,1008.965,241.729Zm-.511-5.414-.006,0a5.756,5.756,0,0,0-.906-.607c2.037-2.342,3.3-2.471,3.3-2.471a1.672,1.672,0,0,1,.277.706h0c.287,1.645-.826,4.53-.826,4.53a7.339,7.339,0,0,0-1.836-2.154Z" transform="translate(-993.72 -231.963)" fill="#ffa409"/>
      <path id="Path_8583" d="M1377.115,343.2c-.006.006-.009.015-.015.022" transform="translate(-1364.047 -339.772)" fill="none"/>
      <path id="Path_8584" d="M1508.422,476.9c-.016.043-.022.065-.022.065" transform="translate(-1491.301 -469.353)" fill="none"/>
      <g id="Group_934" transform="translate(13.821 1.271)">
        <g id="Group_933" transform="translate(0 0)">
          <g id="Group_932">
            <path id="Path_8585" d="M1405.578,273.906c-.24-.031-1.377-.037-2.665,2.376l-.006,0a5.749,5.749,0,0,0-.906-.607c2.037-2.342,3.3-2.471,3.3-2.471A1.635,1.635,0,0,1,1405.578,273.906Z" transform="translate(-1402 -273.2)" fill="#ff9300"/>
          </g>
          <path id="Path_8586" d="M1433.44,300.437a7.311,7.311,0,0,0-1.84-2.154c1.288-2.413,2.422-2.407,2.665-2.376h0C1434.552,297.556,1433.44,300.437,1433.44,300.437Z" transform="translate(-1430.688 -295.202)" fill="#ff8300"/>
          <path id="Path_8587" d="M1518.146,296.109l-.046-.009Z" transform="translate(-1514.522 -295.394)" fill="#ff8300"/>
        </g>
      </g>
      <path id="Path_8588" d="M1172.1,343.029c-.031-.043-.065-.086-.1-.129" transform="translate(-1165.266 -339.482)" fill="none"/>
      <path id="Path_8589" d="M1035,480.8c.034.1.056.16.056.16" transform="translate(-1032.488 -473.132)" fill="none"/>
      <g id="Group_937" transform="translate(2.189 1.271)">
        <g id="Group_936" transform="translate(0 0)">
          <g id="Group_935" transform="translate(0.046)">
            <path id="Path_8590" d="M1029.7,275.671a6.024,6.024,0,0,0-.937.607.011.011,0,0,1-.006,0c-1.334-2.416-2.508-2.407-2.761-2.376a1.587,1.587,0,0,1,.287-.706S1027.6,273.329,1029.7,275.671Z" transform="translate(-1026 -273.2)" fill="#ff9300"/>
          </g>
          <path id="Path_8591" d="M1027.334,298.283a7.384,7.384,0,0,0-1.9,2.154s-1.152-2.881-.857-4.53h0C1024.822,295.877,1026,295.871,1027.334,298.283Z" transform="translate(-1024.523 -295.202)" fill="#ff8300"/>
          <path id="Path_8592" d="M1024.549,296.1l-.049.009Z" transform="translate(-1024.5 -295.394)" fill="#ff8300"/>
        </g>
      </g>
      <path id="Path_8593" d="M1362.627,446.384s-.986.062-.863-.709a1.018,1.018,0,0,1,1.109-.832c.216.031,1.078.339.924.986s-.37.524-.493.555A4.883,4.883,0,0,1,1362.627,446.384Z" transform="translate(-1349.173 -438.278)" fill="#fff"/>
      <path id="Path_8594" d="M1126.627,446.384s-.986.062-.863-.709a1.018,1.018,0,0,1,1.109-.832c.216.031,1.078.339.924.986s-.37.524-.493.555A4.883,4.883,0,0,1,1126.627,446.384Z" transform="translate(-1120.445 -438.278)" fill="#fff"/>
    </g>
  </g>
</svg>
