<svg xmlns="http://www.w3.org/2000/svg" width="32" height="32" viewBox="0 0 32 32">
  <g id="tusd" transform="translate(0.239)">
    <rect id="Rectangle_1716" data-name="Rectangle 1716" width="32" height="32" transform="translate(-0.239)" fill="none"/>
    <g id="Group_5015" data-name="Group 5015" transform="translate(6 6)">
      <path id="Path_142" data-name="Path 142" d="M-1568.15-1346.829a7.787,7.787,0,0,1,.745.431,8.791,8.791,0,0,1,2.622,2.453,7,7,0,0,1,1.143,2.931,8.091,8.091,0,0,1,.036,2.206,7.174,7.174,0,0,1-1.835,3.948,11.012,11.012,0,0,1-3.474,2.634,9.936,9.936,0,0,1-3.837.951,15.1,15.1,0,0,1-4.681-.564,7.055,7.055,0,0,1-3.635-2.4,13.082,13.082,0,0,1-1.5-2.31,1.267,1.267,0,0,1-.044-.125l.592.456a16.5,16.5,0,0,0,3.511,2.115,9.387,9.387,0,0,0,4.942.787,8.551,8.551,0,0,0,3.2-1.077,10.707,10.707,0,0,0,3.416-2.912,5.872,5.872,0,0,0,1.178-4.231,8.981,8.981,0,0,0-1.182-3.432,16.447,16.447,0,0,0-1.143-1.754C-1568.123-1346.751-1568.156-1346.772-1568.15-1346.829Z" transform="translate(1583.544 1351.259)" fill="#2c2f7d"/>
      <path id="Path_143" data-name="Path 143" d="M-1588.682-1465.766c-.082.02-.123-.041-.175-.081a14.321,14.321,0,0,0-4.585-2.451,9.106,9.106,0,0,0-4-.307,10.6,10.6,0,0,0-4.646,2,7.559,7.559,0,0,0-2.108,2.192,5.718,5.718,0,0,0-.776,2.141,7.909,7.909,0,0,0,.532,3.954,15.591,15.591,0,0,0,1.4,2.795l.063.105a.857.857,0,0,1-.419-.084,5.3,5.3,0,0,1-3.292-2.849,8.782,8.782,0,0,1-.739-2.494,7.98,7.98,0,0,1-.028-2.506,7.071,7.071,0,0,1,1.29-3.084,12.508,12.508,0,0,1,1.658-1.76,7.986,7.986,0,0,1,3.544-1.855,14.045,14.045,0,0,1,2.589-.4c.609-.04,1.218-.067,1.829-.064a8.306,8.306,0,0,1,5.236,1.83,12.556,12.556,0,0,1,2.569,2.812.848.848,0,0,1,.055.111Z" transform="translate(1607.541 1470.517)" fill="#6db0fc"/>
      <path id="Path_144" data-name="Path 144" d="M-1466.075-1309.99q1.767,0,3.535,0c.122,0,.186.017.167.155a2.1,2.1,0,0,1-1.24,1.712,2.165,2.165,0,0,1-.919.2c-.412.005-.823.008-1.234,0-.155,0-.2.037-.2.187q.008,2.18,0,4.361a2.442,2.442,0,0,1-1.838,2.246,2.521,2.521,0,0,1-.551.085c-.1,0-.147-.022-.14-.129q.1-1.406.184-2.812c.065-1.026.155-2.052.192-3.08.008-.214.038-.426.06-.639s.022-.214-.212-.214c-1.041,0-2.082,0-3.124,0-.177,0-.226-.048-.209-.21a2.126,2.126,0,0,1,2.124-1.863c1.135-.006,2.27,0,3.4,0Z" transform="translate(1476.696 1315.741)" fill="#6db0fc"/>
    </g>
  </g>
</svg>
