<svg xmlns="http://www.w3.org/2000/svg" width="32" height="32" viewBox="0 0 32 32">
  <g id="uni" transform="translate(-1611 -471)">
    <rect id="Rectangle_3289" data-name="Rectangle 3289" width="32" height="32" transform="translate(1611 471)" fill="none"/>
    <g id="uniswap-uni-logo" transform="translate(1618.322 476)">
      <path id="Path_44370" data-name="Path 44370" d="M64.372,43.561c-.217-.031-.227-.041-.124-.052a3.4,3.4,0,0,1,.97.083,4.169,4.169,0,0,1,2.125,1.423l.186.217.268-.041a5.751,5.751,0,0,1,3.3.413,4.276,4.276,0,0,1,.743.433,1,1,0,0,1,.072.289A1.749,1.749,0,0,1,71.8,47.45a.3.3,0,0,0-.031.33.311.311,0,0,0,.278.175c.248,0,.505-.392.629-.939l.052-.217.093.1a4.062,4.062,0,0,1,1,1.98l.021.155-.093-.134a1.742,1.742,0,0,0-.5-.526,3.1,3.1,0,0,0-1.7-.361,6.973,6.973,0,0,1-1.888-.289c-.846-.278-1.279-.64-2.28-1.97a9.481,9.481,0,0,0-1-1.176A3.5,3.5,0,0,0,64.372,43.561Z" transform="translate(-57.569 -39.012)" fill="#ff007a"/>
      <path id="Path_44371" data-name="Path 44371" d="M128.387,47.562a2.231,2.231,0,0,1,.186-.887.711.711,0,0,1,.093-.175c.01,0-.01.072-.041.155a1.97,1.97,0,0,0-.041.908c.072.464.1.526.6,1.031.227.237.5.536.6.66l.175.227-.175-.165a6.279,6.279,0,0,0-.825-.65c-.072-.041-.083-.041-.134.01s-.052.1-.052.4a2.21,2.21,0,0,1-.227,1.052c-.083.155-.093.124-.021-.052a1.5,1.5,0,0,0,.062-.64c0-.9-.1-1.114-.732-1.475-.155-.093-.423-.227-.578-.3a2.284,2.284,0,0,1-.278-.134,4.609,4.609,0,0,1,.866.258c.361.144.423.155.464.144C128.356,47.9,128.377,47.82,128.387,47.562Z" transform="translate(-113.899 -41.704)" fill="#ff007a"/>
      <path id="Path_44372" data-name="Path 44372" d="M64.375,50.534a3.645,3.645,0,0,1-.65-2.218l.021-.217.1.021a2.421,2.421,0,0,1,.66.248c.413.248.6.588.774,1.434.052.248.124.536.155.629a3.724,3.724,0,0,0,.413.743c.113.165.041.248-.217.227A2.113,2.113,0,0,1,64.375,50.534Z" transform="translate(-57.149 -43.139)" fill="#ff007a"/>
      <path id="Path_44373" data-name="Path 44373" d="M111.364,88.563c-2.042-.825-2.764-1.537-2.764-2.744,0-.175.01-.32.01-.32a1.939,1.939,0,0,1,.175.134,4.124,4.124,0,0,0,2.166.66,8.984,8.984,0,0,1,1.578.33,3.013,3.013,0,0,1,2.207,2.4,4.172,4.172,0,0,1-.062,1.289,2.586,2.586,0,0,1-.33.743c-.01,0-.031-.052-.031-.134a1.678,1.678,0,0,0-.6-1.166A8.242,8.242,0,0,0,111.364,88.563Z" transform="translate(-97.402 -76.681)" fill="#ff007a"/>
      <path id="Path_44374" data-name="Path 44374" d="M83.275,113.388a2.443,2.443,0,0,0-.1-.433l-.052-.155.093.113a1.816,1.816,0,0,1,.33.6,1.287,1.287,0,0,1,.072.578,1.316,1.316,0,0,1-.072.557,1.867,1.867,0,0,1-.433.691,2.482,2.482,0,0,1-1.547.681c-.124.01-.474.041-.784.062a6.05,6.05,0,0,0-1.753.289c-.062.021-.124.041-.134.031a2.336,2.336,0,0,1,.557-.33A5.613,5.613,0,0,1,81,115.657a7.067,7.067,0,0,0,.918-.186A1.783,1.783,0,0,0,83.275,113.388Z" transform="translate(-70.758 -101.165)" fill="#ff007a"/>
      <path id="Path_44375" data-name="Path 44375" d="M128.226,119.174a2.407,2.407,0,0,1-.186-1.671c.021-.052.041-.1.062-.1a.444.444,0,0,1,.144.072c.124.083.382.227,1.042.588a5.268,5.268,0,0,1,1.64,1.207,2.551,2.551,0,0,1,.547,1.248,4.091,4.091,0,0,1-.052,1.227,3.04,3.04,0,0,1-1.5,1.98,1.434,1.434,0,0,1-.217.1.82.82,0,0,1,.093-.227,2.047,2.047,0,0,0,.093-1.6,6.568,6.568,0,0,0-.825-1.485A9.8,9.8,0,0,1,128.226,119.174Z" transform="translate(-114.77 -105.291)" fill="#ff007a"/>
      <path id="Path_44376" data-name="Path 44376" d="M54.117,154.13a5.607,5.607,0,0,1,2.568-1.238,3.822,3.822,0,0,1,1.331.052,2.3,2.3,0,0,1,1.3.835,3.08,3.08,0,0,1,.474,1.4c.041.279.093.567.1.629a1.384,1.384,0,0,0,.454.815,1.57,1.57,0,0,0,1.423.041.693.693,0,0,1,.175-.052,1.58,1.58,0,0,1-.444.3,1.46,1.46,0,0,1-.743.175,1.489,1.489,0,0,1-1.258-.774,5.8,5.8,0,0,1-.34-.681,2.481,2.481,0,0,0-.97-1.362,1.271,1.271,0,0,0-1.207-.113.777.777,0,0,0-.268,1.207,1.055,1.055,0,0,0,.588.309.629.629,0,0,0,.712-.629.494.494,0,0,0-.34-.505c-.33-.144-.691.021-.681.34a.284.284,0,0,0,.2.278c.083.041.083.041.021.031a.382.382,0,0,1-.134-.67.742.742,0,0,1,1.1.237,1.081,1.081,0,0,1,.021.7.965.965,0,0,1-1.176.557,1.682,1.682,0,0,1-.9-.609,2.741,2.741,0,0,0-2.032-1.042l-.2-.031Z" transform="translate(-48.344 -137.09)" fill="#ff007a"/>
      <path id="Path_44377" data-name="Path 44377" d="M.347.444C2.75,3.363,6.453,7.9,6.639,8.149c.155.206.093.4-.165.547a1.578,1.578,0,0,1-.588.165.744.744,0,0,1-.5-.217c-.093-.093-.5-.681-1.4-2.094C3.3,5.467,2.709,4.569,2.7,4.559A16.505,16.505,0,0,0,3.916,6.787a18.055,18.055,0,0,1,1.052,1.98c0,.134-.041.206-.206.392a2.3,2.3,0,0,0-.5,1.392A4.316,4.316,0,0,1,3.09,12.924a4.245,4.245,0,0,0-.65.918,1.744,1.744,0,0,0-.206.825,2.581,2.581,0,0,0,.134,1.011,3.446,3.446,0,0,0,.5.97,2.4,2.4,0,0,1,.382.753c0,.083.021.083.392,0a4.08,4.08,0,0,0,2.022-.99.933.933,0,0,0,.309-.784.841.841,0,0,0-.072-.433,1.851,1.851,0,0,0-.722-.7,1.63,1.63,0,0,1-.856-1.1,1.941,1.941,0,0,1,.32-1.238,3.7,3.7,0,0,0,.454-1.63c.031-.433.083-.609.206-.743a.769.769,0,0,1,.567-.237A1.891,1.891,0,0,0,7,9.077a.969.969,0,0,0,.351-.753l.01-.237-.134-.144C6.742,7.385.027,0,0,0-.014,0,.151.2.347.444ZM3.513,15.111a.426.426,0,0,0-.134-.567c-.175-.113-.444-.062-.444.093a.105.105,0,0,0,.083.1c.093.052.1.1.031.217s-.072.217.021.289A.3.3,0,0,0,3.513,15.111Z" fill="#ff007a" fill-rule="evenodd"/>
      <path id="Path_44378" data-name="Path 44378" d="M69.574,93.681a.916.916,0,0,0-.557.609.889.889,0,0,0,.052.557c.113.144.217.186.505.186.567,0,1.052-.248,1.1-.547a.8.8,0,0,0-.464-.743A1.049,1.049,0,0,0,69.574,93.681Zm.66.516a.232.232,0,0,0-.1-.351c-.278-.175-.7-.031-.7.237,0,.134.217.278.423.278A.57.57,0,0,0,70.234,94.2Z" transform="translate(-61.883 -83.995)" fill="#ff007a" fill-rule="evenodd"/>
    </g>
  </g>
</svg>
