<svg id="usdc" xmlns="http://www.w3.org/2000/svg" width="32" height="32" viewBox="0 0 32 32">
  <rect id="Rectangle_1713" data-name="Rectangle 1713" width="32" height="32" fill="none"/>
  <g id="Group_5012" data-name="Group 5012" transform="translate(6 6)">
    <path id="Path_135" data-name="Path 135" d="M-1650.182-1224.318a9.993,9.993,0,0,1-9.7,10,10.007,10.007,0,0,1-10.3-9.7,10.01,10.01,0,0,1,9.7-10.294A10,10,0,0,1-1650.182-1224.318Zm-9.366-4.141h0c0-.137,0-.275,0-.411a.31.31,0,0,0-.338-.343c-.189,0-.379,0-.568,0a.312.312,0,0,0-.347.353c0,.255,0,.509,0,.764,0,.113-.015.168-.149.19a2.458,2.458,0,0,0-.978.378,1.963,1.963,0,0,0-.906,1.949,1.735,1.735,0,0,0,1.267,1.553,5.692,5.692,0,0,0,1.062.26,5.025,5.025,0,0,1,1.2.28.837.837,0,0,1,.491.451,1.078,1.078,0,0,1-.376,1.274,1.4,1.4,0,0,1-.691.251c-.828.078-1.649-.139-1.821-1.087a.279.279,0,0,0-.274-.24,7.574,7.574,0,0,0-.763,0,.278.278,0,0,0-.27.354,2.244,2.244,0,0,0,.687,1.331,2.6,2.6,0,0,0,1.369.623c.121.021.161.059.157.182-.01.267-.006.535,0,.8a.3.3,0,0,0,.324.332c.2,0,.392,0,.588,0a.3.3,0,0,0,.34-.336,6.821,6.821,0,0,0,0-.685c-.017-.2.044-.281.254-.326a2.23,2.23,0,0,0,1.861-2.391,1.725,1.725,0,0,0-1.106-1.593,4.736,4.736,0,0,0-.935-.278,8.788,8.788,0,0,1-1.472-.305.8.8,0,0,1-.6-.84.876.876,0,0,1,.613-.863,1.6,1.6,0,0,1,.5-.1c.65-.035,1.306.122,1.509.883a.285.285,0,0,0,.3.206c.183,0,.366,0,.549,0,.334,0,.451-.15.365-.472a2.059,2.059,0,0,0-1.362-1.474c-.154-.056-.382-.015-.452-.167A1.3,1.3,0,0,1-1659.547-1228.458Zm-8.128,4.241a6.081,6.081,0,0,0,.106,1.307,7.441,7.441,0,0,0,3.194,4.919,7.165,7.165,0,0,0,1.873.916c.281.091.444-.032.447-.325,0-.156,0-.313,0-.47a.451.451,0,0,0-.354-.514,6.345,6.345,0,0,1-2.238-1.475,6.237,6.237,0,0,1-.286-8.39,6.337,6.337,0,0,1,2.549-1.8.438.438,0,0,0,.329-.473c0-.157,0-.314,0-.47,0-.339-.152-.45-.474-.345a7.238,7.238,0,0,0-3,1.86A7.37,7.37,0,0,0-1667.675-1224.217Zm14.992-.627a7.2,7.2,0,0,0-3.127-5.464,6.908,6.908,0,0,0-2.033-1.03c-.3-.1-.457.015-.46.325,0,.118,0,.235,0,.353,0,.442.04.5.453.663a6.244,6.244,0,0,1,2.3,9.966,6.291,6.291,0,0,1-2.416,1.655c-.276.106-.339.2-.34.5,0,.144,0,.287,0,.431,0,.36.151.466.5.354C-1654.76-1218.084-1652.687-1220.963-1652.684-1224.844Z" transform="translate(1670.181 1234.315)" fill="#2775c9"/>
    <path id="Path_136" data-name="Path 136" d="M-1484.172-1103.737a1.3,1.3,0,0,0,.014.5c.07.152.3.111.452.167a2.059,2.059,0,0,1,1.362,1.474c.087.322-.031.471-.365.472-.183,0-.366,0-.549,0a.285.285,0,0,1-.3-.206c-.2-.762-.859-.918-1.509-.884a1.6,1.6,0,0,0-.5.1.875.875,0,0,0-.612.863.8.8,0,0,0,.6.84,8.8,8.8,0,0,0,1.472.305,4.73,4.73,0,0,1,.935.278,1.726,1.726,0,0,1,1.106,1.593,2.229,2.229,0,0,1-1.862,2.391c-.21.046-.271.122-.254.326a6.826,6.826,0,0,1,0,.685.3.3,0,0,1-.34.336c-.2,0-.392,0-.588,0a.3.3,0,0,1-.324-.332c0-.268-.008-.536,0-.8,0-.123-.036-.161-.156-.182a2.6,2.6,0,0,1-1.37-.623,2.244,2.244,0,0,1-.687-1.331.279.279,0,0,1,.27-.354,7.57,7.57,0,0,1,.763,0,.28.28,0,0,1,.275.239c.172.948.994,1.165,1.821,1.087a1.4,1.4,0,0,0,.691-.251,1.079,1.079,0,0,0,.376-1.274.838.838,0,0,0-.491-.451,5.031,5.031,0,0,0-1.2-.28,5.68,5.68,0,0,1-1.062-.26,1.735,1.735,0,0,1-1.268-1.553,1.965,1.965,0,0,1,.906-1.949,2.454,2.454,0,0,1,.978-.378c.134-.022.152-.077.149-.19-.006-.255,0-.509,0-.764a.313.313,0,0,1,.347-.353c.189,0,.379,0,.568,0a.309.309,0,0,1,.338.343c0,.137,0,.274,0,.411Z" transform="translate(1494.806 1109.594)" fill="#fefefe"/>
    <path id="Path_137" data-name="Path 137" d="M-1606.362-1152.244a7.373,7.373,0,0,1,2.15-5.257,7.241,7.241,0,0,1,3-1.86c.321-.1.472.007.474.345,0,.157,0,.313,0,.47a.438.438,0,0,1-.329.473,6.333,6.333,0,0,0-2.549,1.8,6.237,6.237,0,0,0,.286,8.39,6.343,6.343,0,0,0,2.238,1.475.452.452,0,0,1,.355.514c0,.157,0,.314,0,.47,0,.294-.166.417-.447.326a7.168,7.168,0,0,1-1.873-.916,7.441,7.441,0,0,1-3.194-4.919A6.1,6.1,0,0,1-1606.362-1152.244Z" transform="translate(1608.867 1162.342)" fill="#fefefe"/>
    <path id="Path_138" data-name="Path 138" d="M-1361.738-1152.863c0,3.881-2.076,6.76-5.124,7.751-.346.112-.5.006-.5-.354,0-.144,0-.287,0-.431,0-.3.064-.394.34-.5a6.3,6.3,0,0,0,2.416-1.656,6.244,6.244,0,0,0-2.3-9.966c-.413-.163-.453-.221-.453-.663,0-.118,0-.235,0-.353,0-.31.159-.421.46-.325a6.923,6.923,0,0,1,2.033,1.03A7.2,7.2,0,0,1-1361.738-1152.863Z" transform="translate(1379.236 1162.334)" fill="#fefefe"/>
  </g>
</svg>
