<svg xmlns="http://www.w3.org/2000/svg" width="32" height="32" viewBox="0 0 32 32">
  <g id="usdt" transform="translate(-0.494)">
    <rect id="Rectangle_1715" data-name="Rectangle 1715" width="32" height="32" transform="translate(0.494)" fill="none"/>
    <g id="Group_5013" data-name="Group 5013" transform="translate(6.494 6)">
      <path id="Path_139" data-name="Path 139" d="M-1931.826-1592.407a9.989,9.989,0,0,1-9.881,9.992,9.934,9.934,0,0,1-10.1-10.167,9.848,9.848,0,0,1,9.95-9.832A9.96,9.96,0,0,1-1931.826-1592.407Zm-10.008-5h0q-2.179,0-4.358,0c-.163,0-.29.006-.289.221.006.648,0,1.3,0,1.945,0,.174.091.265.258.232a4.653,4.653,0,0,1,.873,0c.64-.008,1.28,0,1.919,0,.218,0,.323.079.316.3-.008.264-.007.529,0,.794,0,.194-.077.28-.276.285a14.751,14.751,0,0,0-3.155.445,2.653,2.653,0,0,0-1.2.56.519.519,0,0,0,.081.82,2.65,2.65,0,0,0,.437.224,12.953,12.953,0,0,0,3.742.695c.351.027.372.032.372.382q0,2.027,0,4.054c0,.3.067.369.371.37q.918.006,1.837,0c.3,0,.37-.07.37-.371q0-1.151,0-2.3c0-.593,0-1.187,0-1.781,0-.184.039-.335.257-.346a17.446,17.446,0,0,0,2.383-.287,5.862,5.862,0,0,0,1.766-.546c.518-.282.545-.752.072-1.044a3.549,3.549,0,0,0-1.031-.43,15.308,15.308,0,0,0-3.132-.445.281.281,0,0,1-.314-.324c0-.219,0-.438,0-.657,0-.352.056-.412.406-.428a2.121,2.121,0,0,1,.219,0c.821.047,1.642.036,2.464,0,.251-.009.3-.108.3-.337-.015-.546-.012-1.093,0-1.639.009-.344-.028-.4-.381-.4Z" transform="translate(1951.809 1602.415)" fill="#28a17c"/>
      <path id="Path_140" data-name="Path 140" d="M-1874.7-1511.161h4.3c.353,0,.389.054.381.4-.013.546-.015,1.093,0,1.639.006.229-.045.327-.3.337-.821.031-1.642.043-2.463,0a2.08,2.08,0,0,0-.219,0c-.351.016-.407.075-.407.428,0,.219,0,.438,0,.657a.281.281,0,0,0,.313.324,15.314,15.314,0,0,1,3.132.445,3.547,3.547,0,0,1,1.031.43c.473.292.446.761-.071,1.044a5.873,5.873,0,0,1-1.766.546,17.544,17.544,0,0,1-2.383.287c-.218.01-.258.162-.257.346,0,.594,0,1.187,0,1.781q0,1.151,0,2.3c0,.3-.067.369-.371.371q-.918.005-1.837,0c-.3,0-.37-.072-.371-.37q0-2.027,0-4.055c0-.35-.021-.355-.372-.382a12.944,12.944,0,0,1-3.743-.7,2.625,2.625,0,0,1-.436-.223.519.519,0,0,1-.082-.821,2.655,2.655,0,0,1,1.2-.559,14.738,14.738,0,0,1,3.155-.445c.2,0,.28-.091.276-.284-.005-.265-.006-.53,0-.794.007-.226-.1-.307-.316-.3-.639.006-1.279,0-1.919,0a4.654,4.654,0,0,0-.873,0c-.167.033-.258-.058-.258-.232,0-.648,0-1.3,0-1.945,0-.215.126-.221.288-.221q2.179,0,4.358,0Zm-.014,5.717c-.284-.018-.622.024-.959-.019-.2-.025-.29-.113-.281-.321.012-.255,0-.511,0-.766,0-.571,0-.571-.559-.535-.064,0-.128,0-.192,0a13.271,13.271,0,0,0-2.267.32,2.943,2.943,0,0,0-.895.33c-.292.172-.31.37-.041.563a1.583,1.583,0,0,0,.459.238,16.847,16.847,0,0,0,4.408.547,19.658,19.658,0,0,0,3.786-.259,4.519,4.519,0,0,0,1.746-.5c.321-.2.314-.388-.014-.584a3.058,3.058,0,0,0-.916-.352,16.911,16.911,0,0,0-2.68-.343c-.211-.013-.326.063-.318.3.011.328,0,.657,0,.985,0,.313-.065.385-.381.394C-1874.1-1505.438-1874.383-1505.444-1874.719-1505.444Z" transform="translate(1884.68 1516.169)" fill="#fefefe"/>
      <path id="Path_141" data-name="Path 141" d="M-1862.946-1435.872c.336,0,.619.007.9,0,.315-.009.38-.081.381-.394,0-.329.008-.657,0-.986-.008-.234.107-.309.318-.3a16.894,16.894,0,0,1,2.68.343,3.075,3.075,0,0,1,.916.352c.328.2.334.383.014.584a4.524,4.524,0,0,1-1.746.5,19.613,19.613,0,0,1-3.786.259,16.84,16.84,0,0,1-4.408-.547,1.587,1.587,0,0,1-.459-.237c-.269-.192-.251-.391.042-.563a2.935,2.935,0,0,1,.894-.33,13.3,13.3,0,0,1,2.267-.32c.064,0,.128,0,.192,0,.559-.036.559-.036.559.535,0,.255.01.511,0,.766-.01.208.081.3.28.321C-1863.568-1435.848-1863.23-1435.89-1862.946-1435.872Z" transform="translate(1872.907 1446.597)" fill="#28a17c"/>
    </g>
  </g>
</svg>
