<svg xmlns="http://www.w3.org/2000/svg" width="32" height="32" viewBox="0 0 32 32">
  <g id="xtz" transform="translate(-14901.273 -7030)">
    <rect id="Rectangle_3294" data-name="Rectangle 3294" width="32" height="32" transform="translate(14901.273 7030)" fill="none"/>
    <g id="Layer_2" data-name="Layer 2" transform="translate(14909.93 7036)">
      <path id="Path_44573" data-name="Path 44573" d="M9.487,20a4.152,4.152,0,0,1-3.125-1.031,3.184,3.184,0,0,1-.981-2.222,1.474,1.474,0,0,1,.172-.734,1.271,1.271,0,0,1,.469-.469,1.635,1.635,0,0,1,1.459,0,1.25,1.25,0,0,1,.466.469,1.444,1.444,0,0,1,.178.734,1.4,1.4,0,0,1-.25.859,1.165,1.165,0,0,1-.594.435,1.622,1.622,0,0,0,.937.584,4.645,4.645,0,0,0,1.278.184,2.849,2.849,0,0,0,1.609-.481,2.812,2.812,0,0,0,1.05-1.422,6.177,6.177,0,0,0,.344-2.128,5.839,5.839,0,0,0-.375-2.213,2.731,2.731,0,0,0-1.084-1.375,2.884,2.884,0,0,0-1.562-.447,2.972,2.972,0,0,0-1.353.459l-1,.5v-.5l4.509-6.049H5.381v6.277a2.246,2.246,0,0,0,.344,1.284,1.184,1.184,0,0,0,1.05.5,1.756,1.756,0,0,0,1.037-.366,3.746,3.746,0,0,0,.869-.894.312.312,0,0,1,.113-.15.231.231,0,0,1,.151-.056.522.522,0,0,1,.294.125A.625.625,0,0,1,9.4,12.3a2.484,2.484,0,0,1-.056.312A3.026,3.026,0,0,1,8.27,13.946a2.659,2.659,0,0,1-1.5.457,3.887,3.887,0,0,1-2.812-.8,3,3,0,0,1-.775-2.188V5.154H0V3.987H3.194V1.328L2.463.6V0H4.584l.8.413V3.987l8.256-.025.822.825L9.4,9.874a3.4,3.4,0,0,1,.956-.231,4.144,4.144,0,0,1,1.85.528A3.8,3.8,0,0,1,13.8,11.594a5.019,5.019,0,0,1,.719,1.716,7.227,7.227,0,0,1,.172,1.469,6.144,6.144,0,0,1-.625,2.722,3.991,3.991,0,0,1-1.875,1.875,6.067,6.067,0,0,1-2.7.625Z" fill="#2c7df7"/>
    </g>
  </g>
</svg>
