<svg xmlns="http://www.w3.org/2000/svg" width="32" height="32" viewBox="0 0 32 32">
  <g id="yfi" transform="translate(-793 -471)">
    <rect id="Rectangle_3251" data-name="Rectangle 3251" width="32" height="32" transform="translate(793 471)" fill="none"/>
    <g id="Layer_2" data-name="Layer 2" transform="translate(799 477)">
      <g id="Layer_1" data-name="Layer 1" transform="translate(0)">
        <path id="SVGID" d="M10,0A10,10,0,1,1,0,10,10,10,0,0,1,10,0Z" fill="#006ae3" fill-rule="evenodd"/>
        <path id="SVGID-2" data-name="SVGID" d="M479.4,303.12V294.8h.906v8.32Z" transform="translate(-469.812 -288.904)" fill="#fff"/>
        <path id="SVGID-3" data-name="SVGID" d="M347.267,176.16l-2.8.742-.624-2.9.832-.188.328,1.376a2.267,2.267,0,0,0-.252-2.524,1.986,1.986,0,0,0-1.542-.792,2.134,2.134,0,0,0-2.354,1.7c-.172,1.024.022,1.782,1.342,2.774l-.074,1.1a7.873,7.873,0,0,1-1.854-1.766,3.172,3.172,0,0,1,.112-3.3,3.286,3.286,0,0,1,3.158-1.472,3.063,3.063,0,0,1,2.622,3.526,5.491,5.491,0,0,1-.294,1.068l1.148-.256Z" transform="translate(-333.067 -167.492)" fill="#fff"/>
        <path id="SVGID-4" data-name="SVGID" d="M297.782,508.51a3.292,3.292,0,0,1-3.2,1.388,3.062,3.062,0,0,1-2.528-3.594,5.461,5.461,0,0,1,.322-1.058l-1.154.224-.226-.91,2.818-.668.548,2.92-.838.166-.292-1.386a2.269,2.269,0,0,0,.184,2.53,1.983,1.983,0,0,0,1.522.832,2.135,2.135,0,0,0,2.4-1.642c.2-1.018.024-1.782-1.268-2.81l.1-1.1a7.854,7.854,0,0,1,1.806,1.814A3.187,3.187,0,0,1,297.782,508.51Z" transform="translate(-285.18 -493.332)" fill="#fff"/>
      </g>
    </g>
  </g>
</svg>
