<svg xmlns="http://www.w3.org/2000/svg" width="32" height="32" viewBox="0 0 32 32">
  <g id="zrx" transform="translate(-1226 -471)">
    <rect id="Rectangle_3260" data-name="Rectangle 3260" width="32" height="32" transform="translate(1226 471)" fill="none"/>
    <circle id="Ellipse_7515" data-name="Ellipse 7515" cx="11" cy="11" r="11" transform="translate(1231 476)" fill="#fff"/>
    <path id="_0x-zrx-logo" data-name="0x-zrx-logo" d="M41.515,39.29c.722.97,1.466,1.962,2.211,2.955a9.779,9.779,0,0,1-5.572,3.361,9.964,9.964,0,0,1-7.105-1.128c2.03-1.511,4.015-3,6.023-4.489.451.429.88.857,1.308,1.263.474.451.293.474.9.135a6.255,6.255,0,0,0,2.075-1.917c.023-.045.068-.09.09-.135C41.425,39.335,41.447,39.335,41.515,39.29ZM32.65,41.275c-.564.429-1.083.812-1.6,1.218-.383.293-.767.564-1.15.857-.158.135-.271.135-.451-.023a9.942,9.942,0,0,1-2.165-12.181c.023-.045.068-.113.09-.158,0-.023.023-.023.068-.045,1.489,1.962,3,3.925,4.489,5.887a.955.955,0,0,1-.113.158c-.451.474-.9.947-1.376,1.4a.292.292,0,0,0-.068.406,6.674,6.674,0,0,0,1.94,2.256c.113.068.2.135.338.226Zm8.414-14.008c-.722.519-1.444,1.038-2.165,1.534-1.241.88-2.481,1.782-3.7,2.662-.158.113-.271.135-.406-.023-.406-.429-.835-.812-1.241-1.241a.307.307,0,0,0-.383-.068A6.559,6.559,0,0,0,30.8,32.207a1.251,1.251,0,0,0-.135.18c-.361-.474-.7-.9-1.038-1.353-.361-.474-.7-.947-1.038-1.4a.278.278,0,0,1,.023-.429,9.846,9.846,0,0,1,6.451-3.316,9.727,9.727,0,0,1,5.775,1.15c.068.045.135.068.2.113C41.041,27.222,41.041,27.245,41.064,27.267ZM44.74,40.8c-.474-.609-.9-1.173-1.331-1.737-.993-1.308-1.985-2.639-3-3.947-.135-.18-.135-.293.023-.451.429-.429.835-.857,1.263-1.286A.282.282,0,0,0,41.763,33a6.687,6.687,0,0,0-2.053-2.368,1.951,1.951,0,0,0-.226-.158c.068-.068.135-.113.18-.158.857-.654,1.714-1.286,2.572-1.94.135-.113.248-.158.406,0a9.96,9.96,0,0,1,2.3,12.068A1.709,1.709,0,0,0,44.74,40.8Z" transform="translate(1205.934 451.169)" fill="#231815"/>
  </g>
</svg>
