<svg xmlns="http://www.w3.org/2000/svg" width="24" height="24" viewBox="0 0 24 24">
  <g id="Group_4770" data-name="Group 4770" transform="translate(-2289 46.65)">
    <rect id="Rectangle_1331" data-name="Rectangle 1331" width="24" height="24" transform="translate(2289 -46.65)" fill="none"/>
    <g id="piggy-bank" transform="translate(2292 -61.5)">
      <path id="Path_43033" data-name="Path 43033" d="M17.68,25.433l-.963-.412-.366-.157A6.384,6.384,0,0,0,14.66,22.91V20.68a.527.527,0,0,0-.527-.527,2.638,2.638,0,0,0-1.428.423,3.059,3.059,0,0,0-5.955.948A7.769,7.769,0,0,0,3.2,23.6a5.585,5.585,0,0,0-1.461,2.682,1.337,1.337,0,0,1-.521-1.818A.527.527,0,1,0,.3,23.948a2.39,2.39,0,0,0,1.33,3.427,5.744,5.744,0,0,0,2.745,4.7q.314,1.359.63,2.718a.527.527,0,0,0,.514.408H7.242a.527.527,0,0,0,.514-.408l.315-1.359a9.688,9.688,0,0,0,2.5,0l.316,1.362a.527.527,0,0,0,.514.408h1.723a.527.527,0,0,0,.514-.408l.188-.812.445-1.922a6.5,6.5,0,0,0,2.077-2.234l.4-.172.929-.4A.527.527,0,0,0,18,28.767V25.918A.527.527,0,0,0,17.68,25.433ZM9.809,19.555a2,2,0,0,1,1.134,3.656H8.675a2,2,0,0,1,1.134-3.656Zm7.137,8.865-.609.261-.573.246a.527.527,0,0,0-.264.249,5.445,5.445,0,0,1-1.975,2.112.527.527,0,0,0-.23.326L12.8,33.741l-.094.4h-.884l-.25-1.081-.081-.352a.527.527,0,0,0-.611-.4,8.6,8.6,0,0,1-3.116,0,.527.527,0,0,0-.61.4l-.331,1.429H5.938q-.292-1.258-.583-2.516a.527.527,0,0,0-.232-.327,4.761,4.761,0,0,1-2.438-3.959c0-2.134,1.686-4.012,4.239-4.771a3.09,3.09,0,0,0,.374.73.527.527,0,0,0,.3.964h4.43a.527.527,0,0,0,.3-.964,3.073,3.073,0,0,0,.533-1.439l.007-.008a1.6,1.6,0,0,1,.747-.555v1.875a.527.527,0,0,0,.219.428A5.337,5.337,0,0,1,15.5,25.51a.527.527,0,0,0,.264.249l.538.231.644.276V28.42Z" transform="translate(0 0)" fill="#1a488e" stroke="#1a488e" stroke-width="0.2"/>
      <path id="Path_43034" data-name="Path 43034" d="M367.527,221.5a.527.527,0,1,0,.527.527A.529.529,0,0,0,367.527,221.5Z" transform="translate(-354.098 -195.863)" fill="#1a488e" stroke="#1a488e" stroke-width="0.2"/>
    </g>
  </g>
</svg>
