<svg xmlns="http://www.w3.org/2000/svg" width="24" height="24" viewBox="0 0 24 24"><defs><style>.a{fill:none;}.b,.c{fill:#1a488e;stroke:#1a488e;stroke-width:0.6px;}.c{stroke-miterlimit:10;}</style></defs><g transform="translate(-2138.163 -1602)"><rect class="a" width="24" height="24" transform="translate(2138.163 1602)"/><g transform="translate(2.163 2)"><path class="b" d="M8.185,17.061l.427.427a.3.3,0,0,1-.424.424l-.938-.938a.3.3,0,0,1,0-.424l.938-.938a.3.3,0,1,1,.424.424l-.424.424A7.471,7.471,0,0,0,15.525,9a7.388,7.388,0,0,0-1.581-4.594.3.3,0,1,1,.473-.37A8.063,8.063,0,0,1,8.185,17.061ZM.6,9A7.471,7.471,0,0,1,7.937,1.539l-.424.424a.3.3,0,0,0,.424.424l.938-.938a.3.3,0,0,0,0-.424L7.937.088a.3.3,0,0,0-.424.424L7.94.939A8.063,8.063,0,0,0,1.709,13.964a.3.3,0,1,0,.473-.37A7.388,7.388,0,0,1,.6,9Z" transform="translate(2139 1620.125) rotate(-90)"/><g transform="translate(2145.45 1608.838)"><path class="c" d="M-792.415,550.37h-1.071a2.108,2.108,0,0,0-.845-1.476h1.917a.211.211,0,0,0,.211-.211.212.212,0,0,0-.211-.212h-4.462a.212.212,0,0,0-.211.212.212.212,0,0,0,.211.211h1.277a1.7,1.7,0,0,1,1.689,1.476h-2.966a.212.212,0,0,0-.211.211.212.212,0,0,0,.211.211h2.966a1.707,1.707,0,0,1-1.689,1.5h-1.275a.213.213,0,0,0-.211.216.217.217,0,0,0,.065.152l3.19,3.018a.212.212,0,0,0,.3-.009.216.216,0,0,0-.009-.3l-2.806-2.654h.746a2.13,2.13,0,0,0,2.115-1.919h1.071a.211.211,0,0,0,.211-.211A.212.212,0,0,0-792.415,550.37Z" transform="translate(797.088 -548.472)"/></g></g></g></svg>