<svg xmlns="http://www.w3.org/2000/svg" width="82.057" height="82.057" viewBox="0 0 82.057 82.057">
  <g id="loan" opacity="0.12">
    <path id="Path_42714" data-name="Path 42714" d="M280.474,73.856a7.411,7.411,0,0,0,7.412,7.393h5.566a2.579,2.579,0,1,1,0,5.157H287.6a3.847,3.847,0,0,1-2.111-.713,2.409,2.409,0,1,0-2.751,3.956,8.786,8.786,0,0,0,5.519,1.572v1.9a2.413,2.413,0,0,0,4.827,0v-1.9a7.4,7.4,0,1,0,.37-14.787h-5.566a2.579,2.579,0,1,1,0-5.157h5.368a3.808,3.808,0,0,1,2.711,1.226,2.411,2.411,0,0,0,3.522-3.292,8.656,8.656,0,0,0-6.4-2.749v-1.9a2.413,2.413,0,0,0-4.827,0v1.9a7.415,7.415,0,0,0-7.781,7.393Z" transform="translate(-235.347 -52.157)" fill="#1a488e"/>
    <path id="Path_42715" data-name="Path 42715" d="M79.873,57.421a7.485,7.485,0,0,0-10.555,0l-7.411,7.392a1.93,1.93,0,0,1-1.354.56H41.261a2.638,2.638,0,1,1,0-5.276h5.876a7.092,7.092,0,0,0,7.1-6.766A26.68,26.68,0,1,0,48.232.969a26.671,26.671,0,0,0-24.3,46.123,21.236,21.236,0,0,0-9.969,6.694l-.038.047-2.241,2.838H2.413A2.41,2.41,0,0,0,0,59.078V79.649a2.41,2.41,0,0,0,2.413,2.407H62.431a7.916,7.916,0,0,0,5.627-2.324L79.87,67.949a7.443,7.443,0,0,0,0-10.526l0,0ZM77.23,26.686A21.915,21.915,0,0,1,52.368,48.342c-2.356-2.53-4.915-2.232-7.088-2.232A21.87,21.87,0,1,1,77.23,26.686Zm-58,0A21.9,21.9,0,0,1,39.967,4.862,26.621,26.621,0,0,0,37,46.109H31.093A21.7,21.7,0,0,1,19.235,26.686ZM76.458,64.544,64.645,76.328a3.115,3.115,0,0,1-2.214.914H4.827V61.486h8.028a2.415,2.415,0,0,0,1.9-.918L17.7,56.838a16.43,16.43,0,0,1,12.652-5.914l14.355,0h0c1.687,0,4.774-.461,4.712,2.231a2.243,2.243,0,0,1-2.279,2.126H41.261a7.453,7.453,0,1,0,0,14.905H60.553a6.8,6.8,0,0,0,4.767-1.97l7.411-7.392a2.632,2.632,0,1,1,3.727,3.718Z" transform="translate(0 0)" fill="#1a488e"/>
  </g>
</svg>
