<svg xmlns="http://www.w3.org/2000/svg" width="24" height="24" viewBox="0 0 24 24"><defs><style>.a{fill:none;}.b{fill:#1a488e;stroke:#fff;stroke-width:0.2px;}</style></defs><g transform="translate(-4694 305)"><rect class="a" width="24" height="24" transform="translate(4694 -305)"/><path class="b" d="M837.67,400.358l-2.139-2.141h11.58A3.215,3.215,0,0,0,850.324,395h0v-2.6h-1.541V395a1.671,1.671,0,0,1-1.672,1.672h-11.58l2.139-2.139.113-.113-.113-.113-.863-.863-.113-.113-.112.113-3.456,3.456h0a.772.772,0,0,0,0,1.09h0l3.456,3.456.112.112.113-.112.863-.865.113-.112Z" transform="translate(3864.1 -685.56)"/><path class="b" d="M845.554,388.06l2.141,2.141H836.113a3.216,3.216,0,0,0-3.213,3.213h0v2.6h1.542v-2.6a1.672,1.672,0,0,1,1.673-1.672h11.58l-2.141,2.139-.113.113.113.113.863.863.113.113.113-.113,3.456-3.456h0a.772.772,0,0,0,0-1.09h0l-3.456-3.456-.113-.112-.113.112-.863.865-.113.112Z" transform="translate(3864.1 -688.859)"/></g></svg>