<svg xmlns="http://www.w3.org/2000/svg" width="24" height="24" viewBox="0 0 24 24"><defs><style>.a{fill:none;}.b,.c{fill:#1a488e;stroke:#1a488e;}.b{stroke-width:0.4px;}.c{stroke-width:0.1px;}</style></defs><g transform="translate(-537 97.216)"><rect class="a" width="24" height="24" transform="translate(537 -97.216)"/><g transform="translate(7.107 -626.9)"><path class="b" d="M548.25,535.057a7.387,7.387,0,0,0-12.459,6.669h.949a6.463,6.463,0,1,1,6.294,5.028,5.742,5.742,0,0,1-1.2-.117v.926a6.671,6.671,0,0,0,1.2.106,7.385,7.385,0,0,0,5.216-12.612Z" transform="translate(0.474)"/><path class="b" d="M542.488,535.26h-.924v4.806l2.906,2.906.653-.653-2.635-2.635Z" transform="translate(1.492 0.406)"/><g transform="translate(532.893 543.319)"><path class="c" d="M540.741,548.078h-7.2a.645.645,0,1,1,0-1.289h7.2a.645.645,0,1,1,0,1.289Z" transform="translate(-532.893 -540.929)"/><path class="c" d="M540.741,545.578h-7.2a.645.645,0,0,1,0-1.289h7.2a.645.645,0,0,1,0,1.289Z" transform="translate(-532.893 -541.359)"/><path class="c" d="M540.741,543.078h-7.2a.645.645,0,1,1,0-1.289h7.2a.645.645,0,1,1,0,1.289Z" transform="translate(-532.893 -541.789)"/></g></g></g></svg>