<svg xmlns="http://www.w3.org/2000/svg" width="16" height="16" viewBox="0 0 16 16">
  <g id="Graph_active" transform="translate(-842 -124.201)">
    <rect id="Rectangle_843" data-name="Rectangle 843" width="16" height="16" transform="translate(842 124.201)" fill="none"/>
    <g id="graph" transform="translate(842 99.45)">
      <g id="Group_2664" data-name="Group 2664" transform="translate(0 25.55)">
        <path id="Path_2343" data-name="Path 2343" d="M14.4,25.55a1.6,1.6,0,0,0-1.15,2.707L10.33,34.1a1.313,1.313,0,0,0-.194-.019,1.6,1.6,0,0,0-.6.119L7.264,31.651a1.6,1.6,0,1,0-2.994-.769,1.588,1.588,0,0,0,.394,1.038L1.885,36.78a1.463,1.463,0,0,0-.284-.028,1.623,1.623,0,1,0,1.206.563l2.776-4.86a1.5,1.5,0,0,0,.885-.091l2.269,2.554a1.6,1.6,0,1,0,2.547-.338l2.922-5.848a1.313,1.313,0,0,0,.194.019,1.6,1.6,0,0,0,0-3.2Z" transform="translate(0 -25.55)" fill="#4891FF"/>
      </g>
    </g>
  </g>
</svg>
