<svg xmlns="http://www.w3.org/2000/svg" width="24" height="24" viewBox="0 0 24 24"><defs><style>.a{fill:none;}.b{fill:#1a488e;stroke:#1a488e;stroke-width:0.1px;}</style></defs><g transform="translate(-627.489 -38)"><rect class="a" width="24" height="24" transform="translate(627.489 38)"/><g transform="translate(161.976 -39.517)"><g transform="translate(467.513 81.522)"><path class="b" d="M275.483,172.228v4a.571.571,0,0,0,.167.4l2.86,2.859.808-.808-2.692-2.692v-3.761Z" transform="translate(-266.341 -167.657)"/><path class="b" d="M10.286,34.445A8.006,8.006,0,0,0,2.377,41.3H0l2.857,2.857L5.714,41.3H3.532a6.846,6.846,0,1,1,1.347,5.361l-.9.7A8,8,0,1,0,10.287,34.44Z" transform="translate(0 -34.445)"/></g></g></g></svg>