<svg xmlns="http://www.w3.org/2000/svg" width="20" height="20" viewBox="0 0 20 20"><g transform="translate(-14 -14)"><rect width="20" height="20" transform="translate(14 14)" fill="none"/><g transform="translate(15 15)"><path d="M25.05,13.5H15.6a2.1,2.1,0,0,0-2.1,2.1v9.45a2.1,2.1,0,0,0,2.1,2.1h9.45a2.1,2.1,0,0,0,2.1-2.1V15.6A2.1,2.1,0,0,0,25.05,13.5Z" transform="translate(-13.5 -9.15)" fill="none" stroke="#fff" stroke-linecap="round" stroke-linejoin="round" stroke-width="1"/><path d="M13.5,16.65h1.05a2.1,2.1,0,0,0,2.1-2.1V5.1A2.1,2.1,0,0,0,14.55,3H5.1A2.1,2.1,0,0,0,3,5.1V6.15" transform="translate(1.35 -3)" fill="none" stroke="#fff" stroke-linecap="round" stroke-linejoin="round" stroke-width="1"/></g></g></svg>