<svg xmlns="http://www.w3.org/2000/svg" width="67.176" height="50.382" viewBox="0 0 67.176 50.382"><defs><style>.a{opacity:0.12;}.b{fill:#1a488e;}</style></defs><g class="a"><path class="b" d="M7.7,50.382H59.479a7.7,7.7,0,0,0,7.7-7.7V7.7a7.7,7.7,0,0,0-7.7-7.7H7.7A7.7,7.7,0,0,0,0,7.7V42.685A7.7,7.7,0,0,0,7.7,50.382ZM59.479,4.2a3.5,3.5,0,0,1,3.5,3.5V42.685a3.5,3.5,0,0,1-3.5,3.5H7.7a3.5,3.5,0,0,1-3.5-3.5V7.7A3.5,3.5,0,0,1,7.7,4.2Zm0,0"/><path class="b" d="M113.665,99.327a7,7,0,1,0-7-7A7.007,7.007,0,0,0,113.665,99.327Zm0-9.8a2.8,2.8,0,1,1-2.8,2.8A2.8,2.8,0,0,1,113.665,89.531Zm0,0" transform="translate(-67.482 -74.136)"/><path class="b" d="M66.1,224.528a2.1,2.1,0,0,0,2.1-2.1v-1.4a3.5,3.5,0,0,1,3.5-3.5h9.8a3.5,3.5,0,0,1,3.5,3.5v1.4a2.1,2.1,0,1,0,4.2,0v-1.4a7.7,7.7,0,0,0-7.7-7.7H71.7a7.7,7.7,0,0,0-7.7,7.7v1.4A2.1,2.1,0,0,0,66.1,224.528Zm0,0" transform="translate(-30.412 -185.342)"/><path class="b" d="M300.767,100.2h15.394a2.1,2.1,0,0,0,0-4.2H300.767a2.1,2.1,0,1,0,0,4.2Zm0,0" transform="translate(-290.271 -83.404)"/><path class="b" d="M300.767,185.531h15.394a2.1,2.1,0,0,0,0-4.2H300.767a2.1,2.1,0,1,0,0,4.2Zm0,0" transform="translate(-290.271 -157.541)"/><path class="b" d="M300.767,270.866h15.394a2.1,2.1,0,0,0,0-4.2H300.767a2.1,2.1,0,1,0,0,4.2Zm0,0" transform="translate(-290.271 -231.68)"/></g></svg>