<svg xmlns="http://www.w3.org/2000/svg" width="68.571" height="51.429" viewBox="0 0 68.571 51.429"><defs><style>.a{opacity:0.12;}.b{fill:#1a488e;}</style></defs><g class="a"><path class="b" d="M7.857,51.429H60.714a7.864,7.864,0,0,0,7.857-7.857V7.857A7.864,7.864,0,0,0,60.714,0H7.857A7.864,7.864,0,0,0,0,7.857V43.571A7.864,7.864,0,0,0,7.857,51.429ZM60.714,4.286a3.577,3.577,0,0,1,3.572,3.572V43.571a3.577,3.577,0,0,1-3.572,3.572H7.857a3.577,3.577,0,0,1-3.572-3.572V7.857A3.577,3.577,0,0,1,7.857,4.286Zm0,0"/><path class="b" d="M27.858,4.286H2.144A2.143,2.143,0,1,1,2.144,0H43.572a2.143,2.143,0,0,1,0,4.286Z" transform="translate(8.571 12.857)"/><path class="b" d="M18.215,4.286c-.06,0-.12,0-.179-.008s-.119.008-.179.008H2.144A2.143,2.143,0,1,1,2.144,0H17.857c.06,0,.12,0,.179.007S18.155,0,18.215,0H33.929a2.143,2.143,0,0,1,0,4.286Z" transform="translate(8.571 24.286)"/><path class="b" d="M300.811,270.954h15.714a2.143,2.143,0,0,0,0-4.286H300.811a2.143,2.143,0,1,0,0,4.286Zm0,0" transform="translate(-290.096 -230.954)"/></g></svg>