<svg xmlns="http://www.w3.org/2000/svg" width="101.196" height="108" viewBox="0 0 101.196 108"><defs><style>.a{opacity:0.24;}.b{fill:#1a488e;}</style></defs><g class="a"><path class="b" d="M75.53,108.655v30.458a2.109,2.109,0,0,0,2.109,2.109h29.583a2.109,2.109,0,0,0,2.109-2.109V108.655a2.109,2.109,0,0,0-2.109-2.109H77.639A2.109,2.109,0,0,0,75.53,108.655ZM80.049,137a7.558,7.558,0,0,1,7.244-5.435H97.569A7.558,7.558,0,0,1,104.813,137Zm8.487-13.548a3.895,3.895,0,1,1,3.895,3.895A3.9,3.9,0,0,1,88.536,123.456Zm16.577-12.691V130.1a11.718,11.718,0,0,0-5.656-2.593,8.113,8.113,0,1,0-14.053,0,11.719,11.719,0,0,0-5.655,2.593V110.765Z" transform="translate(-63 -84.071)"/><path class="b" d="M86,86.476a7.561,7.561,0,0,0,15.123,0V63.149a23.809,23.809,0,0,0,16.206-22.534c0-.086,0-.171,0-.257v-.086a2.109,2.109,0,1,0-4.218.058v.1c0,.062,0,.124,0,.187A19.508,19.508,0,1,1,98.359,21.657a2.125,2.125,0,0,0,.243.063,19.366,19.366,0,0,1,7.151,3.619,2.109,2.109,0,1,0,2.635-3.295,23.743,23.743,0,0,0-7.268-3.951V2.109A2.109,2.109,0,0,0,99.011,0H32.83c-1.083,0-1.848.945-2.581,1.622L17.105,13.764a3.059,3.059,0,0,0-.771.919,2.133,2.133,0,0,0-.207.907v90.3A2.109,2.109,0,0,0,18.237,108H99.011a2.109,2.109,0,0,0,2.109-2.109V98.8a2.109,2.109,0,0,0-4.219,0v4.976H20.347V17.7H32.83A2.109,2.109,0,0,0,34.94,15.59V4.219H96.9V17.091A23.764,23.764,0,0,0,86,63.148V86.476ZM23.629,13.481,30.721,6.93v6.551ZM93.558,89.817a3.346,3.346,0,0,1-3.344-3.341V85.167H96.9v1.308A3.345,3.345,0,0,1,93.558,89.817ZM91.04,64.249a23.972,23.972,0,0,0,5.771-.09l.088-.011v16.8H90.214v-16.8l.08.01Q90.666,64.208,91.04,64.249Z" transform="translate(-16.128 0)"/><path class="b" d="M114.943,298.77H76.155a2.109,2.109,0,0,0,0,4.219h38.787a2.109,2.109,0,1,0,0-4.219Z" transform="translate(-61.829 -235.748)"/><path class="b" d="M239.742,340.23h-5.425a2.109,2.109,0,1,0,0,4.219h5.425a2.109,2.109,0,1,0,0-4.219Z" transform="translate(-186.628 -268.463)"/><path class="b" d="M76.155,348.618h13.08a2.109,2.109,0,0,0,0-4.219H76.155a2.109,2.109,0,0,0,0,4.219Z" transform="translate(-61.829 -271.752)"/><path class="b" d="M117.052,392.138a2.109,2.109,0,0,0-2.109-2.109H76.155a2.109,2.109,0,0,0,0,4.219h38.787A2.109,2.109,0,0,0,117.052,392.138Z" transform="translate(-61.829 -307.757)"/><path class="b" d="M76.155,435.659a2.109,2.109,0,0,0,0,4.219h28.462a2.109,2.109,0,1,0,0-4.219Z" transform="translate(-61.829 -343.762)"/><path class="b" d="M184.187,343.546a2.109,2.109,0,1,0,.584-2.924A2.132,2.132,0,0,0,184.187,343.546Z" transform="translate(-148.463 -268.498)"/><path class="b" d="M328.9,123.724a14.517,14.517,0,1,0,14.517,14.517A14.534,14.534,0,0,0,328.9,123.724Zm0,24.815a10.3,10.3,0,1,1,10.3-10.3A10.31,10.31,0,0,1,328.9,148.539Z" transform="translate(-251.466 -97.626)"/><path class="b" d="M175.649,59.061a2.109,2.109,0,0,0,0-4.219H143.621a2.109,2.109,0,0,0,0,4.219Z" transform="translate(-115.064 -43.274)"/><path class="b" d="M464.4,137.938a2.108,2.108,0,1,0,1.141-2.755A2.127,2.127,0,0,0,464.4,137.938Z" transform="translate(-369.716 -106.544)"/></g></svg>