<svg xmlns="http://www.w3.org/2000/svg" width="110" height="110" viewBox="0 0 110 110"><defs><style>.a{opacity:0.4;}.b{fill:none;}.c{opacity:0.5;}.d{fill:#4891ff;stroke:#4891ff;}</style></defs><g class="a" transform="translate(-880.886 -333.061)"><rect class="b" width="110" height="110" transform="translate(880.886 333.061)"/><g class="c"><path class="d" d="M5.788,43.75a29.321,29.321,0,0,0,1.46,3.7l3.141-1.493A25.382,25.382,0,0,1,9.1,42.7Z" transform="translate(884.535 364.072)"/><path class="d" d="M16.052,28.739,14.833,27.5l-1.281-1.177A29.007,29.007,0,0,0,5,46.97a29.409,29.409,0,0,0,.457,5.171L8.88,51.53a25.958,25.958,0,0,1-.4-4.559A25.545,25.545,0,0,1,16,28.791Z" transform="translate(883.953 351.983)"/><path class="d" d="M0,0H3.477V3.477H0Z" transform="translate(927.25 370.981) rotate(-45)"/><path class="d" d="M0,0H3.477V3.478H0Z" transform="translate(932.166 375.896) rotate(-45)"/><path class="d" d="M36.441,34.372l3.2-1.361a28.909,28.909,0,0,0-1.665-3.3l-3,1.763A24.759,24.759,0,0,1,36.441,34.372Z" transform="translate(906.083 354.483)"/><path class="d" d="M34.842,31.252l2.75-2.128a29.786,29.786,0,0,0-2.435-2.773L32.692,28.8A26.926,26.926,0,0,1,34.842,31.252Z" transform="translate(904.397 352.005)"/><path class="d" d="M105.3,39.338c0,4.4-2.373,8.863-7.054,13.263A41.335,41.335,0,0,1,73.889,63.433,35.909,35.909,0,0,0,63.418,40.2L50.391,27.171l9.71-9.71v-.72a7.655,7.655,0,0,0-6.7-7.586l-3.2-.4L51.87,3.332,42.02.869l-4.434,5.91L34.827,2.64,23.062,4.994l1.272,3.819L21.6,9.155a7.655,7.655,0,0,0-6.694,7.586v.72l9.71,9.71L11.589,40.2a36.142,36.142,0,0,0,5.449,55.595A22.607,22.607,0,0,0,37.5,108.869h71.269V39.338ZM69.355,67.151c1.566,0,3.117-.078,4.652-.224v38.466H67.054V67.151Zm8.128-.688a46.716,46.716,0,0,0,6.953-1.724v40.654H77.484Zm10.43-3.051a44.078,44.078,0,0,0,6.953-3.744v45.725H87.913ZM52.972,12.6a4.176,4.176,0,0,1,3.6,3.471l-9.355,9.357H45.072l4.094-13.3Zm-19.747-6.1L37.42,12.8l6-8,4.055,1.013L41.434,25.432H33.54l-5.933-17.8ZM22.035,12.6l3.424-.428,4.419,13.256H27.794l-9.357-9.357a4.178,4.178,0,0,1,3.6-3.471ZM4.477,65.762a32.464,32.464,0,0,1,9.571-23.107L27.794,28.909h19.42L60.96,42.655a32.458,32.458,0,0,1,9.463,20.97c-.358.009-.707.049-1.067.049H37.5A22.462,22.462,0,0,0,15.238,89.986,32.56,32.56,0,0,1,4.477,65.762Zm13.906,20.51A19.121,19.121,0,1,1,37.5,105.392,19.143,19.143,0,0,1,18.383,86.272Zm41.718,0a22.576,22.576,0,0,0-10.61-19.121H63.577v38.242H49.491A22.576,22.576,0,0,0,60.1,86.272Zm38.242,19.121V57.114c.779-.634,1.545-1.288,2.281-1.98a32.271,32.271,0,0,0,4.672-5.415v55.673Z" transform="translate(881 333.191)"/><path class="d" d="M57.737,9.24V29.38h3.477V9.24L65.2,13.226l2.458-2.458L59.475,2.586l-8.182,8.182,2.458,2.458Z" transform="translate(918.129 334.459)"/><path class="d" d="M48.737,16.24V36.38h3.477V16.24L56.2,20.226l2.458-2.458L50.475,9.586l-8.182,8.182,2.458,2.458Z" transform="translate(911.485 339.627)"/><path class="d" d="M544.2,535.26h-2.631v13.69l8.277,8.277,1.86-1.86-7.506-7.506Z" transform="translate(375.252 -129.534)"/></g></g></svg>