<svg xmlns="http://www.w3.org/2000/svg" width="24" height="24" viewBox="0 0 24 24"><defs><style>.a{fill:none;}.b,.c{fill:#1a488e;stroke:#1a488e;}.b{stroke-width:0.2px;}.c{stroke-width:0.3px;}</style></defs><g transform="translate(-570 -135.87)"><rect class="a" width="24" height="24" transform="translate(570 135.87)"/><g transform="translate(571.997 139.87)"><g transform="translate(2.003 0)"><g transform="translate(0 0)"><path class="b" d="M146.087,218.936h-2.973a.45.45,0,0,0-.45.45v5.833a.45.45,0,0,0,.45.45h2.973a.45.45,0,0,0,.45-.45v-5.833A.45.45,0,0,0,146.087,218.936Zm-.45,5.833h-2.072v-4.932h2.072Z" transform="translate(-136.6 -209.498)"/><path class="b" d="M282.469,136.911h-3a.45.45,0,0,0-.45.45v9.369a.45.45,0,0,0,.45.45h3a.45.45,0,0,0,.45-.45v-9.369A.45.45,0,0,0,282.469,136.911Zm-.45,9.369h-2.095v-8.469h2.095Z" transform="translate(-267.081 -131.009)"/><path class="b" d="M9.228,269.613h-3a.45.45,0,0,0-.45.45v3.649a.45.45,0,0,0,.45.45h3a.45.45,0,0,0,.45-.45v-3.649A.45.45,0,0,0,9.228,269.613Zm-.45,3.649H6.683v-2.748H8.778v2.748Z" transform="translate(-5.619 -257.99)"/><path class="c" d="M17.887.452a.383.383,0,0,0-.293-.158L13.495,0a.452.452,0,1,0-.068.9l2.9.2L10.995,5.272l-4.077-3.2a.45.45,0,0,0-.586.023L2.143,6.105a.45.45,0,0,0-.023.631.405.405,0,0,0,.338.158.45.45,0,0,0,.315-.135l3.9-3.739L10.7,6.2a.45.45,0,0,0,.563,0l5.766-4.487-.225,2.8a.473.473,0,0,0,.428.473h.023a.45.45,0,0,0,.45-.405L18,.767A.36.36,0,0,0,17.887.452Z" transform="translate(-2.003 -1)"/></g></g></g></g></svg>