<svg xmlns="http://www.w3.org/2000/svg" width="24" height="24" viewBox="0 0 24 24"><defs><style>.a{fill:none;}.b,.c{fill:#1a488e;stroke:#1a488e;}.b{stroke-width:0.6px;}.c{stroke-width:0.4px;}</style></defs><g transform="translate(471.32 -660)"><rect class="a" width="24" height="24" transform="translate(-471.32 660)"/><g transform="translate(-2607.32 -940)"><path class="b" d="M8.185,17.061l.427.427a.3.3,0,0,1-.424.424l-.938-.938a.3.3,0,0,1,0-.424l.938-.938a.3.3,0,1,1,.424.424l-.424.424A7.471,7.471,0,0,0,15.525,9a7.388,7.388,0,0,0-1.581-4.594.3.3,0,1,1,.473-.37A8.063,8.063,0,0,1,8.185,17.061ZM.6,9A7.471,7.471,0,0,1,7.937,1.539l-.424.424a.3.3,0,0,0,.424.424l.938-.938a.3.3,0,0,0,0-.424L7.937.088a.3.3,0,0,0-.424.424L7.94.939A8.063,8.063,0,0,0,1.709,13.964a.3.3,0,1,0,.473-.37A7.388,7.388,0,0,1,.6,9Z" transform="translate(2139 1620.125) rotate(-90)"/><g transform="translate(2145.421 1607.54)"><g transform="translate(1.137 1.137)"><g transform="translate(0 0)"><path class="c" d="M215.608,145.067h-1.99a.284.284,0,0,0-.284.284v2.842a.284.284,0,0,0,.284.284h1.99a1.705,1.705,0,1,0,0-3.411Zm0,2.842H213.9v-2.274h1.705a1.137,1.137,0,0,1,0,2.274Z" transform="translate(-213.334 -145.067)"/></g></g><g transform="translate(1.137 3.979)"><g transform="translate(0 0)"><path class="c" d="M215.608,230.4h-1.99a.284.284,0,0,0-.284.284v2.842a.284.284,0,0,0,.284.284h1.99a1.705,1.705,0,1,0,0-3.411Zm0,2.842H213.9v-2.274h1.705a1.137,1.137,0,0,1,0,2.274Z" transform="translate(-213.334 -230.4)"/></g></g><g transform="translate(0 1.137)"><g transform="translate(0 0)"><path class="c" d="M180.622,145.067h-1.137a.284.284,0,0,0,0,.568h1.137a.284.284,0,1,0,0-.568Z" transform="translate(-179.201 -145.067)"/></g></g><g transform="translate(1.137)"><g transform="translate(0 0)"><path class="c" d="M213.618,110.933a.284.284,0,0,0-.284.284v1.137a.284.284,0,1,0,.568,0v-1.137A.284.284,0,0,0,213.618,110.933Z" transform="translate(-213.334 -110.933)"/></g></g><g transform="translate(2.842)"><g transform="translate(0 0)"><path class="c" d="M264.818,110.933a.284.284,0,0,0-.284.284v1.137a.284.284,0,1,0,.568,0v-1.137A.284.284,0,0,0,264.818,110.933Z" transform="translate(-264.534 -110.933)"/></g></g><g transform="translate(1.137 6.822)"><g transform="translate(0 0)"><path class="c" d="M213.618,315.733a.284.284,0,0,0-.284.284v1.137a.284.284,0,0,0,.568,0v-1.137A.284.284,0,0,0,213.618,315.733Z" transform="translate(-213.334 -315.733)"/></g></g><g transform="translate(2.842 6.822)"><g transform="translate(0 0)"><path class="c" d="M264.818,315.733a.284.284,0,0,0-.284.284v1.137a.284.284,0,0,0,.568,0v-1.137A.284.284,0,0,0,264.818,315.733Z" transform="translate(-264.534 -315.733)"/></g></g><g transform="translate(0 6.822)"><g transform="translate(0 0)"><path class="c" d="M180.622,315.733h-1.137a.284.284,0,1,0,0,.568h1.137a.284.284,0,1,0,0-.568Z" transform="translate(-179.201 -315.733)"/></g></g></g></g></g></svg>