<svg xmlns="http://www.w3.org/2000/svg" width="64" height="64" viewBox="0 0 64 64"><defs><style>.a,.d{fill:none;}.b{opacity:0.38;}.c,.e{fill:#1a488e;}.c,.d{stroke:#1a488e;}.d{stroke-width:4px;}</style></defs><rect class="a" width="64" height="64"/><g class="b" transform="translate(7.757 8)"><g transform="translate(0 0)"><path class="c" d="M31.56,11.524A5.591,5.591,0,0,0,33.6,7.2V.8a.8.8,0,0,0-.332-.65.792.792,0,0,0-.721-.109L28.03,1.55,24.3.059a.793.793,0,0,0-.594,0L19.981,1.55,15.459.043A.8.8,0,0,0,14.4.8V7.2a5.591,5.591,0,0,0,2.045,4.323A20.027,20.027,0,0,0,0,31.2v6.4A10.412,10.412,0,0,0,10.4,48H37.6A10.412,10.412,0,0,0,48,37.6V31.2A20.027,20.027,0,0,0,31.56,11.524ZM16,7.2V1.912L19.752,3.16a.8.8,0,0,0,.55-.016L24,1.663l3.7,1.482a.8.8,0,0,0,.55.016L32,1.912V7.2a4,4,0,0,1-4,4h-.576l.551-2.206-1.551-.387L25.78,11.2H22.229L21.58,8.608l-1.551.387.552,2.206H20A4,4,0,0,1,16,7.2ZM46.4,37.6a8.81,8.81,0,0,1-8.8,8.8H10.4a8.81,8.81,0,0,1-8.8-8.8V31.2A18.42,18.42,0,0,1,20,12.8h8A18.42,18.42,0,0,1,46.4,31.2Z" transform="translate(-0.005 0)"/><line class="d" y1="9" x2="15" transform="translate(15.55 27.742) rotate(-16)"/></g><circle class="e" cx="3" cy="3" r="3" transform="translate(25.5 33)"/><circle class="e" cx="3" cy="3" r="3" transform="translate(16.5 21)"/></g></svg>