<svg xmlns="http://www.w3.org/2000/svg" width="24" height="24" viewBox="0 0 24 24">
  <g id="Group_4818" data-name="Group 4818" transform="translate(-1879 -132.375)">
    <rect id="Rectangle_1398" data-name="Rectangle 1398" width="24" height="24" transform="translate(1879 132.375)" fill="none"/>
    <g id="Icon_open-transfer" data-name="Icon open-transfer" transform="translate(1898.547 136.769) rotate(90)" fill="#1a488e">
      <path d="M 3.55322527885437 14.55297088623047 L 0.3858989179134369 11.859375 L 3.55322527885437 9.165787696838379 L 3.55322527885437 10.78125476837158 L 3.55322527885437 11.03125476837158 L 3.80322527885437 11.03125476837158 L 14.96289539337158 11.03125476837158 L 14.96289539337158 12.68750476837158 L 3.80322527885437 12.68750476837158 L 3.55322527885437 12.68750476837158 L 3.55322527885437 12.93750476837158 L 3.55322527885437 14.55297088623047 Z M 11.65966510772705 5.927971839904785 L 11.65966510772705 4.312504768371582 L 11.65966510772705 4.062504768371582 L 11.40966510772705 4.062504768371582 L 0.250005304813385 4.062504768371582 L 0.250005304813385 2.406255006790161 L 11.40966510772705 2.406255006790161 L 11.65966510772705 2.406255006790161 L 11.65966510772705 2.156255006790161 L 11.65966510772705 0.5407869815826416 L 14.82700157165527 3.234375238418579 L 11.65966510772705 5.927971839904785 Z" stroke="none"/>
      <path d="M 11.90966510772705 1.081572532653809 L 11.90966510772705 2.156245231628418 L 11.90966510772705 2.656245231628418 L 11.40966510772705 2.656245231628418 L 0.499995231628418 2.656245231628418 L 0.499995231628418 3.812495231628418 L 11.40966510772705 3.812495231628418 L 11.90966510772705 3.812495231628418 L 11.90966510772705 4.312495231628418 L 11.90966510772705 5.387168884277344 L 14.441086769104 3.234374046325684 L 11.90966510772705 1.081572532653809 M 3.303225517272949 9.706571578979492 L 0.7717952728271484 11.859375 L 3.303225517272949 14.01217079162598 L 3.303225517272949 12.93749523162842 L 3.303225517272949 12.43749523162842 L 3.803225517272949 12.43749523162842 L 14.7128849029541 12.43749523162842 L 14.7128849029541 11.28124523162842 L 3.803225517272949 11.28124523162842 L 3.303225517272949 11.28124523162842 L 3.303225517272949 10.78124523162842 L 3.303225517272949 9.706571578979492 M 11.40966510772705 -4.76837158203125e-06 L 15.2128849029541 3.234375 L 11.40966510772705 6.468745231628418 L 11.40966510772705 4.312495231628418 L -4.76837158203125e-06 4.312495231628418 L -4.76837158203125e-06 2.156245231628418 L 11.40966510772705 2.156245231628418 L 11.40966510772705 -4.76837158203125e-06 Z M 3.803225517272949 8.624995231628418 L 3.803225517272949 10.78124523162842 L 15.2128849029541 10.78124523162842 L 15.2128849029541 12.93749523162842 L 3.803225517272949 12.93749523162842 L 3.803225517272949 15.09374523162842 L -4.76837158203125e-06 11.859375 L 3.803225517272949 8.624995231628418 Z" stroke="none" fill="#1a488e"/>
    </g>
  </g>
</svg>
