<svg xmlns="http://www.w3.org/2000/svg" width="24" height="24" viewBox="0 0 24 24"><defs><style>.a{fill:none;}.b{fill:#1a488e;stroke:#fff;stroke-width:0.1px;}</style></defs><g transform="translate(-87 -68)"><rect class="a" width="24" height="24" transform="translate(87 68)"/><g transform="translate(90 71.001)"><g transform="translate(0 -0.001)"><path class="b" d="M14.237,9.035a2.109,2.109,0,1,0,0,4.219H17.3a.7.7,0,0,0,.7-.7V7.032a2.81,2.81,0,0,0-1.166-2.278L14.441.83A.7.7,0,0,0,13.47.6L11.707,1.692l-.8-1.346A.7.7,0,0,0,9.941.1L3.168,4.219H2.109a.686.686,0,1,1,0-1.372h1.3a.7.7,0,1,0,0-1.406h-1.3A2.113,2.113,0,0,0,.057,3.062.7.7,0,0,0,0,3.34V15.187A2.816,2.816,0,0,0,2.812,18H15.186a2.809,2.809,0,0,0,2.668-1.922.7.7,0,0,0-1.334-.445,1.4,1.4,0,0,1-1.334.961H2.812a1.408,1.408,0,0,1-1.406-1.406V5.5a2.1,2.1,0,0,0,.7.121h13.08a1.408,1.408,0,0,1,1.406,1.406v2Zm2.355,2.812H14.237a.7.7,0,0,1,0-1.406h2.355ZM5.876,4.219l4.188-2.545.749,1.267a.7.7,0,0,0,.051.1.713.713,0,0,0,.05.07l.654,1.107Zm7.325,0L12.423,2.9l1.187-.736L14.86,4.216Z" transform="translate(0 0.001)"/></g></g></g></svg>