<svg width="24" height="24" viewBox="0 0 24 24" fill="none" xmlns="http://www.w3.org/2000/svg">
<path d="M10.59 6.41002C10.5171 6.34069 10.4207 6.30142 10.32 6.30002H8.70005V5.00002C8.70063 4.90682 8.68232 4.81446 8.64623 4.72853C8.61014 4.64259 8.55701 4.56486 8.49005 4.50002C8.35583 4.37049 8.17658 4.2981 7.99005 4.2981C7.80352 4.2981 7.62427 4.37049 7.49005 4.50002C7.42622 4.56619 7.37648 4.64462 7.34382 4.73056C7.31117 4.8165 7.29627 4.90816 7.30005 5.00002V6.30002H5.68005C5.57927 6.30002 5.48261 6.34006 5.41135 6.41132C5.34008 6.48259 5.30005 6.57924 5.30005 6.68002V17.32C5.30005 17.4208 5.34008 17.5175 5.41135 17.5887C5.48261 17.66 5.57927 17.7 5.68005 17.7H7.30005V19C7.29894 19.0909 7.31607 19.1811 7.35042 19.2653C7.38477 19.3494 7.43565 19.4259 7.50005 19.49C7.63427 19.6196 7.81352 19.6919 8.00005 19.6919C8.18658 19.6919 8.36583 19.6196 8.50005 19.49C8.56399 19.4255 8.61458 19.349 8.6489 19.265C8.68322 19.1809 8.7006 19.0908 8.70005 19V17.7H10.32C10.37 17.7 10.4194 17.6902 10.4655 17.6711C10.5116 17.652 10.5535 17.624 10.5887 17.5887C10.624 17.5534 10.652 17.5115 10.6711 17.4654C10.6902 17.4193 10.7 17.3699 10.7 17.32V6.68002C10.6987 6.57939 10.6594 6.48298 10.59 6.41002V6.41002ZM9.30005 16.3H6.70005V7.70002H9.30005V16.3Z" fill="#1A488E"/>
<path d="M18.59 8.41003C18.5171 8.3407 18.4207 8.30143 18.32 8.30003H16.7V5.00003C16.7012 4.90914 16.684 4.81894 16.6497 4.73478C16.6153 4.65061 16.5644 4.57419 16.5 4.51003C16.3658 4.3805 16.1866 4.30811 16 4.30811C15.8135 4.30811 15.6343 4.3805 15.5 4.51003C15.4331 4.57487 15.38 4.6526 15.3439 4.73854C15.3078 4.82447 15.2895 4.91683 15.29 5.01003V8.30003H13.68C13.6301 8.30003 13.5807 8.30986 13.5346 8.32896C13.4885 8.34805 13.4466 8.37605 13.4113 8.41133C13.3761 8.44662 13.3481 8.48851 13.329 8.53461C13.3099 8.58072 13.3 8.63013 13.3 8.68003V14.32C13.3 14.4208 13.3401 14.5175 13.4113 14.5887C13.4826 14.66 13.5793 14.7 13.68 14.7H15.3V19C15.2989 19.0909 15.3161 19.1811 15.3504 19.2653C15.3848 19.3495 15.4357 19.4259 15.5 19.49C15.6343 19.6196 15.8135 19.692 16 19.692C16.1866 19.692 16.3658 19.6196 16.5 19.49C16.567 19.4252 16.6201 19.3475 16.6562 19.2615C16.6923 19.1756 16.7106 19.0832 16.71 18.99V14.7H18.33C18.4308 14.7 18.5275 14.66 18.5988 14.5887C18.67 14.5175 18.71 14.4208 18.71 14.32V8.68003C18.706 8.57802 18.663 8.48142 18.59 8.41003ZM17.3 13.3H14.7V9.70003H17.3V13.3Z" fill="#1A488E"/>
</svg>
